<svg width="233" height="108" viewBox="0 0 233 108" fill="none" xmlns="http://www.w3.org/2000/svg">
<g id="Group 16">
<path id="Vector" d="M42.2642 79.1027C43.6746 78.3153 44.996 77.4729 46.546 76.9566C47.1051 76.7492 47.6936 76.9907 48.0281 77.4439C48.7139 78.4222 49.1287 79.5403 49.7426 80.5356C50.3564 81.5309 51.0761 82.6532 51.1309 83.8559C50.6565 84.4233 50.0762 84.8636 49.3901 85.1768C46.9888 86.2732 44.8118 88.0005 43.435 90.2235C42.7022 91.3074 43.0195 92.9802 41.8082 93.6448C40.4529 94.3433 39.0977 95.0418 37.6196 95.5412C35.8536 96.1083 34.1722 97.0353 32.4062 97.6025C30.3141 98.3982 28.2896 99.4819 26.2313 100.422C24.3001 101.255 22.5424 102.504 20.6112 103.338C18.1379 104.451 15.8042 105.836 13.1955 106.373C11.5439 106.457 10.5618 104.865 9.6981 103.776C8.83872 102.383 7.69137 101.057 7.06919 99.3802C7.62419 98.1861 8.85239 97.5935 9.91968 96.9627C13.5578 94.664 17.1578 92.5261 20.9356 90.4984C28.0042 86.6335 35.1067 82.9126 42.2642 79.1027Z" fill="#333F72"/>
<path id="Vector_2" d="M206.857 13.9714C212.168 11.3554 217.428 8.52336 222.913 6.32239C225.369 5.13715 227.982 4.29495 230.473 3.25369C231.171 3.31736 231.502 4.07546 231.853 4.60064C232.272 5.4138 232.996 6.23125 233 7.21795C232.864 7.9336 232.072 8.11977 231.602 8.38224C228.172 9.94841 224.691 11.2986 221.349 12.9198C218.888 14.41 216.199 15.574 213.544 16.882C211.265 18.1774 208.864 19.2737 206.479 20.442C204.184 21.6654 201.698 22.4018 199.368 23.4812C198.475 23.2354 197.827 22.0961 198.306 21.2238C198.012 20.837 197.743 20.4445 197.497 20.0464C197.722 19.3858 197.646 18.416 198.438 18.2299C201.326 16.9431 203.969 15.2582 206.857 13.9714Z" fill="#333F72"/>
<path id="Vector_3" d="M55.0602 44.3379C55.6998 43.5038 56.2336 42.5426 57.1738 42.0177C58.3682 41.2811 59.753 41.0315 61.1717 40.926C61.4046 40.9472 61.8704 40.9896 62.0864 40.9388C62.1202 41.0828 62.099 41.3157 62.0608 41.4767C59.9435 41.5186 57.5169 41.8611 56.2884 43.7453C55.3522 45.257 53.9545 46.4212 52.2436 46.8994C51.4347 47.0136 50.8163 47.6148 50.7695 48.3855C50.5195 49.5839 50.7183 50.7528 50.6841 51.9004C50.5232 51.8622 50.2183 51.8579 50.1294 51.8029C49.9011 50.1851 49.4441 48.2413 50.575 46.9118C52.0066 45.8915 53.9462 45.7394 55.0602 44.3379Z" fill="black"/>
<path id="Vector_4" d="M66.0038 39.1823C66.7619 38.8521 67.5664 39.0429 68.3541 39.1616C69.6247 38.1032 71.2129 37.4259 72.8602 37.6464C73.9866 37.9135 75.0198 38.4303 76.108 38.8582C77.1371 38.3884 78.1706 37.6136 79.3351 37.7197C80.6944 38.008 81.9393 38.779 83.0402 39.5838C82.9131 39.6896 82.8199 39.9395 82.7648 40.0284C81.8206 39.5666 80.9314 39.0159 80.004 38.6261C79.1656 38.2914 78.3186 38.5665 77.5605 38.8967C78.5851 40.0233 78.9024 41.6961 78.6649 43.2714C78.5209 43.3053 78.2668 43.5169 78.1397 43.6228C78.1145 42.869 78.1612 42.0983 78.136 41.3445C77.9498 40.5525 77.8018 39.5997 76.8363 39.3708C76.04 39.8619 75.2029 40.2866 74.3248 40.645C74.4943 40.0733 74.9475 39.7388 75.4007 39.4044C74.4903 39.0866 73.6562 38.447 72.6356 38.307C70.9332 38.1754 69.6075 39.3228 68.1464 39.8942C67.4308 39.7585 66.533 39.8176 66.0038 39.1823Z" fill="black"/>
<path id="Vector_5" d="M62.1451 44.4199C61.9334 44.1658 61.7161 43.8877 61.4931 43.5855C61.6457 42.9419 61.8152 42.3702 61.8069 41.6884C60.7735 42.4632 60.6206 44.3984 62.0307 44.9027C61.9969 44.7587 62.0901 44.5088 62.1451 44.4199Z" fill="black"/>
<path id="Vector_6" d="M66.529 40.1224C66.745 40.0716 67.2658 40.0251 67.4988 40.0464C67.8163 40.4275 68.0068 40.9146 68.1972 41.4016C67.4646 41.194 67.0243 40.6137 66.529 40.1224Z" fill="black"/>
<path id="Vector_7" d="M108.063 20.6339C108.783 20.4647 109.477 20.8332 110.214 20.736C110.972 20.4058 111.625 19.9486 112.4 19.6904C113.717 19.1529 115.25 19.8562 116.533 19.1746C117.545 18.6328 118.591 18.2349 119.76 18.0361C120.98 18.0533 122.547 17.609 123.338 18.7144C122.241 18.8963 121.098 18.5573 120.018 18.8111C118.617 18.9887 117.511 19.7804 116.266 20.301C116.647 21.2751 116.613 22.4227 116.168 23.439C116.117 23.223 115.961 22.8799 115.838 22.6809C115.918 22.0541 115.855 21.4613 115.864 20.8515C115.847 20.7795 115.652 20.5973 115.618 20.4533C114.559 20.4743 113.522 20.2623 112.442 20.5162C111.489 20.6642 110.705 21.5322 109.736 21.6082C109.984 21.8031 110.256 21.9923 110.553 22.1759C110.68 22.5005 110.825 22.7956 110.989 23.061C110.862 23.1669 110.646 23.2176 110.519 23.3235C110.167 22.7983 109.778 22.434 109.371 21.9978C109.482 21.8199 109.586 21.6181 109.685 21.3922C109.037 21.5446 108.414 21.1591 108.063 20.6339Z" fill="black"/>
<path id="Vector_8" d="M105.454 23.7543C105.928 23.1869 106.514 22.7706 107.212 22.5054C106.86 23.2718 106.208 23.729 105.733 24.2964C105.276 24.9358 104.924 25.7022 104.166 26.0324C104.23 25.3336 104.632 24.7832 105.052 24.3047C105.09 24.1438 105.327 23.8601 105.454 23.7543Z" fill="black"/>
<path id="Vector_9" d="M148.597 4.64727C150.253 2.9664 152.193 1.52274 154.586 1.03622C155.107 0.989742 155.704 0.621443 156.199 1.11278C155.259 1.6377 154.201 1.65866 153.188 2.2005C151.113 3.06821 149.012 4.47373 148.085 6.66715C147.513 7.78925 147.262 8.98765 146.94 10.203C146.813 10.3088 146.559 10.5205 146.36 10.6433C146.229 8.4708 147.246 6.33244 148.597 4.64727Z" fill="black"/>
<path id="Vector_10" d="M99.5074 28.1913C99.9988 27.6959 100.507 27.2725 101.015 26.8491C101.104 26.9042 101.426 26.9805 101.515 27.0356C99.2278 28.9408 98.3083 31.816 97.4269 34.5303C97.1811 35.4238 96.5966 36.169 96.4397 37.1175C96.1555 39.4635 95.6214 41.7163 95.0154 43.9861C94.6427 44.1243 94.2757 44.2866 93.9143 44.4728C93.5841 43.7147 94.7699 43.5879 94.7615 42.9061C95.1134 40.8481 95.6982 38.8113 95.8723 36.6431C96.7918 33.7679 97.7495 30.7318 99.5074 28.1913Z" fill="black"/>
<path id="Vector_11" d="M56.0502 49.1954C56.4653 49.0218 56.9862 48.9754 57.2317 49.3735C57.7778 50.0808 58.324 50.7881 58.6711 51.6182C60.0051 51.1526 61.5296 51.1741 62.724 50.4375C63.3679 49.2985 61.8224 48.2183 62.5383 47.0624C63.186 48.2016 63.6685 49.6077 63.2193 50.9288C61.7032 51.5892 59.9753 51.9954 58.2856 52.2406C57.9216 51.3385 57.4136 50.4703 56.7234 49.7968C56.5287 49.6147 56.2281 49.3055 56.0502 49.1954Z" fill="black"/>
<path id="Vector_12" d="M52.5811 53.5056C52.7042 52.413 53.0601 51.3417 53.8606 50.5457C54.1951 50.9989 53.8477 51.4604 53.6444 51.8881C53.386 52.4047 53.2885 52.9594 53.1909 53.5142C53.4491 54.2892 54.2029 54.2639 54.889 53.9507C54.749 54.9712 53.7285 54.8313 53.0679 54.6067C52.8817 54.2453 52.7194 53.8783 52.5811 53.5056Z" fill="black"/>
<path id="Vector_13" d="M59.9802 47.8156C60.6494 47.4304 61.3186 47.0452 62.0936 46.787C61.7038 47.7143 60.7297 48.0953 59.8997 48.4424C59.9378 48.2814 59.9421 47.9765 59.9802 47.8156Z" fill="black"/>
<path id="Vector_14" d="M104.305 28.8868C104.42 28.4041 104.322 27.6672 104.865 27.3878C105.487 27.7733 104.792 28.6964 104.305 28.8868Z" fill="black"/>
<path id="Vector_15" d="M64.2279 46.8171C65.8373 45.907 67.5694 45.1959 69.2127 44.4297C69.7236 44.6642 70.1922 44.9339 70.6184 45.2389C71.5033 46.0945 72.1763 47.9875 70.8379 48.758C70.8127 48.0042 71.0373 47.3436 71.012 46.5898C70.7665 46.1917 70.3939 45.8994 70.0763 45.5182C69.8985 45.4081 69.5979 45.0989 69.4201 44.9888C67.7768 45.7549 65.905 46.195 64.4353 47.3762C64.3208 47.8589 64.2784 48.3247 64.0581 48.6804C63.8633 48.4983 63.6009 48.0282 63.4781 47.8291C63.6984 47.4734 63.9483 47.1361 64.2279 46.8171Z" fill="black"/>
<path id="Vector_16" d="M102.315 28.8229C103.23 28.8357 104.508 29.7507 104.135 30.7501C103.462 30.1486 102.789 29.5471 102.315 28.8229Z" fill="black"/>
<path id="Vector_17" d="M127.607 17.4829C128.548 16.958 129.246 18.3133 130.199 18.1652C131.85 18.0809 133.646 17.9626 135.213 18.8099C136.813 19.8012 139.053 19.9583 140.069 21.6948C140.294 22.3258 141.001 23.0713 140.293 23.6174C139.642 21.4914 137.537 20.6186 135.644 20C136.093 21.262 136.305 22.8078 135.694 24.0908C135.336 24.0738 134.972 24.0328 134.602 23.9678C134.801 23.845 135.271 23.5825 135.47 23.4598C135.525 22.0792 135.403 20.5886 134.594 19.4111C133.294 18.7291 131.787 18.7796 130.368 18.8852C129.254 18.9951 128.314 18.2284 127.607 17.4829Z" fill="black"/>
<path id="Vector_18" d="M154.729 6.16886C154.365 5.26678 155.255 4.52587 155.941 4.21264C156.072 5.0935 155.115 5.54643 154.729 6.16886Z" fill="black"/>
<path id="Vector_19" d="M160.726 1.94802C161.112 1.32559 161.984 1.80429 162.509 1.45291C163.826 0.915357 164.97 -0.0372356 166.423 0.00117003C167.892 0.11157 169.319 0.687788 170.733 0.887107C170.949 0.836333 171.254 0.840628 171.415 0.878774C172.206 0.794238 172.972 0.715338 173.715 0.642085C176.404 0.769669 178.826 2.02365 181.214 3.13365C182.586 3.79878 184.144 3.96426 185.516 4.62939C187.261 5.5868 188.183 7.5731 189.581 8.99203C190.25 9.8984 191.3 10.4872 192.041 11.3767C191.033 11.6136 190.347 10.6353 189.619 10.1227C188.077 8.73764 187.011 6.78519 185.359 5.57795C183.793 4.73068 181.984 4.47199 180.401 3.55273C178.389 2.43011 176.268 1.48533 173.977 1.11221C172.558 1.21779 171.08 1.7172 169.632 1.37389C168.578 1.08995 167.468 0.894917 166.359 0.699893C164.352 0.563976 162.738 3.07064 160.726 1.94802Z" fill="black"/>
<path id="Vector_20" d="M108.549 28.1931C109.375 26.8593 110.451 25.6187 112.018 25.1744C112.937 24.8824 113.923 24.8784 114.876 24.7303C114.91 24.8743 114.889 25.1072 114.851 25.2682C113.682 25.4669 112.496 25.5937 111.361 25.9365C110.582 26.4996 109.997 27.2448 109.396 27.918C109.043 28.3555 108.749 28.8298 108.515 29.3407C109.001 30.4419 110.085 31.1747 111.102 31.6196C112.846 31.2854 114.557 30.8072 116.112 29.9859C116.497 29.3635 116.866 28.6691 116.984 27.8814C116.506 27.4621 116.028 27.0428 115.439 26.8013C115.579 27.0723 115.786 27.6313 115.926 27.9024C115.765 27.8642 115.443 27.788 115.282 27.7498C115.181 27.3178 115.103 26.8802 115.049 26.437C116.096 26.0391 116.98 26.8947 117.471 27.691C117.725 28.7709 116.942 29.6389 116.535 30.4942C114.871 31.4933 112.859 31.6623 111.11 32.3013C109.789 31.8522 108.527 31.0092 108.045 29.6032C108.083 29.4423 108.197 28.9595 108.235 28.7986C107.947 28.8663 107.443 28.9848 107.172 29.1245C107.164 28.8732 107.155 28.622 107.147 28.3707C106.969 28.2605 106.719 28.1673 106.541 28.0572C107.211 27.672 107.888 27.9685 108.549 28.1931Z" fill="black"/>
<path id="Vector_21" d="M47.9135 57.5659C48.3541 56.8545 48.727 55.8552 49.5909 55.6521C49.6247 55.7961 49.7475 55.9951 49.7644 56.0671C48.1166 58.4298 47.1251 61.3219 47.4972 64.1974C47.5945 64.9343 47.6917 65.6712 47.628 66.3699C47.4502 66.2597 47.2385 66.0056 47.0607 65.8955C46.4006 63.0877 46.6934 60.1319 47.9135 57.5659Z" fill="black"/>
<path id="Vector_22" d="M71.9442 45.3829C72.1475 44.9553 72.5287 44.6377 73.0496 44.5913C74.3117 44.1426 75.7303 44.037 76.9795 44.5031C77.297 44.8843 77.6696 45.1766 77.7881 45.6805C78.0927 46.9764 78.8124 48.0988 79.2441 49.2889C79.3457 49.7208 79.1423 50.1485 78.7442 50.394C78.7077 49.5922 78.5144 48.8779 78.1645 48.2511C77.6395 47.3109 77.3857 46.231 77.0598 45.168C75.4042 44.2657 73.6339 45.1377 71.9442 45.3829Z" fill="black"/>
<path id="Vector_23" d="M116.286 25.2345C116.659 24.2351 117.404 23.5281 118.395 23.2191C118.429 23.3631 118.353 23.6849 118.332 23.9178C117.79 24.1972 117.318 24.5613 116.917 25.0101C117.078 26.3399 118.649 26.8823 118.665 28.2459C117.526 27.6019 116.79 26.4076 116.286 25.2345Z" fill="black"/>
<path id="Vector_24" d="M160.167 3.447C161.226 3.42604 161.297 4.70073 161.7 5.44189C162.095 5.39962 162.501 5.40535 162.919 5.45907C162.483 5.86552 161.924 6.07292 161.737 6.57258C161.475 7.39408 162.021 8.1014 162.334 8.78749C162.893 8.5801 163.524 8.35578 164.168 8.50837C164.468 8.81756 163.96 9.24094 163.638 9.16465C162.364 9.23638 161.157 9.59609 160.034 10.3158C160 10.1718 159.861 9.90074 159.827 9.75675C160.417 9.46608 161.007 9.17541 161.597 8.88474C161.377 8.37935 161.181 7.86831 161.009 7.35164C161.034 6.81383 161.026 6.13202 161.64 5.83571C160.768 5.35701 160.73 4.22631 160.167 3.447Z" fill="black"/>
<path id="Vector_25" d="M120.665 22.5336C121.191 22.1822 121.724 22.5127 122.152 22.716C122.588 23.6012 123.024 24.4863 123.388 25.3884C123.367 25.6213 123.396 26.0702 123.358 26.2311C123.303 26.32 123.087 26.3708 123.015 26.3877C122.744 25.2358 122.401 24.1008 121.66 23.2114C121.305 22.9911 120.973 22.7652 120.665 22.5336Z" fill="black"/>
<path id="Vector_26" d="M126.438 20.2649C127.56 20.8369 127.45 22.3063 128.063 23.3016C128.724 23.5262 129.473 23.8058 130.189 23.9415C131.443 24.1026 132.527 23.5439 133.746 23.5611C132.98 24.501 131.565 24.3017 130.468 24.4836C129.52 24.3267 128.499 24.1867 127.61 23.636C126.996 22.6407 126.637 21.4338 126.438 20.2649Z" fill="black"/>
<path id="Vector_27" d="M63.5542 50.0904C64.3037 50.37 64.9642 50.5946 65.7349 50.6413C67.4585 50.5401 68.9452 49.4308 70.5503 48.8256C69.8088 50.5194 67.6151 50.8831 65.9423 51.2004C65.0827 51.0986 63.88 51.1534 63.5542 50.0904Z" fill="black"/>
<path id="Vector_28" d="M152.98 8.09963C153.386 8.5359 153.378 9.1457 153.352 9.68351C153.212 10.7041 152.928 11.7585 152.449 12.6307C152.107 11.4957 152.839 10.4118 152.802 9.2811C152.807 8.87456 152.867 8.48074 152.98 8.09963Z" fill="black"/>
<path id="Vector_29" d="M98.0317 37.427C97.6296 36.6859 97.4815 35.733 97.9052 34.9497C98.2186 34.7747 98.58 34.5884 98.9894 34.3909C99.0232 34.5349 99.1629 34.8059 99.1968 34.9499C98.8721 35.0769 98.553 35.2279 98.2396 35.4029C98.2339 35.8094 98.2522 36.2103 98.2944 36.6055C98.4554 36.6437 98.8153 36.5591 99.0482 36.5803C99.1329 36.9403 98.8957 37.2239 98.8194 37.5458C98.6585 37.5076 98.1926 37.4652 98.0317 37.427Z" fill="black"/>
<path id="Vector_30" d="M143.607 15.0892C144.339 14.0052 145.216 12.8874 146.394 12.0788C146.5 12.2059 146.677 12.316 146.838 12.3542C145.292 13.8572 143.78 15.5042 143.051 17.5749C142.022 19.3363 141.276 21.335 141.373 23.3635L140.992 23.681C140.924 23.393 140.861 22.8001 140.793 22.5122C141.031 20.9369 141.412 19.3277 142.166 18.0109C142.7 17.0497 142.967 15.9233 143.607 15.0892Z" fill="black"/>
<path id="Vector_31" d="M86.6819 40.8548C87.8846 40.8 89.1722 39.8136 90.3451 40.6015C91.501 41.3174 92.6188 42.1942 93.3554 43.3885C93.7068 43.9137 92.9699 44.011 92.7413 43.6849C91.6786 42.7191 90.654 41.5925 89.299 40.9993C88.5071 41.1855 87.1136 42.0449 86.6819 40.8548Z" fill="black"/>
<path id="Vector_32" d="M164.164 4.93835C165.515 4.54479 166.841 4.68904 168.149 4.76129C168.937 4.88002 169.818 4.74892 170.457 5.2064C169.411 5.60426 170.11 6.95953 170.152 7.78531C170.211 8.6831 169.804 9.53845 168.801 9.47049C168.767 9.3265 168.771 9.02159 168.809 8.86068L169.292 8.97511C169.368 8.65329 169.468 8.32582 169.593 7.99271C169.479 7.18385 169.347 6.30298 169.161 5.51104C168.34 5.24832 167.459 5.37943 166.599 5.27762C165.846 5.30288 165.127 5.37048 164.444 5.48045C164.41 5.33646 164.27 5.06541 164.164 4.93835Z" fill="black"/>
<path id="Vector_33" d="M84.3312 43.4587C84.3822 42.3831 85.9532 42.9254 86.7239 42.9722C86.9652 43.6752 86.8633 44.5348 86.8166 45.3056C86.7785 45.4665 86.8462 45.7545 86.825 45.9874C86.8192 46.3939 86.7062 46.775 86.4859 47.1307C86.4352 46.9147 86.2616 46.4997 86.1939 46.2117C86.2321 46.0508 86.2364 45.7459 86.2576 45.513C86.2957 45.352 86.3 45.0471 86.2493 44.8312C86.3143 44.4613 86.3849 44.1155 86.4612 43.7937C85.9151 43.0864 85.013 43.4504 84.3312 43.4587Z" fill="black"/>
<path id="Vector_34" d="M101.742 35.1113C103.351 34.2012 104.893 33.003 106.867 32.995C105.346 33.9602 103.546 34.3833 102.165 35.6196C101.958 36.3522 102.017 37.2499 101.576 37.9613C101.068 37.0931 101.424 36.0217 101.742 35.1113Z" fill="black"/>
<path id="Vector_35" d="M157.659 8.291C158.68 8.43096 159.315 9.19334 159.679 10.0954C159.314 10.4849 158.933 10.8025 158.552 11.12C158.417 10.5441 158.798 10.2265 158.929 9.81577C158.561 9.2186 158.027 8.88818 157.659 8.291Z" fill="black"/>
<path id="Vector_36" d="M57.0986 57.5338C57.0608 56.4031 58.1831 55.6834 59.0683 55.2474C59.3817 55.0724 59.6682 55.1064 59.9279 55.3492C58.8268 55.836 57.9881 56.7929 57.0986 57.5338Z" fill="black"/>
<path id="Vector_37" d="M148.998 14.4296C148.897 12.7061 150.595 11.851 152.107 11.4956C151.378 12.2746 150.171 12.6343 149.637 13.5955C149.231 14.4509 150.493 15.2938 149.747 16.0009C149.468 15.4588 149.218 14.935 148.998 14.4296Z" fill="black"/>
<path id="Vector_38" d="M62.7741 54.5284C62.8122 54.3674 63.0494 54.0838 63.1045 53.9948C63.7522 55.1341 64.2177 56.4682 64.2175 57.7598C64.319 58.1918 64.0267 58.5643 63.7006 58.793C63.7221 57.2684 63.4556 55.8116 62.7741 54.5284Z" fill="black"/>
<path id="Vector_39" d="M53.5495 59.8877C53.6258 59.5659 53.6837 59.2737 53.7233 59.0111C54.2823 58.8037 54.8456 58.2915 55.3029 58.9437C54.8935 59.1412 54.4841 59.3388 54.0747 59.5363C54.3879 60.2224 54.6955 60.8845 54.9974 61.5226C56.0097 60.9808 56.7044 60.0577 57.2212 59.0246C57.6064 59.6937 57.2209 60.3162 56.8905 60.8497C56.2891 61.5229 55.4759 61.942 54.6458 62.289C54.2267 61.4759 53.8796 60.6458 53.5495 59.8877Z" fill="black"/>
<path id="Vector_40" d="M119.745 27.992C120.343 27.6237 120.974 27.3994 121.66 27.0861C122.109 27.0566 122.541 26.955 122.973 26.8535C123.006 26.9975 123.002 27.3024 122.964 27.4633C121.85 27.5732 120.855 28.187 119.745 27.992Z" fill="black"/>
<path id="Vector_41" d="M171.495 4.12683C171.076 3.31366 172.257 3.49176 172.723 3.5342C173.816 3.65723 175.179 3.64056 175.81 4.70785C174.379 4.43654 172.931 4.09324 171.495 4.12683Z" fill="black"/>
<path id="Vector_42" d="M72.2013 51.3245C72.9296 51.8371 73.6917 52.4936 74.6276 52.2736C75.3094 52.2653 76.0718 51.6302 76.546 52.3544C75.339 52.7141 73.988 53.1077 72.7939 52.5527C72.6373 52.2097 72.3579 51.6676 72.2013 51.3245Z" fill="black"/>
<path id="Vector_43" d="M116.802 30.6594C117.272 30.3969 117.776 30.2784 118.33 30.3759C118.665 30.8291 119.643 31.4349 118.969 32.125C118.83 31.854 118.567 31.3839 118.445 31.1848C118.339 31.0577 118.017 30.9814 117.911 30.8544C117.496 31.0279 116.992 31.1464 116.802 30.6594Z" fill="black"/>
<path id="Vector_44" d="M153.118 13.5371C154.02 13.1731 154.973 13.0251 155.892 12.7331C155.858 13.8807 154.3 13.7152 153.525 13.9734C153.419 13.8463 153.224 13.6642 153.118 13.5371Z" fill="black"/>
<path id="Vector_45" d="M65.4374 55.1936C65.6364 55.0709 65.9795 54.9142 66.1955 54.8635C66.3182 55.0625 66.5638 55.4606 66.7035 55.7317C66.4706 55.7105 66.1657 55.7062 66.0047 55.668C66.1909 56.46 66.2882 57.1969 66.3303 58.0226C66.4913 58.0608 66.8682 58.0482 67.0291 58.0863C67.605 57.9509 68.3505 57.2438 68.7526 57.985C67.9945 58.3152 67.0543 58.8401 66.271 58.4165C65.5301 57.527 65.6193 56.2905 65.4374 55.1936Z" fill="black"/>
<path id="Vector_46" d="M71.426 52.8742C71.8184 53.0352 72.0414 53.3373 72.0949 53.7806C72.315 54.7165 72.4248 55.8303 72.0351 56.7576C71.2275 57.2007 70.4327 57.5901 69.6506 57.9259C69.5448 57.7989 69.4771 57.5109 69.4433 57.3669C70.1293 57.0536 70.9044 56.7955 71.5397 56.2663C71.7812 55.6777 71.6458 55.1017 71.6544 54.4919C71.5303 53.964 71.4542 53.4247 71.426 52.8742Z" fill="black"/>
<path id="Vector_47" d="M102.055 38.3806C103.063 38.1437 103.676 39.139 104.278 39.7574C104.049 39.8618 103.833 39.9126 103.63 39.9097C103.117 39.3464 102.55 38.872 102.055 38.3806Z" fill="black"/>
<path id="Vector_48" d="M166.094 10.5627C165.87 9.93172 165.557 9.24562 165.332 8.6146C166.086 8.58934 167.183 8.40746 167.657 9.1317C167.153 9.25017 166.598 9.15267 166.116 9.03823C166.518 9.7794 166.759 10.4824 166.801 11.3082C166.704 11.8629 166.801 12.5998 166.187 12.8961C166.162 12.1423 166.208 11.3716 166.094 10.5627Z" fill="black"/>
<path id="Vector_49" d="M57.9664 59.6092C58.6143 59.4568 59.2749 59.6814 59.9736 59.7451C60.6681 59.6831 61.3866 59.6155 62.1291 59.5422C62.163 59.6862 62.2138 59.9022 62.1756 60.0631C60.757 60.1687 59.1349 60.702 57.9664 59.6092Z" fill="black"/>
<path id="Vector_50" d="M147.176 17.669C148.587 16.8816 150.187 16.5812 151.733 16.3698C152.11 16.3572 152.432 16.4335 152.787 16.6537C153.164 16.6411 153.596 16.5396 153.77 16.9546C154.219 18.2167 155.493 19.4365 155.061 20.8297C154.362 19.4744 153.609 18.2081 152.927 16.9248C151.153 16.8101 149.353 17.2332 147.727 18.0714C148.082 19.5833 148.565 20.9893 149.064 22.4673C150.322 22.3236 151.444 21.6039 152.791 21.5153C152.825 21.6592 152.803 21.8922 152.765 22.0531C151.469 22.3577 150.135 22.8233 148.839 23.1279C148.31 22.4926 148.09 21.5567 147.832 20.7816C147.523 19.7906 147.197 18.7277 147.176 17.669Z" fill="black"/>
<path id="Vector_51" d="M110.33 35.4476C110.457 35.3417 110.567 35.1639 110.694 35.0581C111.219 35.9983 110.63 37.0484 110.135 37.8487C109.919 37.8994 109.504 38.073 109.305 38.1957C109.711 37.3404 110.262 36.4512 110.33 35.4476Z" fill="black"/>
<path id="Vector_52" d="M112.744 34.7281C113.139 34.6858 113.522 34.6972 113.892 34.7622C113.943 34.9782 114.116 35.3932 114.167 35.6092C114.006 35.5711 113.701 35.5668 113.612 35.5117C113.304 35.2801 113.015 35.0189 112.744 34.7281Z" fill="black"/>
<path id="Vector_53" d="M123.264 30.3557C123.463 30.233 123.933 29.9705 124.132 29.8477C124.573 29.9974 124.995 30.1768 125.398 30.3858C126.639 31.4617 127.113 33.4775 125.893 34.7519L125.448 34.4766C126.27 33.4477 126.203 31.8681 125.157 30.9744C124.733 30.4661 123.908 30.5083 123.264 30.3557Z" fill="black"/>
<path id="Vector_54" d="M153.986 16.9037C154.33 16.215 154.788 15.5756 155.358 14.9857C155.544 15.7776 154.917 16.9886 153.986 16.9037Z" fill="black"/>
<path id="Vector_55" d="M87.0999 48.126C87.426 47.8974 88.0146 48.1389 87.8832 48.5497C87.7137 49.1213 86.6085 48.6214 87.0999 48.126Z" fill="black"/>
<path id="Vector_56" d="M174.979 8.92969C175.67 8.31155 175.649 7.25286 175.823 6.3763C176.057 6.72642 176.267 7.08218 176.453 7.44358C175.996 9.37455 174.026 10.3693 172.264 10.6315C171.844 10.7811 171.492 10.6864 171.21 10.3476C172.523 10.1149 173.785 9.6663 174.979 8.92969Z" fill="black"/>
<path id="Vector_57" d="M78.3411 53.5279C78.4174 53.2061 78.299 52.7021 78.7478 52.6725C79.4041 53.202 78.9085 54.0023 78.667 54.5909C78.2646 55.1413 77.0152 55.9669 76.7231 55.0478C77.3034 54.6075 78.2393 54.3875 78.3411 53.5279Z" fill="black"/>
<path id="Vector_58" d="M107.678 39.0337C107.805 38.9279 108.187 38.6104 108.386 38.4876C108.191 39.5971 107.246 40.4269 107.373 41.6126C108.228 42.0194 109.134 42.6421 110.087 42.494C111.099 41.9522 112.137 40.8725 111.922 39.6317C112.066 39.5979 112.265 39.4751 112.392 39.3692C112.442 39.5852 112.616 40.0003 112.722 40.1273C112.323 41.6645 111.015 42.8838 109.486 43.1672C108.414 42.8113 106.983 42.54 106.823 41.2102C106.869 40.4395 107.221 39.6731 107.678 39.0337Z" fill="black"/>
<path id="Vector_59" d="M162.253 13.289C162.397 13.2552 162.668 13.1155 162.812 13.0816C163.07 13.8566 162.629 14.568 162.261 15.2624C160.787 16.7485 158.923 17.8704 156.857 18.1283C156.272 18.0124 155.737 17.7836 155.252 17.4419C156.277 17.277 157.365 17.7049 158.305 17.18C159.965 16.4858 162.295 15.4064 162.253 13.289Z" fill="black"/>
<path id="Vector_60" d="M93.2956 46.3655C93.3506 46.2766 93.5709 45.9209 93.609 45.76C94.3497 47.941 95.0903 50.1221 96.4451 52.0068C96.7626 52.388 96.8811 52.892 96.9106 53.3409C96.7535 55.581 98.1421 57.6098 99.391 59.3675C98.472 59.6595 98.0572 58.5414 97.5449 57.9781C96.4526 56.5634 96.2794 54.8568 95.8181 53.2178C94.9165 50.9986 93.295 48.9487 93.2956 46.3655Z" fill="black"/>
<path id="Vector_61" d="M116.297 35.9443C116.432 35.6591 116.544 35.3797 116.631 35.1058C117.089 34.897 117.546 34.6882 118.004 34.4794C118.109 34.6064 118.16 34.8224 118.266 34.9495C117.591 35.3107 116.935 35.6423 116.297 35.9443Z" fill="black"/>
<path id="Vector_62" d="M129.752 29.5143C129.896 29.4805 130.167 29.3408 130.311 29.3069C130.607 29.921 130.849 30.624 131.162 31.3101C131.107 31.3991 130.853 31.6107 130.815 31.7717C130.412 31.0305 130.082 30.2724 129.752 29.5143Z" fill="black"/>
<path id="Vector_63" d="M140.31 24.9808C140.37 24.587 141.339 24.511 141.17 25.0826C141.055 25.5654 140.141 25.5525 140.31 24.9808Z" fill="black"/>
<path id="Vector_64" d="M120.972 35.1491C121.01 34.9881 121.192 34.7934 121.302 34.6155C122.052 34.8952 122.84 35.0139 123.369 35.6492C123.177 35.6944 122.99 35.7635 122.81 35.8566C122.204 35.5431 121.561 35.3906 120.972 35.1491Z" fill="black"/>
<path id="Vector_65" d="M69.8407 59.7046C71.1366 59.4 71.1997 61.2844 71.6357 62.1696C71.5933 62.6354 71.4789 63.1182 71.2755 63.5458C70.8819 62.1949 70.5773 60.899 69.8407 59.7046Z" fill="black"/>
<path id="Vector_66" d="M120.858 35.6317C121.103 36.0298 121.366 36.4999 121.556 36.987C120.844 39.1296 118.608 39.9592 116.732 40.7041C115.839 40.4583 115.479 39.2513 115.902 38.468C116.193 39.0581 116.484 39.6482 116.774 40.2383C118.181 39.7558 119.43 38.9303 120.468 37.8506C121.014 37.2664 120.794 36.3304 120.858 35.6317Z" fill="black"/>
<path id="Vector_67" d="M46.9322 73.751C47.1992 72.6246 46.8438 71.1127 47.9492 70.321C47.9702 71.3797 47.6693 72.3621 47.6183 73.4378C47.6774 74.3356 47.6645 75.2502 47.8125 76.2031C48.244 78.6848 49.8824 80.8067 50.8009 83.0979C51.44 84.847 52.8922 86.177 54.6241 86.7575C54.0903 87.7187 52.9726 86.8419 52.3332 86.3844C50.1314 84.7748 49.5434 81.95 48.0489 79.7942C47.3886 78.2781 46.9443 76.7111 46.9488 75.1146C46.9433 74.6601 46.9377 74.2055 46.9322 73.751Z" fill="black"/>
<path id="Vector_68" d="M90.9866 51.087C91.2069 50.7313 91.4568 50.394 91.7363 50.075C91.7871 50.291 91.9606 50.706 92.0114 50.922C90.8678 51.8746 89.9359 53.0813 88.4918 53.7247C89.0637 52.6026 90.114 51.8999 90.9866 51.087Z" fill="black"/>
<path id="Vector_69" d="M170.193 13.7776C170.769 13.6422 171.374 13.9557 171.891 14.2141C172.1 14.6715 172.338 15.1472 172.606 15.6413C172.496 15.8192 172.276 16.1749 172.166 16.3527C172.016 15.932 171.891 15.5057 171.789 15.0737C171.683 14.9467 171.455 14.6205 171.349 14.4935C170.849 14.307 170.438 14.1757 170.193 13.7776Z" fill="black"/>
<path id="Vector_70" d="M99.7106 49.416C99.4568 48.336 99.9948 47.0699 101.13 46.7272C101.443 46.5522 101.711 46.6158 101.934 46.9179C101.193 47.32 100.592 47.9933 100.418 48.8698C100.553 49.4458 101.332 50.1743 100.875 50.8137C100.121 50.8389 99.918 49.975 99.7106 49.416Z" fill="black"/>
<path id="Vector_71" d="M75.2826 59.261C76.2354 59.113 77.1375 58.749 77.9338 58.2579C78.2088 59.1049 77.1628 59.5028 76.5318 59.7271C76.0447 59.9176 75.346 59.8539 75.2826 59.261Z" fill="black"/>
<path id="Vector_72" d="M90.8635 53.4711C90.8213 53.0759 90.8566 52.6877 90.9696 52.3066C91.1559 52.668 91.3422 53.0294 91.5284 53.3908C91.39 53.8792 91.2275 54.3732 91.0411 54.8729C90.1729 55.3809 89.2074 55.152 88.3308 54.9782C88.225 54.8511 88.1742 54.6351 88.1404 54.4911C88.9323 54.305 89.7538 54.5677 90.5627 54.4535C90.639 54.1317 90.7392 53.8042 90.8635 53.4711Z" fill="black"/>
<path id="Vector_73" d="M163.416 18.5615C164.416 17.6428 165.953 16.7496 167.215 17.5925C167.609 17.6519 167.533 17.9737 167.456 18.2956C166.499 17.4569 165.043 17.7234 164.259 18.5913C163.386 19.4042 162.349 20.4839 162.348 21.7755C162.365 22.278 162.269 22.7311 162.06 23.1348C161.239 21.5805 162.323 19.7301 163.416 18.5615Z" fill="black"/>
<path id="Vector_74" d="M61.141 67.296C61.285 67.2622 61.5899 67.2665 61.7508 67.3046C61.9582 67.8636 61.9665 68.5454 61.5472 69.0239C60.8949 69.4811 59.6836 70.1457 59.1418 69.1335C59.7177 68.9981 60.4165 69.0618 60.9247 68.6384C61.1281 68.2107 61.0985 67.7618 61.141 67.296Z" fill="black"/>
<path id="Vector_75" d="M130.157 36.4086C130.636 35.5364 131.186 34.6472 131.826 33.813C132.241 34.9311 131.148 36.0997 130.157 36.4086Z" fill="black"/>
<path id="Vector_76" d="M179.586 11.7215C180.649 11.3956 181.572 12.0903 182.444 12.569C183.223 13.2975 183.837 14.2928 183.481 15.3642C182.948 16.3254 181.813 16.6681 181.084 17.4472C180.576 17.8706 180.118 18.5099 179.364 18.5352C178.755 18.5266 178.204 18.1242 177.688 17.8657C177.103 17.3193 176.324 16.5908 177.053 15.8118C177.193 16.0828 177.383 16.5698 177.451 16.8578C178.007 17.2842 178.581 17.681 179.174 18.0481C180.313 17.4004 181.241 16.4986 182.363 15.7789C182.85 15.5885 182.931 14.9617 183.134 14.5341C182.838 13.92 182.398 13.3397 181.775 12.9542C181.119 12.4248 180.115 12.3568 179.586 11.7215Z" fill="black"/>
<path id="Vector_77" d="M66.3884 65.3786C67.1253 65.2814 67.8452 65.1121 68.5313 64.7989C68.7091 64.909 68.9759 65.0743 69.0648 65.1293C68.5707 65.3974 68.0526 65.6712 67.5105 65.9506C67.1068 65.7416 66.7328 65.5509 66.3884 65.3786Z" fill="black"/>
<path id="Vector_78" d="M141.922 30.2241C141.906 30.1521 141.982 29.8302 142.037 29.7413C143.138 30.5461 143.37 31.859 143.353 33.0786C143.323 35.2129 143.526 37.3685 143.856 39.4181C144.105 40.803 143.889 42.1453 144.211 43.5132C144.422 45.059 145.68 46.2068 146.687 47.2615C146.632 47.3504 146.484 47.6892 146.446 47.8501C145.15 46.8631 143.897 45.4103 143.652 43.7206C143.224 42.2257 143.301 40.6122 142.874 39.1173C142.298 36.6695 142.62 34.1625 142.583 31.7402C142.591 31.1304 142.185 30.6942 141.922 30.2241Z" fill="black"/>
<path id="Vector_79" d="M25.3532 86.3452C28.8261 84.3132 32.5784 82.8233 36.1572 80.9184C38.0758 79.7077 40.1341 78.7679 42.2093 77.9002C42.2262 77.9722 42.2219 78.2771 42.2558 78.4211C39.4477 80.3728 36.1486 81.5282 33.2178 83.2808C29.9821 85.0291 26.5897 86.4344 23.4091 88.0938C21.3634 89.4104 19.1442 90.3119 16.9758 91.4295C15.3876 92.1067 14.045 93.1821 12.4568 93.8593C10.4536 94.7101 8.69591 95.959 6.62499 96.5218C6.59114 96.3778 6.61236 96.1449 6.65051 95.984C8.60295 94.9173 10.784 94.1766 12.5968 92.8388C14.2612 91.8397 16.0992 91.2557 17.6917 90.2735C20.1355 88.7114 22.8756 87.7634 25.3532 86.3452Z" fill="black"/>
<path id="Vector_80" d="M154.547 25.4329C154.59 24.967 154.844 24.7553 155.187 24.5987C156.28 24.7218 157.656 25.082 157.888 26.3948C157.833 26.4837 157.685 26.8225 157.575 27.0003C157.389 26.6389 157.202 26.2775 157.016 25.9161C156.288 25.4036 155.449 25.0688 154.547 25.4329Z" fill="black"/>
<path id="Vector_81" d="M43.7635 78.3706C43.4714 77.4516 44.835 77.4349 45.3433 77.0115C45.6522 78.0025 44.3606 78.0023 43.7635 78.3706Z" fill="black"/>
<path id="Vector_82" d="M170.505 18.3386C170.666 18.3767 171.06 18.4361 171.221 18.4742C171.657 19.3594 172.36 20.4097 171.487 21.2226C171.394 20.1809 170.941 19.2237 170.505 18.3386Z" fill="black"/>
<path id="Vector_83" d="M154.661 26.2416C154.632 25.7927 155.53 25.7336 155.36 26.3053C155.335 26.8431 154.42 26.8302 154.661 26.2416Z" fill="black"/>
<path id="Vector_84" d="M5.30796 97.0593C6.79003 97.5466 7.21315 99.3465 8.02175 100.524C8.97434 101.667 9.32976 103.179 10.2654 104.251C10.8116 104.958 11.4297 105.649 11.9759 106.356C11.8319 106.39 11.7217 106.568 11.5777 106.602C10.6885 106.051 10.0196 105.144 9.45656 104.365C8.72425 102.866 7.73781 101.578 7.07749 100.062C6.53564 99.0499 5.72274 98.1774 5.30796 97.0593Z" fill="black"/>
<path id="Vector_85" d="M119.577 43.758C120.784 43.3982 122.08 43.0936 123.287 42.7339C123.63 42.5773 124.041 42.7086 124.435 42.768C122.88 43.5892 121.208 43.9065 119.552 44.2958C119.518 44.1518 119.611 43.9019 119.577 43.758Z" fill="black"/>
<path id="Vector_86" d="M82.9214 62.0237C83.1248 61.5961 83.2943 61.0244 83.8703 60.889C83.8278 61.3548 83.7854 61.8206 83.7429 62.2865C84.2214 62.7058 84.738 62.9642 85.2715 63.2946C84.7082 63.8069 84.0137 63.4384 83.4082 63.1249C83.27 62.7522 83.1077 62.3851 82.9214 62.0237Z" fill="black"/>
<path id="Vector_87" d="M86.2587 60.7074C86.0852 60.2923 85.9836 59.8603 86.4368 59.5259C86.6231 59.8873 86.8093 60.2487 86.9956 60.6101C86.8092 61.1098 86.6411 61.5798 86.4914 62.0202C86.2754 62.071 85.8603 62.2445 85.6444 62.2953C85.8308 61.7956 86.0723 61.207 86.2587 60.7074Z" fill="black"/>
<path id="Vector_88" d="M127.827 40.0712C129.119 40.0715 128.055 41.6889 127.319 41.7862C126.899 40.973 128.246 40.8844 127.827 40.0712Z" fill="black"/>
<path id="Vector_89" d="M164.906 23.6055C165.859 23.4575 166.795 23.2375 167.752 22.7846C167.934 23.8814 166.32 23.8049 165.6 23.9741C165.439 23.936 165.084 23.7157 164.906 23.6055Z" fill="black"/>
<path id="Vector_90" d="M8.44143 98.7539C8.5685 98.6481 8.7337 98.3813 8.84384 98.2035C10.0629 100.804 11.6251 103.248 13.5684 105.374C15.3133 104.609 17.0003 103.706 18.6295 102.665C20.5057 101.92 22.0855 100.561 23.9617 99.8157C25.6049 99.0496 27.0026 97.8853 28.7348 97.1742C30.882 96.2896 32.7667 94.9348 34.897 93.9782C35.2471 93.7439 35.5393 93.8019 35.7736 94.152C33.9482 95.1129 32.2456 96.2729 30.3864 97.0898C28.0401 98.0972 25.9732 99.6467 23.61 100.582C22.0655 101.553 20.4745 102.434 18.8369 103.224C17.3333 104.261 15.6901 105.027 13.9749 105.81C14.0807 105.937 14.2373 106.28 14.3432 106.407C13.5512 106.593 13.0601 105.797 12.6368 105.289C10.9433 103.256 9.39377 101.189 8.44143 98.7539Z" fill="black"/>
<path id="Vector_91" d="M110.157 51.5185C110.699 51.2391 111.247 50.9838 111.801 50.7524C112.042 51.4554 111.216 51.4975 110.835 51.8151C110.365 52.0775 110.373 52.7593 110.259 53.2421C110.22 53.403 110.233 53.7799 110.212 54.0128C110.318 54.1399 110.402 54.4998 110.525 54.6989C110.398 54.8048 110.161 55.0884 110.123 55.2493C109.314 54.0719 109.674 52.6957 110.157 51.5185Z" fill="black"/>
<path id="Vector_92" d="M44.0838 86.1965C44.9775 85.1507 45.9771 84.2319 47.3112 83.7664C47.1798 84.1771 47.0484 84.5878 46.6334 84.7614C44.3887 86.2008 43.0458 88.5677 42.0967 90.9941C41.9232 90.579 41.7878 90.0031 42.0462 89.4865C42.5292 88.3093 43.262 87.2253 44.0838 86.1965Z" fill="black"/>
<path id="Vector_93" d="M69.4859 75.9703C70.7311 75.4497 71.2522 74.1116 71.5743 72.8963C71.6971 73.0954 71.9257 73.4215 72.0484 73.6206C71.8026 74.5141 71.307 75.3143 70.7225 76.0595C69.7272 76.6734 68.5202 77.0331 67.7197 77.8291C66.8345 78.2651 65.386 79.2134 64.6833 78.163C65.1039 78.0135 65.5176 77.9415 65.9241 77.9473C67.1354 77.2826 68.2408 76.491 69.4859 75.9703Z" fill="black"/>
<path id="Vector_94" d="M138.536 42.644C138.635 42.4181 138.728 42.1683 138.816 41.8945C139.981 42.0006 140.683 43.0509 140.721 44.1816C140.865 45.4394 140.221 46.5784 140.043 47.7599C139.928 48.2426 139.797 48.6534 139.382 48.8269C139.188 47.3532 139.942 46.0363 140.141 44.6219C140.054 44.0347 139.918 43.4587 139.735 42.8941C139.324 42.7627 138.985 42.6144 138.536 42.644Z" fill="black"/>
<path id="Vector_95" d="M99.6026 60.9133C99.8017 60.7905 100.056 60.5789 100.255 60.4561C100.288 61.8917 100.428 63.4543 101.325 64.6868C102.151 65.9363 103.358 66.8682 104.619 67.7111C104.653 67.8551 104.81 68.1982 104.916 68.3252C103.357 68.1598 102.244 66.978 101.253 65.9954C100.216 64.4918 99.3608 62.7935 99.6026 60.9133Z" fill="black"/>
<path id="Vector_96" d="M194.703 15.9167C194.847 15.8829 195.169 15.9592 195.313 15.9253C195.821 16.7936 196.456 17.5559 197.18 18.3734C195.816 18.3901 195.3 16.84 194.703 15.9167Z" fill="black"/>
<path id="Vector_97" d="M44.8794 88.2887C46.3746 86.5696 48.4711 85.469 50.5463 84.6013C50.5801 84.7453 50.6309 84.9613 50.6648 85.1053C49.0723 86.0874 47.4629 86.9976 46.0652 88.1619C45.0275 89.2415 44.2353 90.7193 44.3578 92.21C44.3775 92.5092 44.3195 92.8014 44.184 93.0865C42.9858 91.5448 43.9814 89.6394 44.8794 88.2887Z" fill="black"/>
<path id="Vector_98" d="M79.5486 70.9457C79.9129 70.5562 80.5184 70.8697 80.9165 70.6242C81.3866 70.3617 81.7509 69.9722 82.1321 69.6547C82.6105 70.074 82.2251 70.6964 81.8269 70.942C81.3356 71.4373 80.6538 71.4457 80.0778 71.5811C79.8774 71.3749 79.701 71.1632 79.5486 70.9457Z" fill="black"/>
<path id="Vector_99" d="M124.259 51.3941C124.482 50.8352 124.687 50.3059 124.874 49.8062C126.004 49.7683 127.11 50.2682 127.579 51.2974C127.787 51.8564 128.477 52.5299 127.825 52.9871C127.338 51.886 126.69 50.7467 125.386 50.3695C125.144 50.9581 124.958 51.4578 124.717 52.0464C124.611 51.9193 124.365 51.5212 124.259 51.3941Z" fill="black"/>
<path id="Vector_100" d="M197.744 16.5696C202.047 15.4822 206.024 13.3317 209.996 11.4861C215.016 9.14109 220.036 6.79605 225.056 4.45099C226.611 3.62976 228.411 3.20664 229.982 2.4574C230.16 2.56754 230.354 2.74968 230.46 2.87674C222.913 6.32232 215.489 9.96697 207.853 13.3575C204.588 14.6569 201.441 16.4603 197.951 17.1287C197.917 16.9847 197.85 16.6967 197.744 16.5696Z" fill="black"/>
<path id="Vector_101" d="M158.504 37.4179C158.466 37.5788 158.462 37.8837 158.496 38.0277C160.097 37.7274 162.125 36.3388 161.452 34.4457C160.978 35.0131 160.859 35.8007 160.296 36.313C159.821 36.8804 159.118 37.1216 158.504 37.4179Z" fill="black"/>
<path id="Vector_102" d="M37.5058 93.4407C38.4799 93.0598 39.4539 92.6789 40.3052 92.0989C40.4662 92.137 40.7329 92.3022 40.8938 92.3404C39.8773 93.1871 38.7211 93.7628 37.4083 93.9955C37.4633 93.9066 37.4676 93.6016 37.5058 93.4407Z" fill="black"/>
<path id="Vector_103" d="M173.958 30.4422C173.73 30.1161 172.875 29.7094 173.417 29.43C173.764 28.9685 174.166 29.7096 174.488 29.7859C174.754 31.2427 173.09 32.2418 171.845 31.4708C172.531 31.1576 173.289 30.8274 173.958 30.4422Z" fill="black"/>
<path id="Vector_104" d="M229.749 3.72778C229.774 3.18997 230.507 3.39762 230.752 3.79573C231.595 5.11715 232.848 6.56994 232.627 8.21723C232.145 8.10279 231.594 7.70037 231.052 7.97976C228.291 9.1607 225.58 10.5576 222.853 11.8826C217.427 14.9813 211.566 17.1949 206.141 20.2937C203.739 21.39 201.427 22.5414 199.165 23.9088C199.148 23.8368 199.009 23.5657 198.903 23.4387C199.847 22.6088 200.931 22.0501 202.105 21.5464C205.472 19.3873 209.33 18.0245 212.803 15.9925C217.809 13.3722 222.971 11.0949 228.028 8.69059C229.129 8.20381 230.18 7.50105 231.438 7.35733C230.646 6.25189 230.866 4.60461 229.749 3.72778Z" fill="black"/>
<path id="Vector_105" d="M13.3773 107.47C17.1763 105.209 21.2717 103.563 25.1554 101.662C31.0084 98.767 36.8953 96.0155 42.7822 93.2641C42.9431 93.3023 43.2988 93.5226 43.4766 93.6327C41.4183 94.5724 39.432 95.4952 37.3907 96.5069C30.6482 100.143 23.6094 103.165 16.7272 106.531C15.6811 106.929 14.5926 107.792 13.3773 107.47Z" fill="black"/>
<path id="Vector_106" d="M197.802 20.0507C197.946 20.0168 198.179 20.0381 198.323 20.0042C198.247 21.6176 198.636 23.2735 199.063 24.7685C200.21 29.969 200.526 35.5166 198.59 40.5302C198.141 41.8514 197.531 43.1344 196.654 44.2522C196.548 44.1251 196.353 43.943 196.248 43.8159C197.002 42.4991 197.417 41.0339 198.082 39.662C198.15 38.6583 198.701 37.7691 198.93 36.8037C199.048 36.016 199.167 35.2284 199.197 34.3857C199.265 33.382 199.261 32.3953 199.257 31.4086C199.223 29.973 198.957 28.5162 198.779 27.1145C198.453 24.7599 197.535 22.4687 197.802 20.0507Z" fill="black"/>
<path id="Vector_107" d="M95.5566 69.2337C96.5771 69.3737 97.047 70.4028 96.8901 71.3514C96.5427 71.8129 96.1954 72.2744 95.501 71.9058C95.7763 71.4612 96.1406 71.0717 96.255 70.589C96.0646 70.1019 95.747 69.7207 95.5566 69.2337Z" fill="black"/>
<path id="Vector_108" d="M203.541 18.9297C210.19 15.5432 217.046 12.7157 223.713 9.40123C225.898 8.35568 228.083 7.31014 230.286 6.33659C230.319 6.48058 230.315 6.78548 230.277 6.94639C226.81 8.57185 223.36 10.2693 219.926 12.0387C214.387 14.3286 208.949 17.0505 203.46 19.5564C203.498 19.3955 203.574 19.0736 203.541 18.9297Z" fill="black"/>
<path id="Vector_109" d="M55.1612 89.3662C55.3221 89.4043 55.61 89.3366 55.754 89.3028C55.7707 90.6664 56.5242 91.9327 57.443 92.9323C58.1543 93.3728 59.0478 93.6186 59.8312 94.0423C61.093 94.8853 61.8973 96.3676 63.3243 96.9438C64.4845 97.3548 65.7466 96.9062 66.9705 96.6185C67.1523 97.7153 65.5771 97.4778 64.891 97.7911C63.4892 97.9687 62.2062 97.3586 61.2875 96.359C60.5084 95.6305 59.8395 94.7241 58.7131 94.4571C57.9085 94.2663 57.2692 93.8089 56.6129 93.2794C55.7323 92.1189 54.9788 90.8525 55.1612 89.3662Z" fill="black"/>
<path id="Vector_110" d="M116.381 60.5397C117.232 59.9597 118.447 60.2818 119.07 59.3757C120.087 58.5289 121.539 58.5674 122.738 58.8174C122.826 58.8725 123.021 59.0546 123.127 59.1817C122.551 59.3171 122.013 59.2916 121.475 59.2661C120.811 59.3464 120.129 59.3547 119.549 59.795C119.311 60.0787 119.108 60.5064 118.799 60.807C118.278 60.8535 117.74 60.828 117.219 60.8744C117.071 61.2132 116.546 61.5646 116.935 61.9288C117.041 62.0559 117.414 62.3482 117.592 62.4583C117.105 62.6488 116.617 62.8392 116.173 62.5639C115.86 61.8778 116.228 61.1834 116.381 60.5397Z" fill="black"/>
<path id="Vector_111" d="M147.543 48.9598C148.33 49.0785 148.749 49.8916 149.262 50.455C150.108 51.4715 150.989 52.632 152.018 53.4538C153.241 54.4577 154.745 54.712 156.117 55.3772C157.15 55.894 158.314 56.0001 159.348 56.517C161.431 57.6227 163.967 58.3939 166.259 57.4754C166.572 57.3004 166.846 57.388 167.08 57.7381C166.411 58.1234 165.602 58.2376 164.81 58.4237C162.959 58.6309 161.155 58.0673 159.517 57.2369C158.395 56.665 157.014 56.6097 155.837 56.1267C154.088 55.4742 152.157 55.0164 150.904 53.5636C149.651 52.1109 148.254 50.6919 147.543 48.9598Z" fill="black"/>
<path id="Vector_112" d="M87.5807 77.6425C88.1906 77.6511 88.6352 77.9264 88.7155 78.5913C88.4358 79.3408 87.5507 79.7768 86.691 79.675C87.2162 79.3236 87.7583 79.0442 88.1057 78.5827C87.9829 78.3836 87.7204 77.9135 87.5807 77.6425Z" fill="black"/>
<path id="Vector_113" d="M105.525 69.6254C106.038 68.8972 106.275 69.9051 106.575 70.2143C106.943 70.8115 107.714 70.8582 108.082 71.4554C107.591 71.9507 107.007 71.4043 106.634 71.1121C106.101 70.7816 105.732 70.1845 105.525 69.6254Z" fill="black"/>
<path id="Vector_114" d="M187.742 32.52C187.624 32.016 187.327 31.4019 187.658 30.8684C188.488 31.8129 188.593 33.2316 187.666 34.1334C187.208 34.7727 186.437 34.726 185.739 34.6623C185.836 34.1076 186.446 34.1162 186.878 34.0147C187.225 33.5531 187.734 33.1298 187.742 32.52Z" fill="black"/>
<path id="Vector_115" d="M164.068 42.3401C164.401 42.4644 164.728 42.5647 165.05 42.641C167.062 42.472 168.798 41.456 170.234 40.1308C170.416 41.2276 169.243 41.7313 168.481 42.3664C167.324 42.9421 166.045 43.3187 164.72 43.1745C164.406 43.78 163.987 44.2584 163.551 44.6649C162.742 44.7791 161.645 44.9609 161.137 44.0927C161.624 43.9022 162.035 44.0336 162.518 44.148C162.89 44.0098 163.281 43.8419 163.691 43.6443C163.792 43.2152 163.918 42.7805 164.068 42.3401Z" fill="black"/>
<path id="Vector_116" d="M84.9801 80.1532C85.628 80.0008 86.2717 80.1534 86.9153 80.306C86.8603 80.3949 86.784 80.7167 86.7289 80.8057C86.1573 80.6362 85.0773 80.89 84.9801 80.1532Z" fill="black"/>
<path id="Vector_117" d="M101.179 73.7619C101.239 73.3681 101.704 73.4105 102.009 73.4148C103.025 75.1512 102.762 77.2643 102.466 79.2334C102.249 80.5758 101.533 81.7318 100.5 82.5065C100.538 82.3456 100.58 81.8798 100.674 81.63C100.746 81.613 100.907 81.6512 100.996 81.7063C101.839 79.1529 102.525 76.2564 101.179 73.7619Z" fill="black"/>
<path id="Vector_118" d="M141.248 56.4414C141.117 55.5606 141.206 54.3241 142.286 54.0702C142.701 53.8966 143.053 54.4218 143.336 54.659C142.941 54.7013 142.57 54.7379 142.222 54.7689C142.095 54.8748 141.947 55.2135 141.892 55.3024C141.946 55.7457 141.969 56.1706 141.964 56.5771C141.803 56.539 141.481 56.4627 141.248 56.4414Z" fill="black"/>
<path id="Vector_119" d="M74.4674 90.3738C74.332 89.7979 74.5228 88.9933 75.2596 88.8961C75.179 89.5228 75.0265 90.1665 74.4674 90.3738Z" fill="black"/>
<path id="Vector_120" d="M149.672 54.4612C149.993 54.5375 150.236 54.7084 150.4 54.9738C150.946 58.2643 149.734 61.5121 148.132 64.3957C147.247 66.1233 145.316 66.9572 144.181 68.5916C143.304 69.7094 142.567 71.0982 141.177 71.6527C140.292 72.0887 139.217 72.0376 138.23 72.0417C135.465 72.2359 134.791 75.5093 132.427 76.4447C131.038 76.9992 129.395 76.4737 128.252 77.4263C127.362 78.1672 126.244 78.582 125.063 78.4039C124.974 78.3488 124.834 78.0778 124.8 77.9338C125.393 77.8704 126.058 77.7901 126.706 77.6377C127.502 77.1467 128.265 76.5116 129.289 76.3466C130.314 76.1817 131.496 76.3598 132.491 75.746C133.592 75.2592 134.308 74.1032 135.092 73.2353C136.151 71.9227 137.845 71.3725 139.458 71.4491C141.216 71.4918 142.279 69.8743 143.283 68.6507C144.253 67.283 145.773 66.3178 147.01 65.1154C149.098 62.0413 150.175 58.2176 149.672 54.4612Z" fill="black"/>
<path id="Vector_121" d="M109.831 73.3996C111.305 73.2051 112.588 73.8151 113.947 74.1034C115.04 74.2264 116.077 74.4383 117.187 74.6333C118.44 74.7945 119.719 74.4179 120.803 75.1507C120.168 75.68 119.24 75.2902 118.432 75.4043C117.085 75.493 115.747 74.9719 114.349 74.8445C113.346 74.7766 112.456 74.2259 111.436 74.0859C110.881 73.9884 110.254 73.9078 109.831 73.3996Z" fill="black"/>
<path id="Vector_122" d="M133.395 66.3406C134.598 66.2858 135.508 65.312 136.042 64.3508C136.131 64.4059 136.415 64.6431 136.504 64.6982C136.22 65.7526 135.258 66.5104 134.195 66.8362C133.763 66.9378 132.777 66.9418 133.395 66.3406Z" fill="black"/>
<path id="Vector_123" d="M97.5776 84.941C98.2554 83.946 98.5098 82.4427 99.8608 82.0491C99.4836 83.3534 98.5179 84.4161 97.8909 85.6271C97.4419 86.0872 96.9929 86.5473 96.5439 87.0074C95.6077 88.519 94.0365 89.2682 92.5034 89.8566C92.2237 90.6061 91.9441 91.3555 91.6644 92.105C91.6137 91.8891 91.4232 91.402 91.3004 91.203C91.4699 90.6313 91.6225 89.9877 91.8809 89.4711C94.2441 88.5357 95.9553 86.7659 97.5776 84.941Z" fill="black"/>
<path id="Vector_124" d="M180.049 46.3324C181.429 46.3877 182.501 45.452 182.789 44.0927C183.454 44.0124 183.191 44.8339 183.204 45.2108C182.577 46.4218 181.184 47.2812 179.879 46.904C179.935 46.8151 180.011 46.4933 180.049 46.3324Z" fill="black"/>
<path id="Vector_125" d="M72.2635 99.097C72.4795 99.0462 72.7336 98.8345 72.9496 98.7837C73.8812 98.8686 74.8679 98.8646 75.77 98.5005C76.634 98.2975 77.2905 97.5353 78.1375 97.2602C80.1703 96.8583 82.1015 96.0245 83.6094 94.6824C84.0075 94.4368 84.4776 94.1744 84.757 94.7165C83.1221 96.1644 81.3093 97.5023 79.1325 97.938C78.2517 98.0691 77.7222 98.7254 77.053 99.1106C75.503 99.627 73.7582 99.9611 72.2635 99.097Z" fill="black"/>
<path id="Vector_126" d="M169.532 56.8578C170.667 56.515 171.866 56.7651 173.085 56.7823C175.147 56.8293 177.214 56.5714 179.162 55.8095C180.53 55.488 181.763 54.5904 183.164 54.4129C184.549 54.1633 185.18 52.6474 186.548 52.3258C188.67 51.979 190.411 50.6581 191.779 49.0449C192.073 48.5707 192.407 48.1628 192.783 47.8213C193.151 48.4184 192.66 48.9138 192.401 49.4304C191.342 50.743 190.089 51.8734 188.589 52.6057C187.205 52.8553 185.727 53.3547 184.672 54.3624C183.871 55.1583 182.601 54.9252 181.678 55.5221C180.339 56.2925 178.899 56.631 177.421 57.1304C175.55 57.5705 173.614 57.4176 171.696 57.3368C170.942 57.362 170.171 57.3153 169.532 56.8578Z" fill="black"/>
<path id="Vector_127" d="M0.190398 22.289C-0.833929 19.8708 2.52052 17.3348 4.39615 19.1731C6.02196 20.9181 4.87382 23.4672 2.94259 24.3011C1.8162 24.0341 0.295982 23.7077 0.190398 22.289Z" fill="#E56E0C"/>
<path id="Vector_128" d="M11.9746 28.7877C14.8251 26.3702 20.6134 29.34 19.4099 33.2696C18.2406 36.0516 13.9757 38.2698 11.4989 35.8131C10.1823 33.7674 9.92462 30.4092 11.9746 28.7877Z" fill="#E56E0C"/>
</g>
</svg>
