<svg width="240" height="139" viewBox="0 0 240 139" fill="none" xmlns="http://www.w3.org/2000/svg">
<g id="Group 15">
<path id="Vector" d="M201.911 101.263C202.322 100.989 202.185 100.303 202.597 100.029C203.557 100.166 203.968 101.126 204.586 101.743C205.752 103.115 206.712 104.555 207.74 105.996C208.015 106.339 208.015 106.681 208.083 107.024C207.878 107.093 207.398 107.23 207.192 107.299C205.34 109.219 203.557 111.345 201.431 112.991C199.51 114.5 197.659 116.146 195.601 117.518C192.172 119.712 188.743 121.907 184.971 123.553C179.347 126.091 173.723 128.628 167.962 130.823C162.544 132.675 157.126 134.869 151.57 136.31C148.621 136.996 145.603 137.681 142.586 138.024C141.969 138.093 141.283 138.024 140.665 137.956C139.088 135.349 138.608 132.332 137.854 129.451C137.716 128.765 137.716 128.08 137.648 127.462C138.471 127.554 139.294 127.577 140.117 127.531C146.701 127.188 153.011 125.062 159.32 123.416C162.955 122.387 166.453 120.878 169.882 119.369C175.14 116.809 180.375 114.18 185.588 111.482C189.223 109.562 192.789 107.436 196.424 105.516C198.55 104.487 200.196 102.841 201.911 101.263Z" fill="#333F72"/>
<path id="Vector_2" d="M115.427 49.4139C120.296 47.0135 126.674 48.6595 129.966 52.9803C131.544 55.1064 131.887 58.0555 131.132 60.5931C130.309 63.8851 128.663 67.3143 125.44 68.8917C122.216 70.332 118.376 70.6063 115.084 69.2346C112.82 68.2745 111.243 66.1484 110.146 63.9537C109.185 62.1019 109.254 60.0444 109.391 58.0555C109.666 55.998 110.351 54.009 111.586 52.2944C112.615 51.0599 113.986 50.0998 115.427 49.4139Z" fill="#E56E0C"/>
<path id="Vector_3" d="M175.163 35.4913C179.758 33.571 185.039 34.4626 189.497 32.1993C191.555 31.1706 193.818 29.936 196.218 30.4847C198.687 30.8962 200.676 33.2967 200.608 35.8343C200.539 36.3829 200.745 37.4117 199.922 37.4803C199.236 37.0002 199.373 36.04 199.168 35.3542C198.687 33.9139 197.727 32.4737 196.15 32.0622C194.161 31.4449 192.172 32.5422 190.389 33.3652C185.999 35.6285 180.856 35.217 176.261 36.7944C174.066 37.6174 172.351 39.5378 171.528 41.7325C170.842 44.2701 171.048 47.4935 173.311 49.2081C173.723 49.6196 174.614 49.4139 174.614 50.0997C174.34 50.7855 173.449 50.6484 172.831 50.4426C171.117 49.6882 170.157 47.8364 169.814 46.0533C169.471 43.8586 169.608 41.4581 170.842 39.5378C171.871 37.8232 173.311 36.3143 175.163 35.4913Z" fill="#E56E0C"/>
<path id="Vector_4" d="M178.661 40.8409C179.552 40.0865 180.855 40.0179 181.953 40.0865C184.148 40.2922 186.342 39.9493 188.331 39.1263C189.428 38.7148 190.526 38.0975 191.76 38.0975C192.995 38.1661 193.955 39.1949 194.572 40.2236C194.778 40.6351 194.709 41.2524 194.229 41.321C193.338 40.9095 192.721 39.9493 191.692 39.8121C190.732 39.9493 189.977 40.4294 189.086 40.7037C186.891 41.7325 184.353 42.0754 181.884 41.8011C181.198 41.8011 180.444 41.6639 179.827 42.0754C179.141 42.7612 179.141 43.8586 179.415 44.7502C179.758 45.436 180.513 45.7103 180.993 46.3276C181.198 46.7391 180.924 47.2878 180.444 47.2878C179.347 47.1506 178.318 46.5333 177.769 45.5732C177.083 43.9957 177.358 42.0068 178.661 40.8409Z" fill="#E56E0C"/>
<path id="Vector_5" fill-rule="evenodd" clip-rule="evenodd" d="M15.4999 10.4583C15.7743 10.3211 16.0486 10.2068 16.3229 10.1154C16.5287 10.5269 16.8716 10.664 17.2145 10.8698C16.6658 12.4472 15.0198 13.4074 13.511 13.9561C18.3804 16.768 23.1127 19.7857 27.9136 22.6662C44.4423 32.6109 60.9024 42.7613 77.3625 52.8431C78.8028 53.9404 80.5174 54.6263 81.8205 55.7922C81.0661 56.1351 80.3802 55.3121 79.6944 55.0378C77.5683 53.8718 75.648 52.5002 73.5218 51.3342C55.21 40.2237 36.8981 29.0445 18.6548 17.7967C16.803 16.6994 14.9512 15.5335 13.0995 14.3676C12.7566 13.7503 13.0995 12.9959 13.511 12.5158C14.0597 11.6928 14.8141 11.0755 15.4999 10.4583ZM15.2256 11.4185C14.6769 11.9671 14.0597 12.5158 13.7167 13.2702C14.6769 12.8587 15.4999 12.1043 16.3229 11.487C15.9571 11.4413 15.5914 11.4185 15.2256 11.4185Z" fill="black"/>
<path id="Vector_6" d="M17.146 10.1154C18.5862 10.5269 19.7522 11.5556 20.9867 12.31C40.8074 25.4096 60.6281 38.5777 80.3117 51.8829C81.6834 52.8431 83.1922 53.5975 84.3581 54.7634C84.0838 55.4493 83.6037 54.832 83.1922 54.6263C61.5883 40.3608 40.053 26.0268 18.5862 11.487C18.0376 11.1441 17.4203 10.7326 17.146 10.1154Z" fill="black"/>
<path id="Vector_7" fill-rule="evenodd" clip-rule="evenodd" d="M0 31.7879C0.0685839 30.0733 0.617259 28.1529 2.1261 27.1927C2.26327 27.3299 2.46901 27.6042 2.60618 27.7414C28.5309 38.2347 54.387 49.0024 80.2431 59.7015C80.3117 59.8386 80.4489 60.113 80.5175 60.1816C80.3117 60.1816 79.9002 60.1816 79.6944 60.1816C53.9755 49.6197 28.2565 39.0577 2.60618 28.2901C2.33184 29.456 1.92035 30.5533 1.37168 31.5821C18.5176 38.3719 35.7322 45.0931 52.9467 51.9515C59.8051 54.6949 66.6635 57.4382 73.5219 60.1816C74.5506 60.5931 75.5794 60.936 76.6082 61.4161C76.3796 61.7361 76.1281 61.8276 75.8537 61.6904C62.9142 56.6152 49.9976 51.54 37.1039 46.4648C25.0331 41.6639 12.9623 36.8631 0.891582 32.1308C0.571524 31.9936 0.274335 31.8793 0 31.7879ZM0.685838 31.3078C1.30309 30.3476 1.71459 29.2503 1.92034 28.1529C1.2345 29.0445 0.617255 30.1419 0.685838 31.3078Z" fill="black"/>
<path id="Vector_8" d="M152.05 14.0931C154.451 13.2015 156.988 12.6528 159.389 11.6927C164.533 10.1152 169.745 8.60638 174.957 7.09754C177.906 6.4117 180.787 5.38294 183.736 4.83427C186.617 4.2856 189.36 3.11967 192.24 2.70816C197.384 1.54224 202.665 0.719235 207.946 0.170564C208.769 0.10198 209.592 -0.103773 210.278 0.30773C208.358 0.856401 206.369 0.856403 204.448 1.19932C199.442 1.88516 194.366 2.77675 189.497 4.07984C185.588 4.83426 181.884 6.20594 178.044 7.02895C175.506 7.50904 173.106 8.33205 170.636 9.01789C168.442 9.70372 166.179 10.1838 164.052 11.0068C161.378 11.967 158.634 12.5842 155.96 13.5444C153.902 14.436 151.707 14.7789 149.718 15.7391C148.415 16.2192 147.044 16.4935 145.741 17.1108C135.91 20.6314 126.171 24.4493 116.524 28.5643C109.94 31.3076 103.424 34.051 96.9775 37.1373C90.2562 40.3607 83.6722 43.8585 77.0881 47.3563C77.0196 47.2877 76.8138 47.0819 76.7452 47.0133C79.5572 45.1616 82.5748 43.7899 85.524 42.2125C93.1368 38.166 100.887 34.3939 108.842 31.0333C120.159 26.1638 131.475 21.5001 143.066 17.3165C144.232 16.6307 145.672 16.4935 146.906 15.9448C148.553 15.1218 150.404 14.8475 152.05 14.0931Z" fill="black"/>
<path id="Vector_9" d="M160.692 15.3277C163.092 14.4361 165.424 13.4073 167.962 12.9272C168.305 12.9958 168.853 12.9272 168.716 13.4073C167.345 13.6131 165.973 13.956 164.738 14.5733C161.927 15.4648 159.252 16.6994 156.577 17.8653C148.758 21.2945 140.94 24.5865 132.984 27.6042C131.955 28.0843 130.927 28.3586 129.829 28.5644C130.447 27.6042 131.75 27.6042 132.641 27.0555C142.037 23.352 151.365 19.3055 160.692 15.3277Z" fill="black"/>
<path id="Vector_10" d="M212.61 0.102097C214.873 -0.172239 217.136 0.170676 219.4 0.376428C220.497 0.445012 221.594 0.650763 222.692 0.719347C225.984 1.26802 229.55 1.88527 232.156 4.14854C233.459 5.10871 234.214 6.61756 234.9 8.05782C235.083 8.4236 235.014 8.7208 234.694 8.94941C234.214 7.78348 233.597 6.68614 232.842 5.65738C231.333 4.01137 229.276 2.91403 227.15 2.36536C226.418 2.18247 225.687 1.99958 224.955 1.81669C224.361 1.72525 223.766 1.61094 223.172 1.47377C222.486 1.38233 221.8 1.29088 221.114 1.19943C218.302 0.925097 215.559 0.445014 212.747 0.582182C212.747 0.445014 212.678 0.170681 212.61 0.102097Z" fill="black"/>
<path id="Vector_11" d="M173.86 12.996C175.095 12.5159 176.329 11.8986 177.632 11.5557C181.427 10.4584 185.199 9.38389 188.949 8.33228C191.692 7.44069 194.504 7.09776 197.247 6.20617C198.825 6.069 200.333 5.58892 201.911 5.31458C206.78 4.42299 211.718 4.01149 216.656 4.14866C220.771 4.21724 225.024 5.17742 228.59 7.44068C229.07 7.85219 229.893 8.12652 229.893 8.81236C229.207 9.36103 228.933 8.33227 228.453 8.05793C224.544 5.6575 219.948 4.76591 215.422 4.8345C208.838 4.90308 202.254 5.79467 195.875 7.44068C193.132 7.7836 190.526 8.81236 187.851 9.42961C184.559 10.184 181.267 10.9385 178.112 12.173C176.878 12.5159 175.575 13.0646 174.272 13.1331C174.203 13.1331 173.997 12.996 173.86 12.996Z" fill="black"/>
<path id="Vector_12" d="M170.294 19.5114C172.831 18.414 175.3 16.6994 178.249 16.8366C178.318 16.9738 178.592 17.1795 178.729 17.2481C175.575 17.2481 172.9 19.0313 170.157 20.1972C169.334 20.2658 168.236 20.8145 167.55 20.1286C168.442 19.7857 169.471 19.9915 170.294 19.5114Z" fill="black"/>
<path id="Vector_13" d="M180.376 17.7281C182.296 16.6308 184.491 15.7392 186.822 15.8078C187.371 15.8764 188.263 15.7392 188.537 16.425C186.342 16.1507 184.079 16.3565 182.159 17.4538C179.758 18.6883 177.358 19.8542 174.889 20.883C172.831 21.5002 170.911 22.5976 168.716 22.8033C168.099 22.8033 167.413 23.1463 167.002 22.5976C167.756 22.2547 168.648 22.3232 169.471 22.1175C171.117 21.8432 172.557 20.883 174.203 20.5401C176.306 19.7171 178.364 18.7798 180.376 17.7281Z" fill="black"/>
<path id="Vector_14" d="M192.309 14.3676C192.24 13.476 193.338 14.0933 193.886 13.9561C194.572 13.9561 195.235 13.9561 195.875 13.9561C199.442 13.8875 203.008 14.5734 206.575 14.2305C208.632 14.1619 210.69 13.6818 212.747 13.9561C214.736 14.299 216.519 15.465 218.234 16.4937C219.194 17.111 220.154 17.8654 220.84 18.8256C220.771 18.8942 220.566 19.0313 220.497 19.0999C219.263 17.6597 217.685 16.7681 216.108 15.8079C214.942 15.1906 213.776 14.642 212.404 14.5048C210.484 14.2305 208.495 14.7105 206.506 14.7791C203.488 15.1221 200.471 14.642 197.453 14.5048C195.738 14.4362 194.024 14.5048 192.309 14.3676Z" fill="black"/>
<path id="Vector_15" d="M155.891 26.3696C157.811 25.7524 159.732 25.1351 161.721 24.7236C161.446 24.998 161.172 25.3409 160.76 25.4095C159.252 26.0267 157.537 26.2325 156.097 27.0555C152.393 28.4272 148.69 29.7988 144.986 31.1705C142.654 31.7192 140.46 32.8165 138.128 33.4338C135.727 34.4625 133.19 35.0112 130.721 35.8342C129.143 36.52 127.566 37.0001 125.92 37.4116C125.783 37.3431 125.577 37.1373 125.44 37.0687C127.154 36.04 129.075 35.697 130.858 34.9426C135.796 33.5709 140.528 31.582 145.466 30.0732C146.975 29.3873 148.621 29.0444 150.199 28.4272C151.982 27.5356 154.108 27.3298 155.891 26.3696Z" fill="black"/>
<path id="Vector_16" d="M162.681 24.3121C162.818 24.3807 163.161 24.5179 163.298 24.5865C163.915 25.7524 164.533 26.9869 165.013 28.2214C164.464 29.2502 163.298 29.2502 162.407 29.7303C160.829 30.4847 158.977 30.759 157.331 31.5134C156.097 32.0621 154.725 32.2679 153.491 32.8851C152.188 33.5024 150.747 33.7081 149.444 34.2568C147.318 35.217 144.918 35.5599 142.792 36.5201C141.488 37.0687 140.048 37.3431 138.677 37.8917C140.597 37.686 142.38 36.9316 144.232 36.4515C147.387 35.217 150.816 34.9426 153.902 33.5709C155.068 33.0223 156.44 32.8851 157.537 32.1993C158.292 31.9249 159.252 31.3077 159.938 31.9935C158.223 32.3364 156.783 33.2966 155.137 33.7081C154.039 33.9825 153.079 34.5997 151.982 34.874C146.564 36.3829 141.077 37.9603 135.659 39.5378C134.561 39.8121 133.396 39.8807 132.298 40.155C132.298 40.0178 132.23 39.7435 132.23 39.6749C134.561 39.1262 136.756 38.0975 138.951 37.1373C139.774 36.9316 140.528 36.7258 141.283 36.3143C142.929 35.5599 144.712 35.3541 146.358 34.5997C147.73 33.9139 149.307 33.7767 150.747 33.0909C151.776 32.5422 152.942 32.3364 154.039 31.9249C155.822 30.9648 157.88 30.759 159.732 29.936C161.241 29.1816 163.024 29.113 164.395 28.0842C163.71 26.9183 163.23 25.5466 162.681 24.3121Z" fill="black"/>
<path id="Vector_17" d="M179.072 20.1971C180.375 19.3055 181.953 18.551 183.599 18.8254C183.599 18.7568 183.668 18.4825 183.668 18.4139C184.628 18.2767 185.588 18.2081 186.548 18.2081C188.606 18.2081 189.977 20.0599 191.898 20.54C192.446 20.7457 193.132 20.8143 193.475 21.363C192.446 21.4316 191.486 21.0887 190.526 20.6772C189.36 20.1971 188.537 19.0997 187.302 18.8254C186.205 18.6882 185.108 18.7568 184.01 18.894C184.902 19.1683 185.794 19.3055 186.617 19.7856C187.371 20.3342 188.057 20.9515 188.743 21.6373C189.634 22.7347 190.937 23.832 192.515 23.6262C193.887 23.7634 194.847 22.5289 196.013 21.9117C196.973 21.363 198.07 21.0887 199.167 20.8143C199.51 20.6771 199.853 20.9515 200.196 21.0886C198.344 21.5687 196.356 22.0488 194.847 23.4205C193.818 24.1749 192.583 24.2435 191.349 24.1749C189.429 23.6948 188.4 21.9117 186.96 20.7457C185.794 19.717 184.216 19.3741 182.707 19.3055C181.199 19.4426 179.964 20.2656 178.798 21.0886C177.975 21.7059 177.221 22.3917 176.809 23.2833C176.398 24.5178 176.809 25.8209 176.809 27.0554C176.741 27.1926 176.535 27.3984 176.466 27.4669C176.192 26.301 176.055 25.0665 176.055 23.832C176.398 22.186 177.769 21.0201 179.072 20.1971Z" fill="black"/>
<path id="Vector_18" d="M192.515 16.082C194.504 16.082 196.424 16.7679 198.413 16.9736C200.951 17.248 203.488 17.3165 205.957 16.8365C207.878 16.3564 209.798 16.425 211.718 16.5621C212.678 16.6993 213.616 16.8593 214.53 17.0422C215.765 17.4537 216.999 18.0024 217.822 19.0311C218.851 20.2656 219.743 21.5687 220.223 23.0776C220.177 23.3062 220.131 23.5577 220.086 23.832C219.743 23.1462 219.331 22.3918 219.057 21.7059C218.577 20.9515 218.097 20.3342 217.616 19.6484C217.479 19.5798 217.274 19.3055 217.205 19.1683C216.451 18.4139 215.422 17.9338 214.393 17.6595C211.307 16.905 208.083 16.905 205.066 17.6595C201.088 18.2767 197.11 17.4537 193.201 16.5621C192.926 16.5164 192.698 16.3564 192.515 16.082Z" fill="black"/>
<path id="Vector_19" d="M67.8979 53.186C69.0639 52.5688 70.024 51.6086 71.19 51.1285C71.67 51.6772 70.6413 52.0201 70.3669 52.363C69.4753 52.9117 68.7209 53.5975 67.6922 53.8033C67.7608 53.6661 67.8294 53.3232 67.8979 53.186Z" fill="black"/>
<path id="Vector_20" d="M95.1258 46.4646C98.3492 44.8186 101.573 42.8297 105.208 41.9381C107.334 41.3894 109.391 40.5664 111.586 40.2921C112.958 40.0863 114.261 39.5376 115.632 39.6748C115.015 40.635 113.575 40.3607 112.546 40.7036C109.803 41.5266 106.991 42.0067 104.385 42.9668C101.093 43.8584 98.212 45.7788 95.2629 47.219C93.1368 48.2478 91.3536 49.7566 89.5019 51.1969C87.993 52.4314 86.4156 53.6659 85.1811 55.2433C84.0152 56.7522 82.5749 58.0553 81.9576 59.907C81.4776 61.2787 80.9289 62.719 80.9975 64.2278C81.5461 66.2853 82.0948 68.5486 83.7408 70.0575C85.8669 72.6636 89.0218 73.8981 91.9709 75.2698C93.274 75.8871 94.7828 75.8185 96.0173 76.5043C95.8116 76.5729 95.4687 76.6415 95.2629 76.6415C93.2054 76.7787 91.2851 75.9557 89.4333 75.0641C87.5815 74.1039 85.5926 73.2123 84.2209 71.6349C83.1236 70.4004 81.6833 69.2344 81.3404 67.5884C81.066 66.3539 80.243 65.3252 80.243 64.0907C80.1059 62.4446 80.7917 60.7986 81.3404 59.2898C81.889 57.5752 83.2608 56.3407 84.2895 54.969C86.0727 52.7057 88.4045 51.0597 90.5992 49.3451C92.0395 48.2478 93.4797 47.219 95.1258 46.4646Z" fill="black"/>
<path id="Vector_21" d="M169.608 24.7236C171.665 24.0378 173.517 22.8032 175.643 22.4603C175.78 22.5289 175.986 22.6661 176.123 22.8032C173.517 23.3519 171.254 24.9293 168.648 25.478C168.922 25.2037 169.196 24.7922 169.608 24.7236Z" fill="black"/>
<path id="Vector_22" d="M118.238 39.5379C121.736 38.3034 125.577 39.1264 129.006 40.2237C132.435 41.3897 135.933 42.8299 138.608 45.3675C140.391 46.8764 141.9 48.7281 142.723 50.9228C144.163 53.9405 144.575 57.5754 143.477 60.7303C142.997 61.6905 142.723 62.7878 141.763 63.3365C141.694 62.5821 142.243 61.9648 142.517 61.279C143.477 59.0157 143.34 56.4095 142.929 54.0091C142.586 52.9803 142.037 51.9516 141.694 50.9228C140.322 47.768 137.579 45.3675 134.699 43.6529C130.378 41.4582 125.714 39.5379 120.845 39.6751C119.953 39.6065 119.13 40.018 118.307 39.8122L118.238 39.5379Z" fill="black"/>
<path id="Vector_23" d="M192.103 18.4825C192.172 18.4139 192.378 18.2767 192.515 18.2081C193.475 18.3453 194.504 18.5511 195.464 18.6196C195.967 18.7111 196.47 18.7797 196.973 18.8254C197.43 18.8254 197.91 18.8482 198.413 18.894C198.345 19.0311 198.276 19.2369 198.276 19.3741C197.384 19.3741 196.493 19.2369 195.67 19.1683C195.075 19.1226 194.481 19.054 193.887 18.9626C193.292 18.8711 192.698 18.7111 192.103 18.4825Z" fill="black"/>
<path id="Vector_24" d="M61.5883 57.8497C61.8169 57.6668 62.0226 57.4839 62.2055 57.301C62.6856 57.6439 62.2741 57.9183 62.0684 58.2612C61.8626 58.3298 61.5197 58.3984 61.3139 58.4669C61.3825 58.3298 61.5197 58.0554 61.5883 57.8497Z" fill="black"/>
<path id="Vector_25" d="M167.413 28.4272C169.471 26.987 172.008 26.6441 174.409 25.8896C174.34 26.0268 174.34 26.3012 174.34 26.4383C172.694 26.987 171.048 27.3299 169.402 27.8786C168.785 28.0843 168.168 28.7016 167.413 28.4272Z" fill="black"/>
<path id="Vector_26" d="M58.8449 59.9757C59.1878 59.6328 59.5993 59.4957 60.0794 59.2899C59.9422 59.77 59.6679 60.1129 59.325 60.3873C57.2675 62.1019 55.2785 63.9536 53.3582 65.8054C50.4777 68.6173 47.5971 71.4978 45.3339 74.8584C44.3051 76.3673 43.4135 78.0819 43.6193 79.9337C43.6193 80.6881 44.1679 81.1682 44.5795 81.7168C44.5109 81.854 44.3737 82.0597 44.3051 82.1969C43.8936 81.7854 43.2764 81.4425 43.1392 80.7567C42.5219 78.9735 43.2078 77.0531 44.0994 75.4757C46.5684 71.3607 50.0662 67.9315 53.5639 64.5709C53.9297 64.2508 54.2955 63.9079 54.6613 63.5421C55.9872 62.3076 57.3818 61.1188 58.8449 59.9757Z" fill="black"/>
<path id="Vector_27" d="M204.723 18.4826C206.026 18.2769 207.329 18.3455 208.632 18.4826C209.181 18.5512 209.798 18.6198 210.347 18.6884C212.953 18.8941 215.628 19.8543 217.479 21.7747C218.028 22.4605 218.44 23.2378 218.714 24.1065C218.988 24.4494 218.782 24.8609 218.508 25.1353C218.371 23.8322 217.548 22.6663 216.656 21.7061C215.01 20.3344 212.953 19.4428 210.827 19.2371C210.141 19.1913 209.455 19.1228 208.769 19.0313C208.358 18.9856 207.969 18.9399 207.603 18.8941C206.643 18.8256 205.752 18.8256 204.86 18.8256L204.723 18.4826Z" fill="black"/>
<path id="Vector_28" d="M170.499 29.8675C171.117 28.9073 172.283 28.5644 173.106 27.8785C173.174 28.0157 173.243 28.29 173.311 28.4272C172.42 28.9759 171.597 29.6617 170.499 29.8675Z" fill="black"/>
<path id="Vector_29" d="M160.349 31.7878C161.721 31.8564 161.035 33.4338 161.515 34.2568C160.555 35.5599 158.977 36.2458 157.468 36.7945C155.822 37.6175 153.971 37.8918 152.256 38.6462C151.09 39.1949 149.787 39.4006 148.621 39.9493C146.426 40.9781 144.026 41.1838 141.763 42.0068C140.185 42.5555 138.471 42.8984 136.893 43.5157C136.665 43.3785 136.459 43.2642 136.276 43.1727C137.853 42.6241 139.362 41.8011 141.008 41.3896C143.683 40.6352 146.358 39.9493 148.964 39.1263C151.296 37.9604 153.902 37.686 156.234 36.5201C157.949 36.1086 159.526 35.2856 160.898 34.1883C160.692 33.3653 160.898 32.4737 160.349 31.7878Z" fill="black"/>
<path id="Vector_30" d="M168.442 30.1418C168.442 30.0046 168.442 29.7988 168.442 29.6617C169.128 29.4559 169.745 29.2502 170.431 29.0444C170.568 30.0046 169.128 29.7988 168.511 30.1418C169.951 30.4161 171.597 30.9648 172.9 30.0732C173.037 30.1418 173.243 30.2789 173.311 30.3475C171.94 31.5134 170.019 31.1019 168.442 30.759C166.865 30.5533 165.424 31.3077 164.258 32.2679C162.955 33.5024 162.407 35.2856 162.407 37.0002C162.338 37.8232 163.024 38.3718 163.435 38.9891C163.778 39.6749 163.71 40.4293 163.778 41.1838C163.641 41.4581 163.413 41.6639 163.092 41.801C163.092 40.8408 163.435 39.6749 162.681 38.9205C162.064 38.2347 161.652 37.2745 161.789 36.3143C161.927 34.6683 162.612 33.0223 163.847 31.7878C165.081 30.759 166.727 30.0046 168.442 30.1418Z" fill="black"/>
<path id="Vector_31" d="M233.871 12.1041C234.214 11.5555 234.42 10.801 235.037 10.4581C234.831 12.1727 233.734 13.5444 232.636 14.7789C231.196 16.2878 229.756 17.7966 228.247 19.3055C227.287 20.2199 226.304 21.1115 225.298 21.9802C224.749 22.4374 224.201 22.8947 223.652 23.3519C220.154 25.9581 216.382 28.2213 212.679 30.6218C202.665 36.8629 192.515 43.0355 181.884 48.2478C174.889 51.7456 167.756 54.969 160.829 58.5354C158.84 59.4956 156.851 60.7301 154.657 61.2102C154.657 61.073 154.588 60.7987 154.519 60.7301C156.097 60.3186 157.469 59.5642 158.84 58.8783C168.03 54.0089 177.564 49.8938 186.822 45.093C194.024 41.2523 201.019 37.0687 208.015 32.8165C207.74 32.405 207.398 32.062 207.398 31.6505C207.603 29.7988 207.946 27.947 207.192 26.1638C206.849 25.6152 206.437 24.9979 205.957 24.5178C205.134 23.9006 204.106 23.6262 203.283 22.9404C204.86 22.8718 206.3 23.9006 207.192 25.1351C208.289 26.4382 208.221 28.2213 208.221 29.7988C208.083 30.6904 207.672 31.7877 208.495 32.4735C213.707 29.2501 218.988 26.0267 223.995 22.3917C225.824 20.8829 227.561 19.2826 229.207 17.5909C229.619 17.1336 230.053 16.6764 230.51 16.2192C231.745 14.9161 233.048 13.7502 233.871 12.1041Z" fill="black"/>
<path id="Vector_32" d="M238.055 9.84105C238.123 9.70388 238.329 9.49813 238.397 9.36096C239.701 14.9163 240.112 20.6773 239.975 26.4383C239.838 31.7879 238.946 37.0688 237.849 42.3498C236.203 50.1683 233.665 57.7812 230.236 64.9825C226.944 72.2523 222.486 78.9736 217.617 85.2833C215.079 88.5753 212.541 91.8673 209.387 94.6107C209.318 94.5421 209.249 94.4049 209.181 94.3363C210.21 92.8961 211.513 91.6616 212.679 90.3585C217.822 84.1859 222.555 77.6705 226.532 70.7435C231.676 61.3475 235.517 51.1285 237.506 40.5666C238.603 35.0799 239.358 29.456 239.289 23.8321C239.358 19.0999 238.672 14.4362 238.055 9.84105Z" fill="black"/>
<path id="Vector_33" d="M174.203 29.2502C174.386 28.8387 174.592 28.4044 174.82 27.9471C174.889 28.1529 175.026 28.4958 175.095 28.7016C174.912 28.9759 174.752 29.2502 174.614 29.5246C174.477 29.456 174.272 29.3188 174.203 29.2502Z" fill="black"/>
<path id="Vector_34" d="M201.088 20.4716C201.774 20.4716 202.528 20.5401 203.214 20.6087C205.614 21.226 208.22 21.9118 209.935 23.9007C210.004 23.9693 210.209 24.2437 210.347 24.3122C211.444 25.9583 212.61 27.4671 213.639 29.1131C213.273 28.9759 212.93 28.7931 212.61 28.5645C211.307 26.8499 210.415 24.8609 208.769 23.4892C207.809 22.6662 206.574 22.2547 205.409 21.8432C204.105 21.3631 202.665 20.8831 201.156 21.0202C201.156 20.8831 201.088 20.6087 201.088 20.4716Z" fill="black"/>
<path id="Vector_35" d="M125.028 43.4472C125.783 43.4472 126.469 43.3786 127.223 43.4472C127.68 43.5387 128.16 43.6301 128.663 43.7216C129.829 44.1331 131.475 44.2702 132.024 45.5047C129.829 44.5446 127.497 43.8587 125.097 43.8587C125.097 43.7901 125.028 43.5158 125.028 43.4472Z" fill="black"/>
<path id="Vector_36" d="M100.475 51.0599C100.955 50.7169 101.23 51.5399 100.818 51.7457C100.338 52.0886 99.9953 51.2656 100.475 51.0599Z" fill="black"/>
<path id="Vector_37" d="M236.134 12.9274C236.271 12.8588 236.477 12.6531 236.546 12.5845C236.546 13.1331 236.409 13.6818 236.066 14.0247C234.351 16.0137 232.636 18.0026 230.716 19.7172C230.305 20.083 229.916 20.4488 229.55 20.8145C229.139 21.1346 228.75 21.4775 228.384 21.8433C227.47 22.6206 226.555 23.3979 225.641 24.1751C222.898 26.3012 220.154 28.3588 217.205 30.1419C217.136 30.0733 216.999 29.9362 216.931 29.799C219.674 27.8787 222.417 26.0269 225.024 23.9008C225.709 23.3521 226.395 22.8035 227.081 22.1862C228.864 20.6774 230.648 19.0999 232.294 17.4539C233.597 15.9451 235.105 14.642 236.134 12.9274Z" fill="black"/>
<path id="Vector_38" d="M112.203 50.9913C113.438 49.894 114.947 48.9338 116.661 48.8652C119.336 48.3851 122.216 48.2479 124.685 49.551C126.606 50.6484 128.389 52.2258 129.006 54.4205C128.938 54.3519 128.663 54.3519 128.526 54.2833C127.36 52.2258 125.44 50.4426 123.108 49.6882C121.256 49.0024 119.267 49.2081 117.347 49.3453C115.838 49.6882 114.329 50.0311 113.232 51.0599C110.9 53.0488 109.185 55.7922 108.774 58.8099C108.843 60.6616 108.568 62.7191 109.528 64.3652C109.871 65.5997 111.38 65.874 111.929 66.9713C110.9 66.6284 109.803 66.0798 109.185 65.1882C107.882 63.1992 107.882 60.7302 107.951 58.3984C108.5 55.5178 110.146 52.9802 112.203 50.9913Z" fill="black"/>
<path id="Vector_39" d="M210.69 22.8721C211.581 22.7349 212.267 23.4208 213.09 23.6265C214.324 24.2438 215.833 24.5181 216.862 25.4783C216.108 25.8212 215.49 25.1354 214.805 24.9982C213.433 24.3124 211.787 23.9695 210.69 22.8721Z" fill="black"/>
<path id="Vector_40" d="M140.048 44.2013C140.117 44.0641 140.117 43.7212 140.185 43.584C142.792 43.104 145.261 44.6128 147.592 45.573C149.581 46.396 151.639 47.4933 153.833 47.6991C154.862 47.7677 155.891 47.6305 156.988 47.4933C156.783 47.9048 156.577 48.2477 156.097 48.2477C152.873 48.865 149.787 47.2876 146.907 46.0531C145.192 45.2986 143.546 44.4756 141.694 44.1327C141.145 44.0641 140.597 44.0641 140.048 44.2013Z" fill="black"/>
<path id="Vector_41" d="M155.137 39.8808C156.097 39.4007 157.126 39.2635 158.154 39.1263C158.383 39.2178 158.634 39.3321 158.909 39.4693C157.057 39.9493 155.205 40.2923 153.559 41.2524C151.159 42.5555 148.553 44.133 145.741 43.7215C145.261 43.5843 144.369 43.4471 144.78 42.8299C145.398 42.967 145.946 43.2414 146.632 43.2414C147.524 43.0356 148.415 42.7613 149.307 42.4869C151.433 41.9383 153.148 40.5666 155.137 39.8808Z" fill="black"/>
<path id="Vector_42" d="M171.803 36.6572C172.763 35.8342 173.791 34.9426 174.957 34.3254C176.192 33.9139 177.426 33.5024 178.729 33.2966C180.856 33.1594 182.982 33.1594 185.039 32.5422C187.44 31.8563 189.771 31.1019 192.24 30.759C193.818 30.2103 195.464 30.0732 197.11 30.2789C197.316 30.3475 197.59 30.4161 197.727 30.4161C199.03 30.6218 199.99 31.7878 200.333 33.0223C200.745 34.1882 200.676 35.4227 201.019 36.5886C200.951 36.7258 200.745 36.9316 200.676 37.0687C199.853 35.4227 200.402 33.3652 199.167 31.9249C198.756 31.2391 198.07 30.9648 197.316 30.8276C197.179 30.759 196.836 30.759 196.698 30.6904C194.847 30.4847 193.132 31.1019 191.28 31.3763C188.88 31.9249 186.548 32.7479 184.148 33.3652C181.747 34.051 179.072 33.4338 176.672 34.3254C174.683 34.7369 173.174 36.1771 171.734 37.5488C169.539 39.9492 168.853 43.3098 169.334 46.4647C169.745 48.1107 171.391 49.0709 172.008 50.6483C170.774 50.3054 170.088 49.2081 169.402 48.2479C168.236 46.4647 168.442 44.2014 168.716 42.1439C169.196 40.0864 170.225 38.1661 171.803 36.6572Z" fill="black"/>
<path id="Vector_43" d="M174.683 35.8342C175.575 35.2169 176.603 34.874 177.632 34.7369C179.827 34.6683 182.022 34.4625 184.285 34.3939C185.794 34.3254 187.234 33.6395 188.674 33.228C190.252 32.8165 191.692 31.8563 193.338 31.7192C194.71 31.582 196.218 31.4448 197.453 32.1993C198.825 32.8851 199.305 34.3939 199.922 35.697C200.196 36.3143 200.128 36.9315 200.059 37.5488C199.648 37.2059 199.579 36.6572 199.442 36.1771C199.03 35.2855 198.688 34.3254 198.139 33.5024C196.699 31.8563 194.367 32.1307 192.446 32.4736C191.486 32.7479 190.595 33.2966 189.634 33.5024C187.988 33.8453 186.548 34.874 184.834 34.874C182.433 35.0798 180.033 35.1484 177.564 35.2855C176.878 35.4227 176.123 35.5599 175.506 35.9714C173.997 37.1373 172.626 38.5776 171.597 40.155C171.254 40.978 171.117 41.801 170.842 42.624C170.362 43.9271 170.911 45.2988 171.391 46.5333C172.077 47.8364 173.517 48.3165 174.477 49.3452C174.157 49.3909 173.86 49.3452 173.586 49.2081C172.488 48.5908 171.391 47.7678 170.842 46.6019C170.522 45.8246 170.294 45.0244 170.157 44.2014C170.019 43.3098 170.362 42.4868 170.568 41.6638C170.98 39.1948 173.037 37.4802 174.683 35.8342Z" fill="black"/>
<path id="Vector_44" d="M141.077 45.916C141.214 45.916 141.488 45.916 141.626 45.916C144.369 47.0819 147.318 47.9049 150.199 49.0023C151.982 49.6195 153.833 50.374 155.754 50.5111C156.234 50.5797 156.92 50.1682 157.194 50.7169C156.645 50.9226 156.028 51.197 155.411 51.0598C153.148 50.7855 151.022 49.9625 148.964 49.208C146.564 48.3164 144.026 47.6992 141.763 46.5333C141.488 46.3504 141.26 46.1446 141.077 45.916Z" fill="black"/>
<path id="Vector_45" d="M69.3383 68.2059C71.9445 66.9028 74.6879 65.8054 77.3626 64.5709C77.4998 64.6395 77.7741 64.7081 77.8427 64.7767C77.2255 65.2567 76.5396 65.5311 75.7852 65.874C73.3162 66.9713 70.8472 68.1373 68.4467 69.4404C64.949 71.2921 61.4512 73.2811 58.5021 75.9558C57.6105 76.8474 56.6503 77.8076 56.376 79.1107C56.5132 79.7965 57.2676 80.1394 57.8848 80.2766C59.668 80.5509 61.4512 80.4824 63.2344 80.5509C65.2919 80.6195 67.3494 80.8253 69.3383 80.208C71.6702 79.8651 73.9334 79.1107 76.1967 78.4248C78.117 77.6018 80.0374 77.0532 82.0263 76.5731C80.929 77.8762 79.0772 77.739 77.7055 78.4934C74.3449 79.6594 70.9843 80.6881 67.5551 81.1682C65.1547 81.3739 62.6857 81.0996 60.2853 81.0996C58.9822 81.031 57.6105 81.0996 56.5131 80.2766C55.8959 79.8651 55.6901 79.0421 55.9645 78.3563C56.7189 76.5731 58.2277 75.3386 59.668 74.1041C62.6171 71.7722 66.0463 69.989 69.3383 68.2059Z" fill="black"/>
<path id="Vector_46" d="M150.473 44.27C152.874 42.624 155.685 41.8696 158.497 41.6638C159.115 41.6638 160.006 41.4581 160.212 42.2125C158.566 42.1439 156.989 42.4868 155.411 42.7612C153.628 43.1727 152.05 44.2014 150.267 44.8187C150.336 44.6815 150.405 44.4072 150.473 44.27Z" fill="black"/>
<path id="Vector_47" d="M79.1458 65.5997C78.9401 65.2568 79.2144 64.9138 79.3516 64.5709C79.8317 66.0798 80.5175 67.5886 81.0662 69.0974C81.9578 70.812 83.1237 72.5266 84.0838 74.2412C84.6325 75.27 85.4555 76.0244 86.2785 76.8474C86.8272 77.4647 87.4445 77.9448 87.7874 78.6992C86.6901 78.4934 86.1414 77.4647 85.387 76.8474C85.1583 76.6188 84.9526 76.3902 84.7697 76.1616C84.7011 76.093 84.4268 75.8187 84.3582 75.7501C83.0551 73.7611 81.8206 71.7722 80.6547 69.7833C80.1746 68.4116 79.4202 67.1085 79.1458 65.5997Z" fill="black"/>
<path id="Vector_48" d="M75.9223 67.4513C76.471 67.2456 77.0197 66.9712 77.5683 66.6969C77.6369 66.7655 77.8427 66.9712 77.9112 67.0398C77.294 67.4513 76.7454 67.7942 76.0595 68C73.179 69.1659 70.5042 70.7433 67.7608 72.2522C66.1606 73.1209 64.6289 74.1268 63.1657 75.2699C62.3427 76.0243 61.1768 76.7101 60.9025 77.8761C61.8626 78.4247 63.0286 78.219 64.1259 78.1504C67.075 77.8761 70.0241 77.6017 72.9732 77.1216C75.1679 76.5044 77.4312 75.9557 79.5573 75.2013C80.3803 74.7898 81.0661 74.2411 81.8205 73.761C81.9577 73.8296 82.0949 73.9668 82.2321 74.0354C81.2033 74.7898 80.1745 75.6814 78.94 76.0243C76.9282 76.6644 74.8936 77.2359 72.8361 77.7389C69.4983 78.2418 66.1377 78.5848 62.7542 78.7676C61.9312 78.7676 60.8339 78.8362 60.491 77.8761C60.2852 77.0531 61.1082 76.4358 61.5883 75.8871C63.9887 73.761 66.6635 72.1836 69.4069 70.6748C71.4644 69.4402 73.6591 68.3429 75.9223 67.4513Z" fill="black"/>
<path id="Vector_49" d="M158.291 45.6418C159.114 43.8586 161.103 43.3099 162.681 42.3497C162.749 42.4183 162.818 42.6926 162.887 42.8298C161.858 43.4471 160.76 43.9272 159.8 44.6816C159.046 45.2988 158.634 46.1904 158.429 47.1506C158.497 47.9736 158.429 48.9338 158.84 49.6882C160.28 51.4028 162.887 51.7457 164.053 53.7346C163.367 53.9404 162.887 53.2546 162.406 52.9116C161.103 51.8143 159.252 51.4028 158.291 49.8939C157.743 48.5909 157.537 46.9448 158.291 45.6418Z" fill="black"/>
<path id="Vector_50" d="M122.628 54.9691C122.948 54.7405 123.108 54.832 123.108 55.2435C122.788 55.4721 122.628 55.3806 122.628 54.9691Z" fill="black"/>
<path id="Vector_51" d="M117.621 56.958C117.759 56.4779 118.444 56.7523 118.239 57.2323C118.101 57.6438 117.416 57.3009 117.621 56.958Z" fill="black"/>
<path id="Vector_52" d="M74.7564 70.332C75.7852 70.0576 76.7453 69.6461 77.7055 69.3032C77.9113 69.3718 78.1856 69.509 78.3914 69.5775C74.4135 71.0864 70.4356 72.7324 66.8693 75.0643C66.4578 75.4072 65.6348 75.8187 65.9091 76.4359C66.252 76.6417 66.595 76.7103 67.0065 76.7788C68.7211 76.7788 70.2985 76.093 72.0131 75.6815C74.6193 74.9957 77.2254 74.1041 79.9002 73.4868C79.6945 73.9669 79.2829 74.2413 78.7343 74.3098C75.5108 75.27 72.2188 76.2302 68.9268 77.1218C68.3781 77.1904 67.7609 77.1904 67.1436 77.3275C66.5949 77.2361 66.0463 77.0989 65.4976 76.916C65.4062 76.596 65.3147 76.2759 65.2233 75.9558C65.4976 75.6129 65.7719 75.2014 66.1834 74.9271C68.7896 73.0067 71.8073 71.7036 74.7564 70.332Z" fill="black"/>
<path id="Vector_53" d="M176.192 43.4472C176.466 42.0069 177.564 40.7038 179.004 40.2923C180.993 39.9494 183.05 40.841 185.039 40.5667C186.274 40.2923 187.097 39.195 188.263 38.7835C189.772 38.2348 191.555 37.549 193.201 38.372C193.818 38.5777 193.818 39.3322 193.955 39.8122C193.635 39.5379 193.338 39.2407 193.064 38.9207C192.309 38.7149 191.555 38.372 190.8 38.5777C189.703 38.8521 188.606 39.1264 187.714 39.7437C186.96 40.1552 186.342 40.841 185.519 41.0468C183.256 41.8012 180.856 40.2237 178.661 41.1153C176.809 41.9383 176.261 44.476 177.358 46.1905C177.769 46.8078 178.455 47.0136 179.072 47.3565C178.867 47.4251 178.524 47.5622 178.318 47.6308C177.724 47.3565 177.198 46.9907 176.741 46.5335C176.466 45.5047 175.986 44.4759 176.192 43.4472Z" fill="black"/>
<path id="Vector_54" d="M234.077 26.4381C234.145 25.8895 234.077 25.2036 234.557 24.8607C234.9 26.1638 234.557 27.5355 234.351 28.8386C232.773 36.3828 230.922 43.7899 228.247 50.9912C226.601 55.7234 224.749 60.4557 222.554 64.9137C218.92 72.7322 214.324 80.0707 208.701 86.5862C207.672 87.6835 206.643 88.8494 205.34 89.6725C205.409 89.5353 205.477 89.1924 205.477 89.0552C211.307 83.0198 216.039 76.0243 219.811 68.5486C223.103 62.2389 225.778 55.6549 228.11 48.9336C230.373 42.6925 231.95 36.1771 233.459 29.7302C233.665 28.6328 233.871 27.5355 234.077 26.4381Z" fill="black"/>
<path id="Vector_55" d="M122.011 57.5753C122.331 57.3467 122.491 57.4382 122.491 57.8497C122.171 58.0783 122.011 57.9868 122.011 57.5753Z" fill="black"/>
<path id="Vector_56" d="M144.575 51.8142C146.838 52.0885 149.101 52.1571 151.365 52.02C151.913 52.02 152.53 51.7456 152.805 52.2943C150.541 52.9801 148.141 52.7058 145.741 52.5686C145.398 52.3629 144.026 52.4315 144.575 51.8142Z" fill="black"/>
<path id="Vector_57" d="M72.2873 73.8298C73.9334 72.3209 76.1966 71.5665 78.3913 71.0178C78.4599 71.0864 78.7342 71.3607 78.8028 71.4293C76.951 71.9094 75.0992 72.5267 73.4532 73.624C75.3736 73.2125 77.1568 72.7324 79.0086 72.3209C78.8714 72.7324 78.5285 73.0067 78.117 73.0753C76.2652 73.5554 74.4134 74.1727 72.4931 74.3784C72.4245 74.2412 72.2873 73.9669 72.2873 73.8298Z" fill="black"/>
<path id="Vector_58" d="M212.13 32.8166C212.45 32.7251 212.77 32.6337 213.09 32.5422C213.021 32.6794 212.884 32.9537 212.816 33.1595C207.809 36.3143 202.734 39.5378 197.59 42.4869C196.356 43.1041 195.258 43.9957 193.955 44.3387C194.024 44.2015 194.23 43.9272 194.367 43.79C200.333 40.2236 206.437 36.7944 212.13 32.8166Z" fill="black"/>
<path id="Vector_59" d="M144.163 52.4315C144.3 52.5001 144.643 52.6373 144.78 52.7059C145.192 54.0089 145.878 55.1749 146.152 56.478C146.632 57.7125 146.632 59.0841 146.975 60.3187C146.907 60.5244 146.769 60.9359 146.701 61.1417C146.221 60.6616 146.289 59.9757 146.152 59.3585C145.535 57.0266 144.849 54.7634 144.163 52.4315Z" fill="black"/>
<path id="Vector_60" d="M179.141 42.83C180.101 41.8698 181.61 42.007 182.845 42.2813C183.873 42.5556 184.902 42.007 185.999 41.7326C187.645 41.3211 189.086 40.018 190.869 39.9494C191.829 39.8808 193.201 40.1552 193.269 41.3897C192.583 41.0468 191.898 40.3609 191.075 40.5667C189.634 40.5667 188.4 41.3211 187.165 41.9384C186.022 42.3499 184.856 42.6699 183.668 42.8985C182.502 42.8985 181.199 42.4185 180.033 42.8985C179.621 43.1729 179.141 43.4472 179.141 43.9959C178.798 44.9561 180.033 45.299 180.513 45.9162C179.621 46.1906 178.935 45.3676 178.524 44.6817C178.455 44.0645 178.592 43.2415 179.141 42.83Z" fill="black"/>
<path id="Vector_61" d="M129.555 57.0266C129.692 56.958 129.898 56.7523 129.966 56.6151C130.241 58.3297 130.584 60.0443 130.241 61.8275C129.966 64.2965 128.595 66.6284 126.469 68C123.451 70.0575 119.679 70.812 116.044 70.469C114.741 70.1947 113.506 69.7146 112.478 68.8916V68.4801C113.712 68.9602 114.878 69.646 116.181 69.8518C119.816 70.0575 123.657 69.0974 126.606 66.9027C128.663 65.3253 129.555 62.7191 129.761 60.1815C129.898 59.1527 129.692 58.0554 129.555 57.0266Z" fill="black"/>
<path id="Vector_62" d="M121.325 60.25C121.691 60.0214 121.851 60.1357 121.805 60.593C121.393 60.8216 121.233 60.7073 121.325 60.25Z" fill="black"/>
<path id="Vector_63" d="M45.7454 82.2655C46.4312 82.0597 47.117 82.3341 47.8029 82.5398C48.9917 82.7684 50.2033 82.997 51.4378 83.2256C56.7873 83.7057 62.2055 83.5686 67.555 83.0199C76.3337 82.4026 84.9753 80.9624 93.5483 79.042C94.4628 78.9506 95.3543 78.7677 96.223 78.4934C97.5261 78.0819 98.8978 78.0133 100.27 77.6018C103.424 76.7102 106.648 75.8186 109.871 75.0642C113.163 74.3097 116.25 73.0067 119.542 72.1151C122.148 71.2921 124.823 70.6748 127.36 69.6461C129.623 68.823 131.955 68.4115 134.219 67.5199C136.207 66.6284 138.402 66.2854 140.46 65.3939C142.449 64.5709 144.712 64.2965 146.701 63.2678C148.553 62.5819 150.61 62.1704 152.462 61.3474L152.599 61.7589C151.982 61.9647 151.433 62.1704 150.884 62.4447C149.581 63.062 148.072 63.2678 146.769 63.885C145.055 64.708 143.134 64.9824 141.351 65.7368C139.568 66.5598 137.648 66.8341 135.796 67.5885C133.601 68.5487 131.132 68.8916 128.938 69.9204C126.126 70.8806 123.245 71.5664 120.433 72.5266C117.347 73.6925 114.192 74.4469 111.037 75.4071C108.157 76.1615 105.276 77.1217 102.258 77.6704C100.132 78.1504 98.0748 78.9735 95.8801 79.1792C94.1655 79.7279 92.3824 79.865 90.7363 80.3451C85.4554 81.3739 80.243 82.3341 74.8935 82.9513C69.8869 83.5 64.9488 84.0487 59.8736 84.1858C55.5528 84.1858 51.0949 84.1858 46.9113 82.8142C46.4998 82.7456 46.1569 82.4712 45.7454 82.2655Z" fill="black"/>
<path id="Vector_64" d="M116.318 62.7876C116.73 62.5133 116.913 62.6047 116.867 63.0619C116.501 63.3363 116.318 63.2448 116.318 62.7876Z" fill="black"/>
<path id="Vector_65" d="M146.015 55.1065C148.278 54.8321 150.541 54.695 152.668 53.6662C153.559 53.1861 154.519 52.9118 155.548 52.706C155.479 52.8432 155.342 53.1176 155.274 53.2547C152.53 54.4892 149.581 55.5866 146.564 55.518C146.426 55.3808 146.152 55.1751 146.015 55.1065Z" fill="black"/>
<path id="Vector_66" d="M46.0198 84.6659C46.7742 85.2146 47.0485 86.1747 47.5972 86.9292C49.106 89.261 51.0264 91.2499 52.8096 93.3075C55.21 96.2566 57.6105 99.2743 60.1481 102.018C63.9202 105.927 68.0352 109.356 72.4932 112.374C80.6546 117.929 89.5705 122.661 99.3094 124.925C100.613 125.199 101.916 125.542 103.287 125.816C104.202 125.999 105.116 126.159 106.031 126.296C106.808 126.479 107.608 126.639 108.431 126.776C109.391 126.914 110.42 127.051 111.38 127.188C112.752 127.325 114.124 127.531 115.495 127.599C120.502 128.079 125.646 128.697 130.652 128.079C131.064 127.942 131.407 128.148 131.681 128.285C130.309 128.902 128.8 128.834 127.292 128.902C121.942 129.04 116.593 128.285 111.243 127.805C110.077 127.599 108.911 127.462 107.745 127.256C107.105 127.165 106.488 127.051 105.893 126.914C105.573 126.868 105.253 126.822 104.933 126.776C104.568 126.685 104.179 126.593 103.767 126.502C102.464 126.228 101.093 125.953 99.7895 125.61C99.058 125.473 98.3493 125.313 97.6634 125.13C89.2962 123.004 81.4776 118.958 74.2763 114.294C68.9954 110.865 64.0573 107.024 59.7366 102.498C59.3708 102.086 59.005 101.698 58.6392 101.332C57.8162 100.372 56.9246 99.3428 56.1016 98.3141C53.8383 95.5707 51.5065 92.7588 49.1746 90.0154C47.8716 88.438 46.3627 86.7234 46.0198 84.6659Z" fill="black"/>
<path id="Vector_67" d="M152.805 55.7236C154.862 54.6948 156.92 53.5975 158.977 52.5001C159.114 52.6373 159.32 52.843 159.457 52.9116C156.303 54.4891 153.353 56.5466 149.856 57.0952C149.718 57.0266 149.444 56.8895 149.307 56.7523C150.473 56.3408 151.707 56.1351 152.805 55.7236Z" fill="black"/>
<path id="Vector_68" d="M47.3229 84.6661C48.0773 84.5289 48.7631 84.8719 49.449 85.0776C51.918 85.7635 54.5242 85.832 57.1304 85.6949C67.5551 85.4205 78.0484 84.7347 88.4046 83.2258C88.9533 83.1573 89.4334 83.0201 89.982 82.8829C89.9363 83.2944 89.7305 83.523 89.3648 83.5688C86.2785 84.186 83.1922 84.5289 80.0374 84.8033C73.3162 85.5577 66.5949 85.9692 59.8737 86.2435C56.856 86.3121 53.7698 86.5865 50.7521 85.9692C49.5861 85.6949 48.283 85.4891 47.3229 84.6661Z" fill="black"/>
<path id="Vector_69" d="M148.896 60.3186C153.216 58.9469 157.606 57.438 161.241 54.6947C161.378 55.4491 160.555 55.8606 160.075 56.2721C158.086 57.5066 156.028 58.4668 153.834 59.2212C152.325 59.9757 150.679 60.3872 149.101 60.7301C149.033 60.6615 148.964 60.4557 148.896 60.3186Z" fill="black"/>
<path id="Vector_70" d="M79.0086 79.1108C80.7918 78.5621 82.7121 78.1506 84.3581 77.259C84.3581 77.3962 84.2896 77.6705 84.2896 77.8077C82.232 78.905 79.9002 79.4537 77.6369 80.0024C77.7741 79.3851 78.4599 79.3165 79.0086 79.1108Z" fill="black"/>
<path id="Vector_71" d="M63.0972 99.2742C62.8228 98.9313 62.137 98.314 62.96 98.5198C66.4578 101.537 70.5728 103.664 74.5507 105.858C85.6613 111.414 97.1834 116.214 109.323 118.958C111.312 119.369 113.301 119.712 115.358 120.055C116.661 120.261 117.964 120.398 119.267 120.672C119.862 120.718 120.456 120.787 121.051 120.878C122.079 121.015 123.177 121.084 124.274 121.221C125.051 121.267 125.829 121.335 126.606 121.427C127.36 121.427 128.115 121.495 128.869 121.633C128.389 122.113 127.635 122.044 126.949 122.044C124.548 121.907 122.148 121.701 119.747 121.358C114.329 120.672 108.911 119.781 103.63 118.272C94.3028 115.734 85.3183 111.894 76.6768 107.641C72.0131 105.104 67.075 102.772 63.0972 99.2742Z" fill="black"/>
<path id="Vector_72" d="M194.367 98.7943C197.11 96.9426 199.579 94.7479 201.911 92.4846C201.979 92.8275 202.048 93.3076 201.705 93.582C200.059 95.4337 198.139 96.9426 196.15 98.4514C195.053 99.2058 194.024 100.029 192.789 100.372C193.064 99.6173 193.818 99.2744 194.367 98.7943Z" fill="black"/>
<path id="Vector_73" d="M205.203 97.6969C205.889 97.2168 206.506 96.6681 207.26 96.4624C207.055 97.2168 206.232 97.4911 205.683 98.0398C201.98 101.263 198.07 104.281 193.955 107.024C189.497 110.042 184.834 112.648 180.033 115.049C174.752 117.586 169.539 120.124 164.053 122.044C162.612 122.799 160.898 123.004 159.389 123.69C157.331 124.445 155.205 125.062 153.011 125.473C151.296 125.816 149.65 126.434 147.935 126.639C144.278 127.462 140.597 128.057 136.893 128.422C136.962 128.354 137.031 128.08 137.099 128.011C140.734 127.325 144.438 126.914 148.073 125.953C150.199 125.748 152.119 124.993 154.177 124.513C162.544 122.387 170.5 118.958 178.181 115.186C185.794 111.551 192.995 107.299 199.648 102.155C200.402 101.538 201.225 100.989 201.98 100.372C202.437 99.9602 202.917 99.5715 203.42 99.2057C204.014 98.7028 204.609 98.1998 205.203 97.6969Z" fill="black"/>
<path id="Vector_74" d="M203.488 101.195C205.477 101.675 205.957 103.869 207.123 105.241C207.535 105.698 207.832 106.224 208.015 106.819C207.878 106.75 207.535 106.681 207.398 106.681C207.032 106.178 206.666 105.675 206.3 105.173C205.409 104.075 204.997 102.635 203.694 101.881C203.694 101.743 203.557 101.4 203.488 101.195Z" fill="black"/>
<path id="Vector_75" d="M132.984 122.524C133.121 122.387 133.395 122.25 133.533 122.113C134.63 122.113 135.727 122.113 136.825 122.113C137.168 122.044 137.511 122.181 137.716 122.524C136.139 122.662 134.561 122.867 132.984 122.524Z" fill="black"/>
<path id="Vector_76" d="M202.802 105.995C202.46 105.378 202.048 104.624 202.871 104.212C203.145 105.31 204.243 106.75 203.283 107.779C201.979 109.356 200.265 110.453 198.687 111.688C197.59 112.442 196.561 113.471 195.327 113.883C195.258 113.471 195.601 113.197 195.876 112.922C197.933 111.276 200.128 109.768 202.117 107.984C202.597 107.504 203.351 106.75 202.802 105.995Z" fill="black"/>
<path id="Vector_77" d="M206.437 108.396C206.917 108.053 207.466 107.71 208.083 107.573C207.946 107.893 207.763 108.145 207.535 108.327C203.694 111.208 200.059 114.294 196.218 117.106C187.92 123.416 178.524 128.217 168.716 131.44C165.15 132.538 161.515 133.566 157.88 134.526C156.577 134.869 155.274 135.349 153.971 135.555C152.119 135.761 150.336 136.584 148.484 136.721C146.221 137.338 143.82 137.544 141.489 138.093C141.214 138.161 140.323 138.436 140.46 137.818C143.34 136.858 146.495 136.79 149.444 135.83C151.365 135.555 153.216 135.075 155.068 134.526C159.457 133.635 163.71 132.332 168.03 131.029C169.608 130.274 171.322 130 172.9 129.245C179.072 126.982 184.902 123.896 190.389 120.33C193.544 118.272 196.561 116.009 199.51 113.746C201.797 111.917 204.106 110.133 206.437 108.396Z" fill="black"/>
<path id="Vector_78" d="M137.511 130.549C137.579 130.411 137.785 130.206 137.922 130.137C138.334 131.714 138.059 133.361 138.539 134.938C138.677 136.172 139.431 137.338 139.294 138.573C138.539 138.23 138.471 137.407 138.265 136.721C137.579 134.732 137.579 132.606 137.511 130.549Z" fill="black"/>
<path id="Vector_79" d="M190.252 117.243C191.075 116.626 191.76 115.734 192.789 115.391C192.446 116.557 191.28 117.175 190.457 117.929C189.223 118.821 188.057 119.918 186.617 120.467C186.754 120.124 186.891 119.781 187.234 119.506C188.194 118.752 189.223 117.998 190.252 117.243Z" fill="black"/>
<path id="Vector_80" d="M140.391 131.097C140.528 130.96 140.734 130.686 140.803 130.549C141.146 131.92 141.214 133.429 141.077 134.801C140.94 134.801 140.734 134.869 140.597 134.869C140.528 133.635 140.46 132.332 140.391 131.097Z" fill="black"/>
</g>
</svg>
