<svg width="233" height="152" viewBox="0 0 233 152" fill="none" xmlns="http://www.w3.org/2000/svg">
<g id="Group 10">
<path id="Vector" d="M221.83 122.852C221.83 121.106 223.337 120.234 224.638 119.652C225.232 119.894 225.825 120.137 226.419 120.379C226.83 121.47 227.446 122.707 226.693 123.725C225.665 125.834 222.104 125.252 221.83 122.852Z" fill="black"/>
<path id="Vector_2" d="M118.825 1.02523C122.798 0.734302 126.747 0.734302 130.674 1.02523C138.344 1.02523 146.015 2.26168 153.343 4.66185C153.48 4.51638 153.685 4.22546 153.822 4.08C154.142 4.41942 154.462 4.75883 154.781 5.09825C155.603 5.09825 156.493 5.53465 156.973 6.33471C156.836 6.48017 156.699 6.77109 156.63 6.91656C157.863 9.68039 158.617 12.7351 159.712 15.5717C161.014 19.7902 162.931 23.7905 164.438 27.9362C165.465 30.7 166.493 33.4639 167.314 36.3732C168.41 40.0098 169.095 43.7191 170.191 47.3557C171.766 51.647 173.478 55.8654 174.917 60.1566C175.601 62.9205 176.766 65.6843 176.492 68.6663C175.738 68.5936 175.053 68.1572 174.506 67.7208C171.013 65.3206 167.725 62.7023 163.959 60.7385C159.918 58.5565 155.672 56.6655 151.562 54.5562C150.467 53.9017 149.097 53.6107 148.138 52.6652C146.015 49.5377 144.371 46.0466 142.659 42.6281C138.755 36.2277 133.961 30.4091 129.441 24.4451C123.072 16.4445 116.634 8.37122 108.758 2.0435C108.758 1.8253 108.758 1.31617 108.826 1.09797C109.717 1.60709 110.812 1.53436 111.84 1.38889C114.168 0.952499 116.497 1.1707 118.825 1.02523Z" fill="#E56E0C"/>
<path id="Vector_3" d="M94.8549 4.95292C95.6768 4.58925 96.3616 5.31656 96.9095 5.82569C98.3478 7.35307 99.9915 8.51678 101.361 10.1169C106.087 13.6808 109.922 18.2629 113.963 22.6269C118.825 28.2273 124.03 33.464 129.236 38.7007C131.085 40.7372 133.071 42.9192 134.372 45.4648C134.646 45.9739 134.783 47.2104 133.893 47.0649C130.468 45.8285 127.044 44.6648 123.414 44.2284C120.401 44.0829 117.387 44.0102 114.374 44.3011C110.128 44.6648 105.95 44.2284 101.772 44.883C99.923 45.1739 98.3478 43.792 96.6356 43.2101C91.0196 40.519 85.1297 38.5552 79.4453 35.9369C74.1718 33.6094 69.0352 31.1366 63.8302 28.8091C62.5974 28.2273 61.2277 28.6636 59.9264 28.6636C59.0361 28.3 59.8579 27.4999 60.2004 26.9908C62.3235 24.4452 64.9945 22.4087 67.5285 20.2994C72.2541 16.5173 77.2537 13.2444 82.3902 10.2624C86.3625 8.00767 90.8142 6.98942 94.8549 4.95292Z" fill="#E56E0C"/>
<path id="Vector_4" d="M170.876 12.3716C170.876 11.717 170.876 11.0624 171.424 10.5533C171.766 11.2806 171.903 12.1534 172.588 12.5898C175.533 14.8445 178.135 17.5356 181.012 20.0085C185.053 23.7906 189.025 27.7908 192.792 32.0093C195.326 34.9913 197.654 38.337 198.819 42.2646C200.188 45.7557 200.394 49.6105 200.805 53.3926C201.764 62.5569 203.818 71.5757 207.106 80.1581C208.681 84.3766 210.256 88.6678 212.516 92.5226C212.79 93.1045 213.338 93.6864 212.995 94.4137C212.311 94.7046 211.763 94.1955 211.215 93.9045C209.571 93.0318 208.064 91.9408 206.421 91.2134C204.571 90.4861 203.065 89.1042 201.353 88.0132C199.709 86.995 198.134 85.7585 196.49 84.6675C193.75 83.0674 191.285 81.1037 189.025 78.9217C187.176 77.3943 185.669 75.5033 183.888 73.9759C183.477 72.8122 183.409 71.5757 183.203 70.3393C182.587 65.7571 181.423 61.2477 180.601 56.7383C179.642 51.647 178.752 46.483 177.656 41.3918C176.492 36.2278 175.19 31.1365 174.026 25.9725C173.41 23.2814 173.273 20.4449 172.656 17.7538C172.246 16.2264 171.835 14.699 171.492 13.0989C171.287 12.9534 171.013 12.5898 170.876 12.3716Z" fill="#E56E0C"/>
<path id="Vector_5" d="M53.694 37.3913C54.1049 37.2459 54.5386 37.1004 54.9952 36.955C55.0637 37.1732 55.2007 37.5368 55.2692 37.755C59.1729 38.4096 63.0767 39.2824 66.912 40.3006C74.5141 42.4099 82.4586 43.4281 89.7868 46.4102C90.8141 46.6284 91.1565 47.9375 90.1292 48.4467C87.8006 49.6831 85.2666 50.6286 82.938 51.9378C76.8427 54.9198 71.5691 59.502 65.1998 62.0476C62.8028 63.2113 59.8578 62.7749 57.5977 61.3203C55.0637 59.4293 53.6255 56.4472 52.2557 53.6107C51.2969 51.4287 50.0641 49.3922 49.5162 46.992C49.3793 46.1192 49.2423 45.2464 49.7217 44.5191C50.475 42.9917 51.2284 41.4643 52.1187 40.0097C52.6666 39.1369 53.3515 38.4096 53.694 37.3913Z" fill="#E56E0C"/>
<path id="Vector_6" d="M208.612 60.5205C208.749 60.375 208.955 60.1568 209.092 60.0113C209.708 61.175 210.872 61.8296 211.42 62.9934C212.173 64.5935 213.475 65.6845 214.502 67.1391C216.694 70.0484 218.817 73.1032 221.625 75.3579C224.159 77.6126 227.035 79.5764 229.227 82.1947C230.939 84.1585 232.857 86.4859 232.651 89.3952C232.514 90.8498 231.213 91.5772 230.323 92.3772C228.405 94.1228 226.145 95.2865 223.816 96.3048C222.515 96.8139 221.282 97.9049 219.844 97.4685C218.748 96.0139 218.474 94.1228 217.789 92.45C216.214 88.086 215.118 83.5039 213.749 78.9945C211.831 72.885 210.872 66.4845 208.612 60.5205Z" fill="#E56E0C"/>
<path id="Vector_7" d="M120.811 0.734351C121.154 0.443422 121.428 -0.0657046 121.976 0.00702778C125.469 0.225225 129.03 -0.138432 132.523 0.0797646C135.468 0.516159 138.413 0.73436 141.289 1.24349C141.198 1.67988 140.947 1.87382 140.536 1.82534C137.454 1.82534 134.44 1.31621 131.359 1.02528C129.646 0.661614 127.866 0.661632 126.153 0.952562C124.373 1.31622 122.592 0.661619 120.811 0.734351Z" fill="black"/>
<path id="Vector_8" d="M110.812 0.80707C113.62 0.879803 116.291 0.152479 119.099 0.443409C119.031 0.588873 118.894 0.879798 118.825 1.098C115.607 1.098 112.319 1.60712 109.1 1.82532C105.196 2.04352 101.498 3.57091 97.5944 3.86184C94.7864 4.37096 91.8414 4.88008 89.3759 6.62566C87.3213 7.64391 85.1297 8.5167 83.2805 9.97135C80.815 11.8624 78.0755 13.317 75.2675 14.4807C74.8566 14.4807 74.0347 15.2808 73.9663 14.4807C74.5142 14.0443 75.1306 13.7534 75.7469 13.4625C78.0755 12.2988 80.3356 11.1351 82.3902 9.46221C83.623 8.44396 85.1297 7.64391 86.5679 6.91658C87.3898 6.52868 88.2116 6.16502 89.0335 5.8256C89.3531 5.63164 89.6955 5.4377 90.0608 5.24375C90.837 4.90433 91.636 4.61339 92.4578 4.37095C93.1427 4.15275 93.7591 4.0073 94.3755 3.7891C98.5532 3.20724 102.525 1.89806 106.635 1.17073C108.073 1.17073 109.443 0.879803 110.812 0.80707Z" fill="black"/>
<path id="Vector_9" d="M144.44 1.82532C145.946 1.67986 147.453 2.11625 148.891 2.47991C152.727 2.98904 156.356 4.51643 160.055 5.53468C161.424 5.75288 162.52 6.6984 163.616 7.49846C159.712 6.55294 155.808 5.68014 152.042 4.37096C149.85 3.7891 147.727 2.9163 145.467 2.47991C145.102 2.33445 144.759 2.11625 144.44 1.82532Z" fill="black"/>
<path id="Vector_10" d="M111.086 6.1893C111.497 6.23779 111.84 6.45598 112.114 6.84388C113.826 9.24405 116.086 11.2806 118.072 13.4625C120.948 16.4446 123.483 19.7902 126.359 22.845C128.277 25.0997 130.4 27.2089 132.317 29.4636C135.81 33.6821 138.892 38.2643 142.18 42.7009C142.864 43.501 143.549 44.3738 144.097 45.3193L143.755 45.5375C141.495 43.2828 139.851 40.519 137.933 37.9733C135.536 34.8459 133.413 31.5001 130.674 28.6636C128.414 26.3362 126.359 23.7905 124.167 21.4631C122.25 19.4993 120.743 17.1719 118.757 15.2808C116.634 12.8807 114.237 10.6987 112.319 8.08034C111.84 7.49848 111.223 6.98935 111.086 6.1893Z" fill="black"/>
<path id="Vector_11" d="M101.977 6.4074C103.347 7.06199 104.101 8.44389 105.128 9.38941C107.319 11.5714 109.1 14.0443 111.086 16.3717C114.237 19.7174 117.182 23.1358 120.195 26.5542C120.195 26.6997 120.264 27.0634 120.264 27.2088C118.14 25.2451 116.291 22.9176 114.237 20.8811C110.607 17.1718 107.593 12.8806 103.964 9.17122C103.279 8.29843 102.183 7.64385 101.977 6.4074Z" fill="black"/>
<path id="Vector_12" d="M167.383 9.24393C169.027 9.53486 170.465 10.5531 171.903 11.4986C175.19 13.7533 178.272 16.3717 181.286 18.9901C183.34 20.6629 185.053 22.6267 186.833 24.6632C187.107 25.1723 187.792 25.7542 187.655 26.4088C187.176 26.1906 186.833 25.7542 186.491 25.3178C184.162 22.6994 181.765 20.081 178.957 18.1173C175.122 15.2807 171.424 12.1532 167.246 9.82578C167.314 9.68032 167.383 9.3894 167.383 9.24393Z" fill="black"/>
<path id="Vector_13" d="M161.767 13.3897C161.904 13.3897 162.246 13.3897 162.383 13.317C162.589 15.3535 163.342 17.2445 163.959 19.1356C165.534 23.0631 166.63 27.2088 167.794 31.3546C170.533 39.937 172.862 48.6649 175.259 57.3201C175.601 58.8474 176.286 60.3021 176.492 61.8294C175.122 60.6657 175.122 58.5565 174.437 56.8837C174.163 55.7927 173.821 54.7017 173.547 53.538C172.314 49.3922 171.287 45.1737 170.054 40.9553C169.437 38.846 168.821 36.7368 168.205 34.6275C167.862 33.682 167.588 32.6638 167.246 31.7183C166.356 28.5908 165.534 25.4633 164.506 22.4085C164.232 21.7782 164.004 21.1478 163.822 20.5175C163 18.19 161.972 15.8626 161.767 13.3897Z" fill="black"/>
<path id="Vector_14" d="M66.5011 21.172C67.8023 20.0083 68.8981 18.4809 70.4048 17.6081C70.4048 17.8991 70.3364 18.4809 70.3364 18.6991C67.2316 22.1418 64.0127 25.4632 60.6796 28.6634C59.1044 30.1181 58.2141 32.1546 56.9128 33.9002C56.0225 35.1366 55.4746 36.5913 54.6528 37.8277C53.7624 39.5006 52.3242 40.6643 51.6393 42.4099C51.2284 43.3554 50.886 44.3009 50.5435 45.3192C50.4066 46.1919 50.4066 47.0647 49.9272 47.8648C49.1053 47.0647 49.5847 45.8283 49.7902 44.81C50.4066 42.8462 51.1599 40.8825 52.4612 39.2824C54.1734 37.2459 54.9952 34.5548 56.5704 32.4455C57.5292 30.9181 58.4196 29.2453 59.7208 28.0088C62.0494 25.7541 64.1725 23.354 66.5011 21.172Z" fill="black"/>
<path id="Vector_15" d="M171.15 18.8448C171.355 18.9902 171.629 19.2084 171.835 19.2812C172.793 23.2087 173.752 27.1363 174.574 31.1366C175.327 34.8459 176.355 38.4825 177.04 42.1919C178.135 48.0832 179.437 53.9745 180.327 60.0113C180.19 59.7931 179.847 59.3567 179.642 59.1385C177.998 50.4106 176.56 41.61 174.369 33.0276C173.41 28.3 172.177 23.5724 171.15 18.8448Z" fill="black"/>
<path id="Vector_16" d="M187.724 26.5544C190.121 27.8636 191.49 30.482 193.271 32.5912C197.791 38.1189 200.805 44.8102 204.503 50.9925C207.174 55.7928 210.187 60.4477 213.201 65.1026C214.502 66.6299 215.872 68.1573 217.036 69.9029C217.242 70.2666 217.721 70.6302 217.652 71.1394C217.036 71.3576 216.694 70.6302 216.351 70.2666C215.324 68.7392 214.023 67.5027 212.858 66.1935C210.598 63.0661 208.749 59.7204 206.763 56.3747C203.407 50.7016 199.846 45.1012 196.627 39.3553C194.641 35.7914 192.175 32.5185 189.778 29.2455C189.093 28.3 188.066 27.7181 187.724 26.5544Z" fill="black"/>
<path id="Vector_17" d="M63.2138 29.6819C64.4465 29.5365 65.6108 30.0456 66.7751 30.482C69.994 31.7911 73.2814 32.8094 76.4318 34.4095C79.7877 35.9369 83.349 36.9552 86.7734 38.2643C88.7595 39.0644 90.9511 39.6462 92.8688 40.7372C91.8415 41.0282 90.9511 40.5918 90.0608 40.2281C85.6091 38.628 81.1575 37.2461 76.7743 35.4278C73.076 33.6822 69.2406 32.373 65.4738 30.8456C64.652 30.482 63.6932 30.482 63.2138 29.6819Z" fill="black"/>
<path id="Vector_18" d="M123.277 29.5364C124.167 29.6818 124.647 30.4819 125.332 30.991C126.428 31.9365 127.386 33.0275 128.482 33.973C128.962 34.4822 129.715 34.9185 129.852 35.7186C128.277 35.1367 127.181 33.6094 125.948 32.5184C125.126 31.5001 123.551 30.991 123.277 29.5364Z" fill="black"/>
<path id="Vector_19" d="M57.8032 36.6642C62.6658 37.0278 67.3914 37.9006 72.117 39.2098C76.9111 40.1553 81.4997 41.7554 86.1569 43.1374C86.1569 43.2828 86.0884 43.501 86.0199 43.6465C82.7326 42.9191 79.4451 41.7554 76.1578 40.9554C71.7746 40.0826 67.4599 38.9916 63.0082 38.1915C61.296 37.8279 59.5154 37.8279 57.8032 37.3915C57.8032 37.1733 57.8032 36.8824 57.8032 36.6642Z" fill="black"/>
<path id="Vector_20" d="M113.346 40.0825C116.976 40.6644 120.606 41.2462 124.167 42.119C126.77 42.6282 129.372 43.4282 131.975 43.9373C133.756 44.301 135.605 44.3738 137.385 44.9556C137.385 45.1011 137.317 45.392 137.317 45.6102C134.577 45.0283 131.701 44.8101 128.961 44.0828C124.167 42.8464 119.305 41.7554 114.374 41.028C113.826 40.8826 113.278 40.7371 112.799 40.5917C112.935 40.4462 113.209 40.228 113.346 40.0825Z" fill="black"/>
<path id="Vector_21" d="M133.208 39.9371C134.509 40.519 135.81 41.4645 136.495 42.7737C135.125 42.3373 133.893 41.2463 133.208 39.9371Z" fill="black"/>
<path id="Vector_22" d="M94.7864 42.9191C97.0465 42.2645 99.2381 41.3917 101.567 41.6099C100.676 42.5555 99.375 42.2645 98.2792 42.6282C92.5948 44.2283 87.0473 46.1921 81.7053 48.665C79.8562 49.5377 77.9386 50.4105 76.0894 51.2106C75.0393 51.744 74.0119 52.3016 73.0075 52.8834C72.2541 53.3198 71.5692 53.829 70.8159 54.1926C69.6516 54.9199 68.5558 55.72 67.3915 56.4473C65.6108 57.5383 63.6932 58.0474 61.707 58.4838C61.0222 58.1202 60.2003 57.6838 60.1318 56.811C60.4058 56.9565 60.8852 57.3201 61.1592 57.5383C62.5974 57.611 63.8986 57.0292 65.2684 56.6655C69.4461 54.5563 73.1444 51.5743 77.4591 49.7559C78.281 49.3923 79.1028 49.0286 79.9247 48.665C80.8835 48.2286 81.8195 47.7922 82.7326 47.3558C86.7049 45.6102 90.7457 44.2283 94.7864 42.9191Z" fill="black"/>
<path id="Vector_23" d="M100.334 44.1554C104.511 43.719 108.758 43.2099 112.935 43.5008C114.785 43.7918 116.702 43.6463 118.551 44.0099C119.784 44.1554 121.085 44.5191 122.387 44.5191C122.455 44.6645 122.592 45.0282 122.661 45.1737C122.341 45.3191 122.021 45.4404 121.702 45.5373C114.442 44.5191 106.977 44.5918 99.6489 45.6828C95.5396 46.4101 91.5674 47.792 87.6636 49.1739C83.3489 50.7013 79.5821 53.5379 75.4044 55.3562C74.9478 55.5986 74.4684 55.8411 73.9661 56.0835C71.0897 57.7564 68.6926 60.0838 66.0901 62.193C64.5149 63.6477 62.1863 63.8659 60.2002 63.7204C58.3511 62.9204 55.7485 62.7022 54.9267 60.4475C53.6939 57.3927 52.3927 54.3379 50.8859 51.3559C50.6805 50.6286 50.475 49.9013 50.4065 49.1739C50.8631 49.1739 51.1827 49.3921 51.3653 49.8285C52.6666 52.4469 53.8994 55.0653 54.9267 57.8291C55.5431 59.4292 56.3649 61.3203 58.1456 61.6112C59.4469 61.8294 60.5427 63.1386 61.9124 62.7022C63.0767 62.484 64.241 62.2658 65.1313 61.4657C68.3502 58.7746 71.5691 56.0108 75.4044 54.338C77.322 53.5137 79.194 52.5439 81.0203 51.4287C83.1434 50.0467 85.335 48.9557 87.6636 48.0102C91.7728 46.3374 95.9506 44.81 100.334 44.1554Z" fill="black"/>
<path id="Vector_24" d="M124.989 44.8101C126.633 44.8101 128.071 45.6102 129.509 46.1193C133.55 47.4285 137.385 49.2468 141.426 50.556C144.577 51.5742 147.453 53.2471 150.467 54.5563C152.042 55.2108 153.548 56.0836 155.124 56.7382C158.89 58.1929 162.726 59.793 166.013 62.1932C166.698 62.775 167.657 63.2114 167.931 64.2297C167.177 64.2297 166.63 63.6478 166.082 63.2841C163.342 61.3204 160.329 59.8657 157.247 58.5565C153.617 57.2474 150.193 55.5018 146.631 53.9744C143.001 52.1561 139.029 51.2106 135.331 49.6105C132.249 48.2286 128.962 47.283 125.88 45.9011C125.4 45.7556 125.058 45.3193 124.989 44.8101Z" fill="black"/>
<path id="Vector_25" d="M144.645 48.8104C144.714 47.9376 145.467 48.5194 145.946 48.6649C146.357 48.8103 146.837 49.0286 147.316 49.2468C148.96 49.8286 150.603 50.3377 152.179 51.0651C153.48 51.6469 154.781 52.2288 156.014 52.8834C159.644 54.7017 163.205 56.4472 166.698 58.5565C168.821 59.8657 171.15 60.8839 173.136 62.4113C174.916 63.7205 176.834 64.7387 178.683 65.9025C180.395 66.9934 182.176 68.0844 183.957 69.2481C185.258 70.1209 186.628 71.0665 187.861 72.0847C187.861 72.3029 187.998 72.5938 187.998 72.7393C186.696 72.0847 185.532 71.0665 184.299 70.2664C181.628 68.5936 178.957 66.9207 176.286 65.3206C173.752 64.0114 171.629 62.0476 169.027 60.8839C164.643 58.3141 160.192 55.9139 155.672 53.6834C152.727 52.0833 149.713 50.9196 146.631 49.7559C145.946 49.4649 145.261 49.174 144.645 48.8104Z" fill="black"/>
<path id="Vector_26" d="M53.2831 48.7378C53.831 49.2469 54.0364 49.9742 54.3789 50.6288C55.8171 52.3744 57.1868 54.1927 58.8305 55.6473C57.6663 55.7928 56.9814 54.7018 56.228 53.9745C55.2692 52.6653 54.0364 51.6471 53.2146 50.2652C53.2602 49.7318 53.2831 49.2227 53.2831 48.7378Z" fill="black"/>
<path id="Vector_27" d="M129.715 56.6653C129.852 56.5926 130.126 56.5199 130.263 56.5199C131.085 58.1927 133.413 59.211 134.92 57.9018C134.92 58.12 134.92 58.5564 134.92 58.7746C134.714 58.9201 134.372 59.211 134.235 59.3564C132.386 59.5019 130.194 58.7746 129.715 56.6653Z" fill="black"/>
<path id="Vector_28" fill-rule="evenodd" clip-rule="evenodd" d="M85.472 57.1746C86.9103 56.4473 88.6224 56.5928 90.0607 57.3201C91.225 58.0474 92.3207 58.9929 93.0056 60.2294C93.0056 60.7143 93.0285 61.1991 93.0741 61.684C91.6359 63.0659 89.5813 62.4113 87.9376 61.8295C86.9103 61.1749 85.746 60.5203 84.8557 59.5021C84.4447 58.9929 84.6502 58.2656 84.6502 57.6838C84.8557 57.5383 85.2666 57.3201 85.472 57.1746ZM85.746 57.8292C85.0611 57.9747 85.1981 58.6293 85.4035 59.1384C86.4993 60.1567 87.7321 60.884 89.0334 61.4658C90.1292 61.7567 91.225 61.9749 92.3207 61.4658C92.3207 61.2476 92.3208 60.7385 92.3893 60.5203C91.088 58.2656 88.143 56.5928 85.746 57.8292Z" fill="black"/>
<path id="Vector_29" d="M108.621 56.8836C109.169 57.3928 109.717 57.9746 110.264 58.5565C110.47 58.5565 110.949 58.6292 111.155 58.6292C111.086 58.8474 110.949 59.2111 110.881 59.4293C109.648 59.2838 108.278 58.3383 108.621 56.8836Z" fill="black"/>
<path id="Vector_30" d="M111.634 58.5566C112.319 58.7748 112.936 59.1385 113.62 59.3567C114.168 59.2839 114.579 58.8475 114.99 58.6293C115.059 58.8475 115.127 59.2112 115.127 59.3567C114.031 60.3022 112.593 60.0113 111.497 59.1385C111.566 58.993 111.566 58.7021 111.634 58.5566Z" fill="black"/>
<path id="Vector_31" fill-rule="evenodd" clip-rule="evenodd" d="M144.234 60.593C145.124 59.2838 146.837 59.1383 148.001 59.9384C149.439 60.4475 151.151 60.4475 152.179 61.684C152.795 62.5568 151.768 63.2841 151.22 63.7205C149.371 64.4478 147.384 64.0114 145.741 63.0659C144.85 62.5568 144.234 61.684 144.234 60.593ZM145.124 60.3748C145.056 60.593 145.056 61.1749 144.987 61.393C146.289 62.9204 148.343 63.6478 150.192 63.2841C150.74 62.9932 151.836 62.8477 151.699 62.0477C149.782 60.6657 147.316 60.7385 145.124 60.3748Z" fill="black"/>
<path id="Vector_32" d="M202.996 58.9203C203.818 59.8659 203.613 61.175 203.887 62.3388C204.298 64.9571 205.051 67.43 205.873 69.9029C206.01 70.3393 206.17 70.8242 206.352 71.3576C206.626 72.0849 206.923 72.8365 207.243 73.6123C207.653 74.5578 208.064 75.5761 208.475 76.5216C208.886 77.5398 209.297 78.5581 209.708 79.5763C210.028 80.4491 210.37 81.2977 210.735 82.122C211.101 82.9947 211.443 83.8676 211.763 84.7403C212.311 86.0495 212.904 87.3345 213.543 88.5951C213.406 88.5951 213.064 88.5224 212.858 88.5224C211.968 87.2132 211.557 85.6858 210.941 84.3039C210.576 83.4311 210.21 82.5584 209.845 81.6856C209.48 80.8613 209.137 80.0127 208.818 79.1399C208.407 78.1217 207.996 77.1519 207.585 76.2306C206.832 74.4851 206.147 72.7395 205.53 70.9939C204.229 67.0664 202.928 63.0661 202.996 58.9203Z" fill="black"/>
<path id="Vector_33" d="M207.79 62.0477C208.681 62.775 208.749 64.0114 209.16 65.0297C210.598 69.3936 212.037 73.7576 213.201 78.1942C213.68 80.158 214.297 82.049 214.913 83.9401C215.255 84.8129 215.598 85.6857 215.94 86.5585C216.283 87.2131 216.557 87.9404 216.694 88.6677C216.488 88.5222 216.146 88.2313 215.94 88.1586C215.666 87.4797 215.392 86.8009 215.118 86.1221C213.954 83.431 213.132 80.6671 212.379 77.8306C211.215 73.3212 209.639 68.8845 208.27 64.3751C208.064 63.6478 207.859 62.8477 207.79 62.0477Z" fill="black"/>
<path id="Vector_34" d="M66.7065 64.0115C66.5695 63.2115 67.6653 63.066 67.8023 63.7933C67.8708 65.0298 68.2132 66.3389 69.1035 67.3572C69.9254 68.0845 70.9527 68.6664 71.9115 69.2482C73.8291 70.1938 75.1304 72.0121 77.1166 72.8121C77.1166 72.9576 76.9796 73.2485 76.9111 73.394C75.7468 73.0303 74.7195 72.3757 73.8291 71.503C72.4594 70.121 70.6787 69.4664 69.0351 68.5209C67.4598 67.7209 66.8435 65.7571 66.7065 64.0115Z" fill="black"/>
<path id="Vector_35" d="M83.623 65.7571C84.5819 66.4117 84.1024 67.9391 84.9928 68.5937C85.6092 68.6664 86.1571 68.5937 86.705 68.5937C87.2529 70.412 88.6226 71.8666 90.4033 72.594C91.499 73.0303 92.7318 73.1758 93.8961 73.4667C92.3894 74.3395 90.5402 73.4667 89.1705 72.7394C87.8007 72.0121 86.7734 70.7756 86.294 69.2483C86.0201 69.321 85.5407 69.4665 85.2667 69.6119C85.0612 69.4665 84.5818 69.321 84.3764 69.1755C83.6915 68.23 83.4176 66.9935 83.623 65.7571Z" fill="black"/>
<path id="Vector_36" d="M172.519 66.4116C172.725 66.4116 173.204 66.3388 173.478 66.3388C173.935 66.6297 174.414 66.9207 174.916 67.2116C177.839 69.0057 180.715 70.921 183.546 72.9575C188.682 76.8123 194.504 79.6489 199.64 83.6491C203.75 86.5584 207.174 90.3405 211.489 92.9589C211.854 93.1528 212.219 93.3225 212.584 93.468C214.091 94.3408 215.529 95.359 217.036 96.3045C217.242 96.3773 217.652 96.5955 217.789 96.6682C219.228 97.0319 220.803 97.4682 222.173 96.6682C224.296 95.4317 226.35 94.0498 228.61 93.1771C230.117 92.377 230.665 90.6314 231.35 89.1041C231.966 87.6494 232.172 85.9038 231.898 84.3037C231.144 82.5581 229.364 81.9035 227.926 80.8853C226.761 80.2307 225.665 79.4306 224.638 78.4851C222.036 76.3031 219.091 74.4121 217.173 71.4301C218.063 71.5755 218.68 72.4483 219.365 72.9575C221.351 74.8485 223.679 76.3759 225.597 78.2669C227.72 80.158 230.734 80.8853 232.377 83.3582C233.473 85.1765 232.925 87.4312 232.24 89.3222C231.624 90.7042 231.008 92.1588 230.049 93.3225C228.884 94.268 227.446 94.6317 226.145 95.4317C224.844 96.3045 223.542 96.9592 222.173 97.8319C220.597 98.0501 218.954 97.9774 217.447 97.3955C215.187 96.0863 213.132 94.4862 210.804 93.3225C205.736 89.9041 201.079 85.8311 196.01 82.3399C192.518 79.867 188.956 77.7578 185.463 75.3576C181.56 72.5211 177.587 69.7572 173.478 67.2116C173.113 66.9207 172.793 66.654 172.519 66.4116Z" fill="black"/>
<path id="Vector_37" fill-rule="evenodd" clip-rule="evenodd" d="M118.62 68.9572C121.291 68.2299 124.167 68.739 126.907 68.5936C127.112 68.6663 127.455 68.9572 127.592 69.1027C127.592 69.4906 127.592 69.8785 127.592 70.2664C126.017 72.1575 123.483 72.0847 121.359 71.7211C120.264 71.5029 119.099 71.4301 118.209 70.7028C117.661 70.0482 118.209 69.4664 118.62 68.9572ZM118.62 69.83C118.894 70.2664 119.305 70.4846 119.716 70.7755C121.017 70.9937 122.387 71.2847 123.757 71.2119C124.989 71.2847 126.633 70.7755 127.044 69.3209C125.811 69.1754 124.647 69.2482 123.414 69.2482C121.77 69.3209 120.127 69.1027 118.62 69.83Z" fill="black"/>
<path id="Vector_38" d="M143.549 68.8844C144.44 69.539 145.33 70.1936 146.357 70.3391C147.111 70.5573 147.59 69.9027 148.206 69.6118C148.206 69.9027 148.138 70.4118 148.138 70.63C146.905 71.6483 145.261 71.0664 144.097 70.2663C143.686 69.9754 143.686 69.3208 143.549 68.8844Z" fill="black"/>
<path id="Vector_39" d="M164.712 70.1211C165.054 69.7574 165.397 69.1756 165.945 69.321C166.082 69.9756 165.534 70.3393 165.26 70.8484C164.095 70.9211 162.863 70.8484 162.315 69.6119C163.137 69.6847 163.89 69.9029 164.712 70.1211Z" fill="black"/>
<path id="Vector_40" d="M77.1851 73.4667C77.4591 73.3939 77.9385 73.3939 78.2124 73.3939C80.1301 74.3394 81.5683 76.085 82.7326 77.9033C82.1847 77.8306 81.7053 77.7579 81.3628 77.3215C79.9931 76.0123 78.7603 74.4849 77.1851 73.4667Z" fill="black"/>
<path id="Vector_41" d="M83.2804 77.8305C84.1023 77.8305 85.1295 77.7578 85.609 78.7033C86.4993 80.3034 87.8006 81.6854 89.5127 82.2672C90.677 82.4127 91.9098 82.1218 93.0056 82.5582C93.4622 82.6067 93.759 82.8733 93.8959 83.3582C92.1838 83.2855 90.4716 83.6491 88.8279 83.3582C86.8417 82.7036 85.335 81.0308 84.5816 78.9943C84.1251 78.8003 83.6913 78.6306 83.2804 78.4851C83.2804 78.2669 83.2804 77.976 83.2804 77.8305Z" fill="black"/>
<path id="Vector_42" d="M114.648 79.5034C115.743 80.449 116.36 82.049 117.867 82.4854C117.935 83.2855 117.045 83.1401 116.565 82.9219C115.607 82.1218 114.442 81.0308 114.648 79.5034Z" fill="black"/>
<path id="Vector_43" d="M197.243 79.5763C201.01 81.9764 204.229 85.1039 207.996 87.3586C208.955 87.9405 209.914 88.5223 210.872 89.0315C212.037 89.9042 213.886 90.4134 214.228 92.0862C212.79 91.2134 211.626 90.0497 210.119 89.4679C205.873 87.2132 202.311 84.0129 198.408 81.1764C197.86 80.8127 197.312 80.3036 197.243 79.5763Z" fill="black"/>
<path id="Vector_44" d="M142.248 80.0127C142.385 80.0854 142.727 80.3763 142.864 80.5218C142.933 81.6128 143.549 82.5583 144.44 83.1402C145.33 82.9947 146.152 82.5583 147.042 82.5583C147.316 83.6493 147.385 84.8857 148.343 85.6131C148.891 85.8313 149.508 85.6131 150.056 85.6858C149.919 86.7041 148.686 86.6313 148.001 86.3404C146.974 85.6131 146.768 84.3766 146.426 83.2857C145.878 83.5766 145.33 83.9402 144.645 83.7947C143.481 83.8675 142.796 82.7038 142.248 81.7583C142.248 81.1764 142.248 80.5946 142.248 80.0127Z" fill="black"/>
<path id="Vector_45" d="M94.9918 83.5763C95.6082 83.4309 96.2246 83.0672 96.841 83.0672C98.8271 83.5763 99.7859 85.6856 101.567 86.6311C103.073 87.6494 104.991 86.6311 106.429 87.6494C105.813 88.6676 104.785 87.5767 103.895 88.013C102.731 88.3767 101.567 87.8676 100.539 87.2857C99.238 86.4129 98.4162 85.031 97.0464 84.3037C96.3616 84.0127 95.1973 84.5219 94.9918 83.5763Z" fill="black"/>
<path id="Vector_46" d="M173.341 84.7403C174.026 86.3404 175.533 87.3587 177.245 87.1405C177.245 88.3042 175.875 87.8678 175.19 87.6496C174.095 87.3587 172.588 86.0495 173.341 84.7403Z" fill="black"/>
<path id="Vector_47" d="M177.108 86.7767C177.793 88.2314 180.121 87.2858 179.984 85.7585C179.505 85.9767 179.026 86.3403 178.615 86.704C178.204 86.704 177.519 86.7767 177.108 86.7767Z" fill="black"/>
<path id="Vector_48" fill-rule="evenodd" clip-rule="evenodd" d="M162.315 86.7039C163.274 86.6312 164.232 86.704 165.123 87.1404C166.835 88.0859 168.616 89.4678 169.095 91.5043C169.164 92.3771 168.342 92.8862 167.794 93.4681C166.835 93.4681 165.945 93.3226 165.054 92.959C163.274 91.868 161.424 89.9042 161.767 87.4313C161.904 87.2858 162.178 86.9221 162.315 86.7039ZM162.452 87.504C162.178 89.9769 164.232 91.7225 166.15 92.668C166.652 92.668 167.177 92.668 167.725 92.668C168.273 92.2316 168.753 91.3588 168.136 90.7042C167.383 88.9586 165.534 88.4495 164.095 87.504C163.548 87.504 163 87.504 162.452 87.504Z" fill="black"/>
<path id="Vector_49" d="M222.378 92.3044C224.57 90.5588 227.172 89.0314 228.747 86.5585C229.569 86.6313 228.884 87.4313 228.747 87.7222C226.967 89.9769 224.638 91.5043 222.378 93.0317C221.077 92.959 219.091 93.5408 218.543 92.0135C219.776 92.4499 221.077 92.3771 222.378 92.3044Z" fill="black"/>
<path id="Vector_50" d="M106.566 88.2312C106.635 88.0858 106.703 87.8675 106.772 87.7948C109.443 88.7403 112.524 87.7221 115.127 89.2495C118.14 90.9223 121.565 91.1405 124.784 92.2315C127.523 92.8134 130.263 91.286 132.934 92.086C134.509 92.6679 136.016 93.5407 137.728 93.7589C140.673 94.1225 143.412 95.7226 146.357 96.3045C147.384 96.0136 148.275 95.2863 149.234 94.7771C149.371 96.0863 148.069 96.6682 147.111 97.1046C145.193 97.3955 143.481 96.0863 141.632 95.5045C139.714 94.6317 137.659 94.9953 135.673 94.4135C134.029 93.9044 132.523 92.8134 130.742 92.7406C129.372 92.9588 127.934 93.177 126.564 93.3952C124.784 93.2497 123.072 92.4497 121.359 92.0133C119.373 91.5042 117.456 91.2132 115.469 90.7041C114.031 90.2677 112.73 89.3949 111.223 89.3222C109.716 89.0313 108.278 89.104 106.84 88.5949C106.772 88.5222 106.635 88.304 106.566 88.2312Z" fill="black"/>
<path id="Vector_51" d="M152.316 95.941C152.521 95.941 153 96.0138 153.274 96.0865C154.096 96.9593 154.987 97.9048 156.014 98.6321C157.315 98.7776 158.48 98.123 159.644 97.8321C160.397 97.9048 160.945 98.5594 161.561 98.9958C162.155 98.9473 162.749 98.9473 163.342 98.9958C162.726 100.523 160.74 99.4322 159.849 98.7048C158.822 99.0685 157.726 99.4322 156.63 99.5776C154.918 99.214 153.548 97.9048 152.316 96.7411C152.316 96.5229 152.316 96.0865 152.316 95.941Z" fill="black"/>
<path id="Vector_52" d="M193.408 98.9231C194.161 98.5594 194.641 97.8321 195.052 97.032C195.143 97.4684 195.257 97.9291 195.394 98.414C193.682 100.741 190.395 100.887 188.066 99.6504C186.97 98.9231 185.874 100.087 184.779 100.305C182.998 100.596 181.149 100.741 179.368 100.378C179.3 100.232 179.163 99.9413 179.163 99.7958C180.806 99.5776 182.518 99.4322 184.162 99.0685C185.326 98.8503 186.422 97.9775 187.655 98.2685C188.682 98.6321 189.641 99.2867 190.737 99.2867C191.627 99.3595 192.518 99.1413 193.408 98.9231Z" fill="black"/>
<path id="Vector_53" d="M164.233 98.6319C164.735 98.4864 165.26 98.4864 165.808 98.6319C166.424 98.9956 167.041 99.3592 167.725 99.6502C168.753 99.9411 169.712 99.2138 170.739 99.5047C172.109 99.7229 173.41 100.087 174.848 100.159C174.78 100.305 174.643 100.596 174.643 100.814C173.341 100.959 172.04 100.814 170.807 100.596C169.712 100.305 168.547 101.178 167.451 100.668C166.356 100.159 165.191 99.5047 164.233 98.6319Z" fill="black"/>
<path id="Vector_54" fill-rule="evenodd" clip-rule="evenodd" d="M10.5471 114.124C7.05421 113.397 3.49285 112.597 0 111.797C0.205462 110.778 0.205462 109.687 0.342436 108.596C0.75336 107.578 1.1643 106.487 1.91766 105.614C1.91766 105.469 1.98615 105.178 1.98615 105.033C4.52018 105.469 6.98572 106.196 9.51975 106.705C66.0902 120.379 122.798 133.689 179.368 147.581C180.19 147.872 181.149 147.726 181.971 148.236C181.971 148.599 181.971 149.036 182.039 149.399C182.176 150.199 181.765 150.999 181.423 151.654C180.053 151.654 178.82 150.999 177.451 150.927C176.218 150.49 174.916 150.49 173.752 150.054C172.314 149.908 171.013 149.327 169.643 149.254C168.547 148.817 167.314 148.817 166.219 148.454C165.191 148.163 164.027 148.163 163 147.726C161.63 147.581 160.329 147.072 158.959 146.926C157.932 146.563 156.904 146.49 155.877 146.199C146.837 144.308 137.796 142.272 128.825 140.308C128.277 140.235 127.729 140.162 127.181 139.871C114.648 137.326 102.251 134.344 89.7183 131.725C88.828 131.362 87.8692 131.362 86.9788 131.071C61.5701 125.47 36.0243 119.797 10.5471 114.124ZM0.958838 111.069C2.05463 109.469 2.94496 107.578 2.87647 105.614C2.39706 105.978 1.84916 106.415 1.71218 106.996C1.02731 108.233 0.616402 109.615 0.616402 110.997C0.684889 111.069 0.890351 111.069 0.958838 111.069ZM7.67058 112.888C7.67058 112.888 7.69342 112.863 7.73907 112.815C8.56092 113.179 9.45125 113.179 10.3416 113.47C13.629 114.124 16.9164 114.924 20.2037 115.579C21.2311 116.015 22.3953 115.87 23.4227 116.306C26.6416 116.888 29.792 117.761 33.0109 118.415C34.1752 118.779 35.3394 118.706 36.4352 119.143C44.0373 120.743 51.5709 122.561 59.173 124.016C66.0217 125.689 72.9389 127.07 79.7877 128.671C113.62 136.017 147.453 143.435 181.217 151.145C181.309 150.369 181.377 149.569 181.423 148.745C180.532 148.163 179.368 148.381 178.409 147.945C168.342 145.545 158.206 143.217 148.069 140.671V140.744C115.333 132.962 82.5957 125.034 49.9272 117.106C49.2424 116.815 48.352 116.961 47.7356 116.524C38.5583 114.415 29.381 112.088 20.2722 109.978C14.6563 108.669 9.04032 107.142 3.42436 105.978C3.35588 107.942 2.60252 109.906 1.36975 111.433C3.49285 111.942 5.61596 112.306 7.67058 112.888Z" fill="black"/>
<path id="Vector_55" fill-rule="evenodd" clip-rule="evenodd" d="M202.722 143.217C202.585 143.508 202.243 143.872 201.832 143.726C167.794 133.325 133.824 122.634 99.7858 111.942C75.6098 104.378 51.4338 96.6684 27.2578 89.1769C26.299 88.886 25.2717 88.5951 24.3814 88.086C25.0662 87.7223 24.7923 86.8495 24.9977 86.1949C25.0662 84.8858 25.8196 83.722 26.573 82.7038C26.8469 82.4856 27.0524 82.1219 27.1209 81.7582C29.9288 82.4128 32.5313 83.5038 35.2708 84.3766C90.2661 102.778 145.398 120.888 200.394 139.435C201.284 139.871 202.311 139.944 203.133 140.453C202.996 141.326 203.27 142.417 202.722 143.217ZM202.106 143.29C202.288 142.514 202.425 141.714 202.517 140.89C199.229 139.58 195.805 138.635 192.449 137.471C149.165 123.216 105.95 108.597 62.7342 94.1955C51.2969 90.4134 39.928 86.4859 28.4221 82.7765C28.2851 84.3766 27.6003 85.7585 26.8469 87.0677C26.573 87.4071 26.2762 87.7223 25.9566 88.0132C76.2947 103.796 126.633 119.361 176.971 135.217C185.326 137.98 193.75 140.526 202.106 143.29ZM26.3675 86.6313C27.1209 85.3221 27.8742 83.9402 27.9427 82.4129C27.3948 82.7038 26.9154 83.1402 26.6415 83.722C25.8196 84.8857 25.3402 86.3404 25.2717 87.795C25.6826 87.5041 26.0935 87.1404 26.3675 86.6313Z" fill="black"/>
</g>
</svg>
