<svg width="404" height="158" viewBox="0 0 404 158" fill="none" xmlns="http://www.w3.org/2000/svg">
<mask id="path-1-inside-1_1_2605" fill="white">
<path fill-rule="evenodd" clip-rule="evenodd" d="M190.711 0.0341832C179.87 -0.296731 169.047 1.77981 156.591 7.19727C138.08 2.39928 125.207 0.129456 113.585 0.717777C101.926 1.30802 91.6081 4.76812 78.1953 11.2637C63.9588 11.0596 53.3337 12.4285 46.2353 16.1885C42.6393 18.0934 39.9325 20.6193 38.1348 23.8643C36.4481 26.9087 35.5947 30.5265 35.499 34.749C21.6114 37.7639 12.7275 42.6944 8.38476 48.7725C4.01034 54.8951 4.38556 61.9611 8.4707 68.8359C3.28211 75.8382 -0.315108 81.69 0.0214816 87.8018C0.364157 94.0222 4.73726 100.157 14.4307 107.851C13.7289 111.755 14.0108 115.131 15.2334 117.999C16.521 121.019 18.8077 123.378 21.8633 125.171C27.7481 128.623 36.6029 130.045 47.2344 130.124C47.4393 132.403 48.3559 134.312 49.8652 135.846C50.1314 136.116 50.4147 136.374 50.7142 136.619C49.6377 139.081 45.5182 144.907 36.9999 153.66C37.401 153.32 38.071 152.996 39.0185 152.537C42.0072 151.09 47.7569 148.305 56.5367 139.48C56.6269 139.506 56.7175 139.532 56.8086 139.557C62.274 141.063 69.6364 141.097 77.6436 140.103C77.8979 140.746 78.3472 141.361 78.8779 141.921C79.7373 142.828 80.9604 143.753 82.4687 144.644C85.4914 146.428 89.7883 148.15 94.9824 149.334C105.248 151.674 119.127 151.941 133.806 146.338C143.492 154.402 158.993 158.116 173.72 157.997C181.222 157.936 188.581 156.881 194.948 154.863C200.839 152.997 205.943 150.285 209.505 146.716C211.877 149.434 215.752 151.611 220.321 153.195C225.441 154.97 231.574 156.051 237.813 156.28C244.053 156.509 250.441 155.888 256.066 154.226C261.453 152.634 266.211 150.065 269.431 146.302C282.562 149.266 301.825 151.713 317.666 149.524C325.703 148.414 332.978 146.095 338.113 141.936C343.032 137.951 345.913 132.332 345.687 124.722C364.667 128.086 378.827 121.559 388.267 112.262C397.803 102.869 402.56 90.6062 402.613 82.8574C403.949 77.5605 402.619 68.8694 397.434 61.2227C392.244 53.5704 383.181 46.9338 369.004 45.6426C363.393 30.9755 351.261 22.9083 338.721 18.5557C326.171 14.2001 313.098 13.5186 305.39 13.6719C290.53 5.17213 278.484 1.53415 266.037 1.05567C253.634 0.578902 240.904 3.24504 224.727 7.21192C212.341 3.09906 201.544 0.364865 190.711 0.0341832ZM51.5325 137.23C52.6704 138.009 53.9935 138.64 55.4596 139.142C50.0666 144.51 45.8721 147.537 42.8095 149.382C42.4957 149.571 42.1923 149.746 41.9013 149.912C44.9143 146.595 47.169 143.825 48.7675 141.634C49.8994 140.082 50.7143 138.806 51.2382 137.821C51.3479 137.615 51.4457 137.418 51.5325 137.23ZM157.076 9.16602C169.429 3.74966 180.049 1.70962 190.65 2.03321C201.271 2.35747 211.929 5.05528 224.37 9.19922C224.549 9.25882 224.742 9.26663 224.925 9.22168C241.249 5.21359 253.802 2.5864 265.96 3.05371C278.078 3.51959 289.875 7.0657 304.635 15.543C304.793 15.6339 304.974 15.68 305.156 15.6758C312.701 15.5033 325.675 16.1453 338.064 20.4453C350.446 24.7426 362.124 32.6454 367.352 46.9287C367.486 47.2957 367.822 47.5511 368.212 47.582C382.144 48.6824 390.851 55.0796 395.778 62.3457C400.747 69.672 401.862 77.8516 400.649 82.4727C400.628 82.5554 400.616 82.641 400.616 82.7266C400.616 89.8443 396.139 101.701 386.863 110.837C377.643 119.918 363.723 126.269 344.819 122.524C344.513 122.464 344.197 122.55 343.963 122.757C343.729 122.964 343.605 123.268 343.628 123.579C344.19 131.213 341.524 136.599 336.854 140.382C332.128 144.211 325.27 146.456 317.393 147.544C301.648 149.719 282.304 147.216 269.278 144.217C268.904 144.131 268.512 144.267 268.272 144.567C265.397 148.167 260.884 150.717 255.5 152.308C250.125 153.896 243.958 154.504 237.887 154.281C231.816 154.058 225.882 153.007 220.977 151.306C216.038 149.593 212.28 147.272 210.387 144.611C210.21 144.364 209.931 144.209 209.628 144.192C209.324 144.175 209.03 144.298 208.827 144.524C205.576 148.159 200.504 151.005 194.345 152.957C188.198 154.905 181.04 155.938 173.704 155.997C158.989 156.116 143.79 152.323 134.654 144.435C134.374 144.192 133.982 144.125 133.637 144.26C119.173 149.92 105.485 149.677 95.4268 147.384C90.3943 146.236 86.2984 144.582 83.4853 142.921C82.0759 142.089 81.0199 141.273 80.3301 140.545C79.6095 139.784 79.42 139.259 79.4199 138.997C79.4199 138.709 79.2949 138.434 79.0781 138.244C78.8615 138.055 78.5735 137.968 78.2881 138.006C70.0308 139.105 62.6291 139.085 57.3398 137.628C54.7009 136.901 52.6607 135.835 51.29 134.442C49.9429 133.073 49.1905 131.339 49.1904 129.128C49.1904 128.576 48.7427 128.128 48.1904 128.128C37.2066 128.128 28.4535 126.718 22.876 123.446C20.1128 121.825 18.1609 119.766 17.0732 117.215C15.9836 114.659 15.7195 111.51 16.5049 107.641C16.58 107.27 16.439 106.889 16.1416 106.655C6.16964 98.8284 2.31513 93.0765 2.01855 87.6914C1.71913 82.2536 5.00283 76.8227 10.4756 69.4873C10.722 69.1567 10.7402 68.7089 10.5215 68.3594C6.41967 61.8043 6.0998 55.4122 10.0127 49.9356C14.0001 44.3548 22.5307 39.4983 36.6943 36.5371C37.1577 36.4402 37.4893 36.031 37.4893 35.5576C37.4893 31.2316 38.295 27.7009 39.8838 24.833C41.4683 21.973 43.8693 19.7054 47.1719 17.9561C53.8314 14.4286 64.0919 13.0433 78.4043 13.2656L78.5205 13.2607C78.6368 13.2489 78.7507 13.2173 78.8564 13.166C92.2603 6.6587 102.347 3.28984 113.687 2.71582C125.054 2.1404 137.763 4.36822 156.423 9.21778L156.588 9.2461C156.754 9.2605 156.922 9.23363 157.076 9.16602Z"/>
</mask>
<path fill-rule="evenodd" clip-rule="evenodd" d="M190.711 0.0341832C179.87 -0.296731 169.047 1.77981 156.591 7.19727C138.08 2.39928 125.207 0.129456 113.585 0.717777C101.926 1.30802 91.6081 4.76812 78.1953 11.2637C63.9588 11.0596 53.3337 12.4285 46.2353 16.1885C42.6393 18.0934 39.9325 20.6193 38.1348 23.8643C36.4481 26.9087 35.5947 30.5265 35.499 34.749C21.6114 37.7639 12.7275 42.6944 8.38476 48.7725C4.01034 54.8951 4.38556 61.9611 8.4707 68.8359C3.28211 75.8382 -0.315108 81.69 0.0214816 87.8018C0.364157 94.0222 4.73726 100.157 14.4307 107.851C13.7289 111.755 14.0108 115.131 15.2334 117.999C16.521 121.019 18.8077 123.378 21.8633 125.171C27.7481 128.623 36.6029 130.045 47.2344 130.124C47.4393 132.403 48.3559 134.312 49.8652 135.846C50.1314 136.116 50.4147 136.374 50.7142 136.619C49.6377 139.081 45.5182 144.907 36.9999 153.66C37.401 153.32 38.071 152.996 39.0185 152.537C42.0072 151.09 47.7569 148.305 56.5367 139.48C56.6269 139.506 56.7175 139.532 56.8086 139.557C62.274 141.063 69.6364 141.097 77.6436 140.103C77.8979 140.746 78.3472 141.361 78.8779 141.921C79.7373 142.828 80.9604 143.753 82.4687 144.644C85.4914 146.428 89.7883 148.15 94.9824 149.334C105.248 151.674 119.127 151.941 133.806 146.338C143.492 154.402 158.993 158.116 173.72 157.997C181.222 157.936 188.581 156.881 194.948 154.863C200.839 152.997 205.943 150.285 209.505 146.716C211.877 149.434 215.752 151.611 220.321 153.195C225.441 154.97 231.574 156.051 237.813 156.28C244.053 156.509 250.441 155.888 256.066 154.226C261.453 152.634 266.211 150.065 269.431 146.302C282.562 149.266 301.825 151.713 317.666 149.524C325.703 148.414 332.978 146.095 338.113 141.936C343.032 137.951 345.913 132.332 345.687 124.722C364.667 128.086 378.827 121.559 388.267 112.262C397.803 102.869 402.56 90.6062 402.613 82.8574C403.949 77.5605 402.619 68.8694 397.434 61.2227C392.244 53.5704 383.181 46.9338 369.004 45.6426C363.393 30.9755 351.261 22.9083 338.721 18.5557C326.171 14.2001 313.098 13.5186 305.39 13.6719C290.53 5.17213 278.484 1.53415 266.037 1.05567C253.634 0.578902 240.904 3.24504 224.727 7.21192C212.341 3.09906 201.544 0.364865 190.711 0.0341832ZM51.5325 137.23C52.6704 138.009 53.9935 138.64 55.4596 139.142C50.0666 144.51 45.8721 147.537 42.8095 149.382C42.4957 149.571 42.1923 149.746 41.9013 149.912C44.9143 146.595 47.169 143.825 48.7675 141.634C49.8994 140.082 50.7143 138.806 51.2382 137.821C51.3479 137.615 51.4457 137.418 51.5325 137.23ZM157.076 9.16602C169.429 3.74966 180.049 1.70962 190.65 2.03321C201.271 2.35747 211.929 5.05528 224.37 9.19922C224.549 9.25882 224.742 9.26663 224.925 9.22168C241.249 5.21359 253.802 2.5864 265.96 3.05371C278.078 3.51959 289.875 7.0657 304.635 15.543C304.793 15.6339 304.974 15.68 305.156 15.6758C312.701 15.5033 325.675 16.1453 338.064 20.4453C350.446 24.7426 362.124 32.6454 367.352 46.9287C367.486 47.2957 367.822 47.5511 368.212 47.582C382.144 48.6824 390.851 55.0796 395.778 62.3457C400.747 69.672 401.862 77.8516 400.649 82.4727C400.628 82.5554 400.616 82.641 400.616 82.7266C400.616 89.8443 396.139 101.701 386.863 110.837C377.643 119.918 363.723 126.269 344.819 122.524C344.513 122.464 344.197 122.55 343.963 122.757C343.729 122.964 343.605 123.268 343.628 123.579C344.19 131.213 341.524 136.599 336.854 140.382C332.128 144.211 325.27 146.456 317.393 147.544C301.648 149.719 282.304 147.216 269.278 144.217C268.904 144.131 268.512 144.267 268.272 144.567C265.397 148.167 260.884 150.717 255.5 152.308C250.125 153.896 243.958 154.504 237.887 154.281C231.816 154.058 225.882 153.007 220.977 151.306C216.038 149.593 212.28 147.272 210.387 144.611C210.21 144.364 209.931 144.209 209.628 144.192C209.324 144.175 209.03 144.298 208.827 144.524C205.576 148.159 200.504 151.005 194.345 152.957C188.198 154.905 181.04 155.938 173.704 155.997C158.989 156.116 143.79 152.323 134.654 144.435C134.374 144.192 133.982 144.125 133.637 144.26C119.173 149.92 105.485 149.677 95.4268 147.384C90.3943 146.236 86.2984 144.582 83.4853 142.921C82.0759 142.089 81.0199 141.273 80.3301 140.545C79.6095 139.784 79.42 139.259 79.4199 138.997C79.4199 138.709 79.2949 138.434 79.0781 138.244C78.8615 138.055 78.5735 137.968 78.2881 138.006C70.0308 139.105 62.6291 139.085 57.3398 137.628C54.7009 136.901 52.6607 135.835 51.29 134.442C49.9429 133.073 49.1905 131.339 49.1904 129.128C49.1904 128.576 48.7427 128.128 48.1904 128.128C37.2066 128.128 28.4535 126.718 22.876 123.446C20.1128 121.825 18.1609 119.766 17.0732 117.215C15.9836 114.659 15.7195 111.51 16.5049 107.641C16.58 107.27 16.439 106.889 16.1416 106.655C6.16964 98.8284 2.31513 93.0765 2.01855 87.6914C1.71913 82.2536 5.00283 76.8227 10.4756 69.4873C10.722 69.1567 10.7402 68.7089 10.5215 68.3594C6.41967 61.8043 6.0998 55.4122 10.0127 49.9356C14.0001 44.3548 22.5307 39.4983 36.6943 36.5371C37.1577 36.4402 37.4893 36.031 37.4893 35.5576C37.4893 31.2316 38.295 27.7009 39.8838 24.833C41.4683 21.973 43.8693 19.7054 47.1719 17.9561C53.8314 14.4286 64.0919 13.0433 78.4043 13.2656L78.5205 13.2607C78.6368 13.2489 78.7507 13.2173 78.8564 13.166C92.2603 6.6587 102.347 3.28984 113.687 2.71582C125.054 2.1404 137.763 4.36822 156.423 9.21778L156.588 9.2461C156.754 9.2605 156.922 9.23363 157.076 9.16602Z" fill="white"/>
<path d="M156.591 7.19727L156.34 8.16528C156.556 8.22132 156.785 8.20337 156.99 8.1143L156.591 7.19727ZM190.711 0.0341832L190.741 -0.965351L190.741 -0.965351L190.711 0.0341832ZM113.585 0.717777L113.534 -0.280944L113.534 -0.280944L113.585 0.717777ZM78.1953 11.2637L78.181 12.2636C78.3368 12.2658 78.4909 12.2316 78.6312 12.1637L78.1953 11.2637ZM46.2353 16.1885L45.7673 15.3048L45.7673 15.3048L46.2353 16.1885ZM38.1348 23.8643L37.26 23.3797L37.26 23.3797L38.1348 23.8643ZM35.499 34.749L35.7112 35.7263C36.1627 35.6282 36.4883 35.2336 36.4988 34.7717L35.499 34.749ZM8.38476 48.7725L7.57111 48.1911L7.5711 48.1911L8.38476 48.7725ZM8.4707 68.8359L9.27416 69.4313C9.51404 69.1076 9.53621 68.6715 9.33038 68.3251L8.4707 68.8359ZM0.0214816 87.8018L-0.977005 87.8568L-0.977004 87.8568L0.0214816 87.8018ZM14.4307 107.851L15.4149 108.028C15.48 107.665 15.3407 107.296 15.0523 107.067L14.4307 107.851ZM15.2334 117.999L14.3135 118.391L14.3135 118.391L15.2334 117.999ZM21.8633 125.171L21.3573 126.033L21.3573 126.033L21.8633 125.171ZM47.2344 130.124L48.2304 130.034C48.1842 129.522 47.7565 129.128 47.2418 129.124L47.2344 130.124ZM49.8652 135.846L49.1525 136.547L49.1525 136.547L49.8652 135.846ZM50.7142 136.619L51.6305 137.019C51.81 136.608 51.6943 136.128 51.3474 135.845L50.7142 136.619ZM36.9999 153.66L36.2833 152.963C35.9111 153.345 35.9048 153.952 36.269 154.343C36.6331 154.733 37.2395 154.768 37.6465 154.423L36.9999 153.66ZM39.0185 152.537L39.4544 153.437L39.4544 153.437L39.0185 152.537ZM56.5367 139.48L56.8134 138.519C56.4628 138.418 56.0851 138.516 55.8278 138.775L56.5367 139.48ZM56.8086 139.557L56.5429 140.521L56.543 140.521L56.8086 139.557ZM77.6436 140.103L78.5735 139.735C78.4059 139.311 77.9727 139.054 77.5203 139.11L77.6436 140.103ZM78.8779 141.921L78.1519 142.609L78.1519 142.609L78.8779 141.921ZM82.4687 144.644L81.9603 145.505L81.9603 145.505L82.4687 144.644ZM94.9824 149.334L94.7601 150.309L94.7601 150.309L94.9824 149.334ZM133.806 146.338L134.445 145.569C134.168 145.338 133.787 145.275 133.449 145.404L133.806 146.338ZM173.72 157.997L173.728 158.997L173.728 158.997L173.72 157.997ZM194.948 154.863L195.25 155.817L195.25 155.817L194.948 154.863ZM209.505 146.716L210.258 146.058C210.076 145.849 209.815 145.726 209.538 145.716C209.261 145.707 208.993 145.813 208.797 146.009L209.505 146.716ZM220.321 153.195L219.994 154.14L219.994 154.14L220.321 153.195ZM237.813 156.28L237.777 157.28L237.777 157.28L237.813 156.28ZM256.066 154.226L256.35 155.185L256.35 155.185L256.066 154.226ZM269.431 146.302L269.651 145.326C269.289 145.245 268.912 145.37 268.671 145.652L269.431 146.302ZM317.666 149.524L317.803 150.515L317.803 150.515L317.666 149.524ZM338.113 141.936L338.743 142.713L338.743 142.713L338.113 141.936ZM345.687 124.722L345.861 123.737C345.565 123.685 345.26 123.768 345.033 123.965C344.805 124.162 344.678 124.451 344.687 124.751L345.687 124.722ZM388.267 112.262L388.968 112.974L388.968 112.974L388.267 112.262ZM402.613 82.8574L401.644 82.6129C401.624 82.6906 401.614 82.7704 401.613 82.8505L402.613 82.8574ZM397.434 61.2227L398.261 60.6614L398.261 60.6614L397.434 61.2227ZM369.004 45.6426L368.07 45.9999C368.206 46.3562 368.533 46.6039 368.913 46.6385L369.004 45.6426ZM338.721 18.5557L339.049 17.611L339.049 17.611L338.721 18.5557ZM305.39 13.6719L304.893 14.5399C305.05 14.6297 305.229 14.6753 305.41 14.6717L305.39 13.6719ZM266.037 1.05567L266.076 0.0564057L266.076 0.0564056L266.037 1.05567ZM224.727 7.21192L224.411 8.16096C224.59 8.22029 224.782 8.22798 224.965 8.18314L224.727 7.21192ZM55.4596 139.142L56.1651 139.85C56.41 139.606 56.5117 139.253 56.434 138.917C56.3564 138.58 56.1104 138.307 55.7835 138.195L55.4596 139.142ZM51.5325 137.23L52.097 136.405C51.8542 136.239 51.5506 136.188 51.267 136.266C50.9835 136.344 50.7486 136.543 50.625 136.81L51.5325 137.23ZM42.8095 149.382L43.3254 150.238L43.3254 150.238L42.8095 149.382ZM41.9013 149.912L41.1611 149.24C40.8305 149.604 40.8135 150.154 41.1211 150.538C41.4287 150.921 41.9695 151.024 42.3967 150.781L41.9013 149.912ZM48.7675 141.634L49.5754 142.223L49.5754 142.223L48.7675 141.634ZM51.2382 137.821L50.3555 137.351L50.3555 137.351L51.2382 137.821ZM190.65 2.03321L190.681 1.03367L190.681 1.03367L190.65 2.03321ZM157.076 9.16602L156.675 8.25019L156.675 8.2502L157.076 9.16602ZM224.37 9.19922L224.054 10.148L224.054 10.148L224.37 9.19922ZM224.925 9.22168L225.163 10.1929L225.163 10.1928L224.925 9.22168ZM265.96 3.05371L265.998 2.05445L265.998 2.05445L265.96 3.05371ZM304.635 15.543L304.137 16.4101L304.137 16.4101L304.635 15.543ZM305.156 15.6758L305.133 14.676L305.133 14.676L305.156 15.6758ZM338.064 20.4453L338.392 19.5006L338.392 19.5006L338.064 20.4453ZM367.352 46.9287L366.412 47.2724L366.413 47.2726L367.352 46.9287ZM368.212 47.582L368.133 48.5789L368.133 48.5789L368.212 47.582ZM395.778 62.3457L396.606 61.7844L396.606 61.7844L395.778 62.3457ZM400.649 82.4727L399.682 82.2188L399.682 82.219L400.649 82.4727ZM400.616 82.7266L401.616 82.7266V82.7266H400.616ZM386.863 110.837L387.565 111.549L387.565 111.549L386.863 110.837ZM344.819 122.524L345.014 121.543L345.013 121.543L344.819 122.524ZM343.963 122.757L343.3 122.008L343.3 122.008L343.963 122.757ZM343.628 123.579L344.625 123.506L344.625 123.506L343.628 123.579ZM336.854 140.382L337.484 141.159L337.484 141.159L336.854 140.382ZM317.393 147.544L317.529 148.535L317.529 148.535L317.393 147.544ZM269.278 144.217L269.503 143.242L269.503 143.242L269.278 144.217ZM268.272 144.567L269.054 145.192L269.054 145.191L268.272 144.567ZM255.5 152.308L255.783 153.267L255.783 153.267L255.5 152.308ZM237.887 154.281L237.85 155.281L237.85 155.281L237.887 154.281ZM220.977 151.306L220.649 152.25L220.649 152.25L220.977 151.306ZM210.387 144.611L211.201 144.031L211.201 144.031L210.387 144.611ZM209.628 144.192L209.684 143.194L209.684 143.194L209.628 144.192ZM208.827 144.524L208.082 143.858L208.082 143.858L208.827 144.524ZM194.345 152.957L194.647 153.91L194.647 153.91L194.345 152.957ZM173.704 155.997L173.712 156.997L173.712 156.997L173.704 155.997ZM134.654 144.435L135.308 143.678L135.308 143.678L134.654 144.435ZM133.637 144.26L133.273 143.328L133.272 143.329L133.637 144.26ZM95.4268 147.384L95.2045 148.359L95.2045 148.359L95.4268 147.384ZM83.4853 142.921L82.9769 143.782L82.9769 143.782L83.4853 142.921ZM80.3301 140.545L79.604 141.233L79.604 141.233L80.3301 140.545ZM79.4199 138.997L78.4199 138.997L78.4199 138.997L79.4199 138.997ZM79.0781 138.244L79.737 137.492L79.7366 137.492L79.0781 138.244ZM78.2881 138.006L78.1566 137.015L78.1562 137.015L78.2881 138.006ZM57.3398 137.628L57.0742 138.592L57.0742 138.592L57.3398 137.628ZM51.29 134.442L50.5773 135.144L50.5773 135.144L51.29 134.442ZM49.1904 129.128L48.1904 129.128L48.1904 129.128L49.1904 129.128ZM48.1904 128.128L48.1905 127.128L48.1904 127.128L48.1904 128.128ZM22.876 123.446L22.37 124.309L22.37 124.309L22.876 123.446ZM17.0732 117.215L16.1533 117.607L16.1533 117.607L17.0732 117.215ZM16.5049 107.641L17.4849 107.84L17.4849 107.839L16.5049 107.641ZM16.1416 106.655L16.7591 105.869L16.759 105.869L16.1416 106.655ZM2.01855 87.6914L1.02006 87.7464L1.02007 87.7464L2.01855 87.6914ZM10.4756 69.4873L11.2771 70.0853L11.2773 70.085L10.4756 69.4873ZM10.5215 68.3594L11.3692 67.829L11.3692 67.8289L10.5215 68.3594ZM10.0127 49.9356L9.19904 49.3542L9.19903 49.3542L10.0127 49.9356ZM36.6943 36.5371L36.899 37.5159L36.8991 37.5159L36.6943 36.5371ZM37.4893 35.5576L36.4893 35.5576V35.5576H37.4893ZM39.8838 24.833L39.0091 24.3484L39.0091 24.3484L39.8838 24.833ZM47.1719 17.9561L46.7038 17.0724L46.7038 17.0724L47.1719 17.9561ZM78.4043 13.2656L78.3888 14.2655C78.4079 14.2658 78.4271 14.2656 78.4463 14.2647L78.4043 13.2656ZM78.5205 13.2607L78.5625 14.2599C78.5822 14.259 78.6019 14.2576 78.6216 14.2556L78.5205 13.2607ZM78.8564 13.166L78.4197 12.2664L78.4197 12.2664L78.8564 13.166ZM113.687 2.71582L113.636 1.7171L113.636 1.7171L113.687 2.71582ZM156.423 9.21778L156.171 10.1856C156.199 10.1927 156.226 10.1986 156.254 10.2034L156.423 9.21778ZM156.588 9.2461L156.419 10.2317C156.446 10.2364 156.474 10.2399 156.501 10.2424L156.588 9.2461ZM156.591 7.19727L156.99 8.1143C169.328 2.74844 180.004 0.707826 190.68 1.03372L190.711 0.0341832L190.741 -0.965351C179.735 -1.30129 168.767 0.811188 156.192 6.28024L156.591 7.19727ZM113.585 0.717777L113.636 1.7165C125.096 1.13634 137.845 3.37139 156.34 8.16528L156.591 7.19727L156.842 6.22926C138.315 1.42717 125.317 -0.877424 113.534 -0.280944L113.585 0.717777ZM78.1953 11.2637L78.6312 12.1637C91.987 5.69574 102.166 2.29713 113.636 1.7165L113.585 0.717777L113.534 -0.280944C101.686 0.3189 91.2293 3.8405 77.7595 10.3637L78.1953 11.2637ZM46.2353 16.1885L46.7034 17.0722C53.5634 13.4385 63.9677 12.0598 78.181 12.2636L78.1953 11.2637L78.2096 10.2638C63.9499 10.0593 53.1039 11.4186 45.7673 15.3048L46.2353 16.1885ZM38.1348 23.8643L39.0095 24.3489C40.7006 21.2964 43.2541 18.8993 46.7034 17.0722L46.2353 16.1885L45.7673 15.3048C42.0244 17.2874 39.1644 19.9422 37.26 23.3797L38.1348 23.8643ZM35.499 34.749L36.4988 34.7717C36.5917 30.6701 37.419 27.2198 39.0095 24.3489L38.1348 23.8643L37.26 23.3797C35.4773 26.5976 34.5977 30.3829 34.4993 34.7264L35.499 34.749ZM8.38476 48.7725L9.19842 49.3538C13.3261 43.5767 21.9132 38.7217 35.7112 35.7263L35.499 34.749L35.2869 33.7718C21.3096 36.8062 12.1289 41.8121 7.57111 48.1911L8.38476 48.7725ZM8.4707 68.8359L9.33038 68.3251C5.39763 61.7067 5.10677 55.0807 9.19843 49.3538L8.38476 48.7725L7.5711 48.1911C2.91391 54.7095 3.37349 62.2155 7.61102 69.3468L8.4707 68.8359ZM0.0214816 87.8018L1.01997 87.7468C0.705888 82.0438 4.05945 76.4688 9.27416 69.4313L8.4707 68.8359L7.66724 68.2406C2.50477 75.2076 -1.3361 81.3363 -0.977005 87.8568L0.0214816 87.8018ZM14.4307 107.851L15.0523 107.067C5.39102 99.3995 1.33719 93.5051 1.01997 87.7468L0.0214816 87.8018L-0.977004 87.8568C-0.608873 94.5392 4.0835 100.915 13.809 108.634L14.4307 107.851ZM15.2334 117.999L16.1533 117.607C15.0239 114.957 14.7392 111.787 15.4149 108.028L14.4307 107.851L13.4464 107.674C12.7186 111.723 12.9976 115.304 14.3135 118.391L15.2334 117.999ZM21.8633 125.171L22.3693 124.308C19.4598 122.602 17.3409 120.393 16.1533 117.607L15.2334 117.999L14.3135 118.391C15.7011 121.646 18.1555 124.155 21.3573 126.033L21.8633 125.171ZM47.2344 130.124L47.2418 129.124C36.6502 129.045 28.0179 127.622 22.3693 124.308L21.8633 125.171L21.3573 126.033C27.4782 129.624 36.5556 131.044 47.2269 131.124L47.2344 130.124ZM49.8652 135.846L50.578 135.144C49.2294 133.774 48.4144 132.08 48.2304 130.034L47.2344 130.124L46.2384 130.214C46.4643 132.725 47.4823 134.85 49.1525 136.547L49.8652 135.846ZM50.7142 136.619L51.3474 135.845C51.0745 135.621 50.8178 135.388 50.5779 135.144L49.8652 135.846L49.1525 136.547C49.445 136.844 49.755 137.126 50.081 137.393L50.7142 136.619ZM36.9999 153.66L37.7166 154.358C41.9957 149.96 45.1803 146.288 47.4363 143.395C49.6782 140.521 51.0406 138.369 51.6305 137.019L50.7142 136.619L49.7979 136.218C49.3113 137.331 48.0757 139.323 45.8592 142.166C43.6568 144.99 40.5224 148.607 36.2833 152.963L36.9999 153.66ZM39.0185 152.537L38.5827 151.637C37.6927 152.068 36.8758 152.454 36.3533 152.897L36.9999 153.66L37.6465 154.423C37.9262 154.186 38.4493 153.924 39.4544 153.437L39.0185 152.537ZM56.5367 139.48L55.8278 138.775C47.1468 147.5 41.4981 150.225 38.5827 151.637L39.0185 152.537L39.4544 153.437C42.5162 151.954 48.367 149.11 57.2457 140.185L56.5367 139.48ZM56.8086 139.557L57.0743 138.593C56.9867 138.568 56.8998 138.544 56.8134 138.519L56.5367 139.48L56.2601 140.441C56.354 140.468 56.4483 140.495 56.5429 140.521L56.8086 139.557ZM77.6436 140.103L77.5203 139.11C69.564 140.098 62.3539 140.047 57.0742 138.593L56.8086 139.557L56.543 140.521C62.1942 142.078 69.7088 142.096 77.7668 141.095L77.6436 140.103ZM78.8779 141.921L79.604 141.233C79.1221 140.724 78.7639 140.216 78.5735 139.735L77.6436 140.103L76.7136 140.47C77.032 141.276 77.5724 141.997 78.1519 142.609L78.8779 141.921ZM82.4687 144.644L82.9772 143.782C81.5182 142.921 80.3785 142.051 79.604 141.233L78.8779 141.921L78.1519 142.609C79.0961 143.605 80.4027 144.585 81.9603 145.505L82.4687 144.644ZM94.9824 149.334L95.2047 148.359C90.0915 147.193 85.895 145.505 82.9771 143.782L82.4687 144.644L81.9603 145.505C85.0879 147.351 89.4851 149.106 94.7601 150.309L94.9824 149.334ZM133.806 146.338L133.449 145.404C118.979 150.927 105.303 150.661 95.2047 148.359L94.9824 149.334L94.7601 150.309C105.192 152.687 119.276 152.954 134.162 147.272L133.806 146.338ZM173.72 157.997L173.712 156.997C159.109 157.115 143.879 153.423 134.445 145.569L133.806 146.338L133.166 147.106C143.105 155.381 158.878 159.117 173.728 158.997L173.72 157.997ZM194.948 154.863L194.646 153.91C188.389 155.893 181.131 156.937 173.712 156.997L173.72 157.997L173.728 158.997C181.313 158.936 188.773 157.869 195.25 155.817L194.948 154.863ZM209.505 146.716L208.797 146.009C205.386 149.428 200.444 152.073 194.646 153.91L194.948 154.863L195.25 155.817C201.235 153.92 206.501 151.142 210.213 147.422L209.505 146.716ZM220.321 153.195L220.649 152.251C216.156 150.693 212.467 148.589 210.258 146.058L209.505 146.716L208.751 147.373C211.287 150.279 215.349 152.53 219.994 154.14L220.321 153.195ZM237.813 156.28L237.85 155.281C231.695 155.055 225.661 153.989 220.649 152.25L220.321 153.195L219.994 154.14C225.22 155.952 231.453 157.048 237.777 157.28L237.813 156.28ZM256.066 154.226L255.783 153.267C250.283 154.892 244.005 155.507 237.85 155.281L237.813 156.28L237.777 157.28C244.1 157.512 250.6 156.883 256.35 155.185L256.066 154.226ZM269.431 146.302L268.671 145.652C265.618 149.219 261.057 151.708 255.783 153.267L256.066 154.226L256.35 155.185C261.849 153.56 266.803 150.91 270.19 146.952L269.431 146.302ZM317.666 149.524L317.529 148.534C301.856 150.699 282.726 148.278 269.651 145.326L269.431 146.302L269.21 147.277C282.398 150.254 301.793 152.727 317.803 150.515L317.666 149.524ZM338.113 141.936L337.484 141.159C332.553 145.153 325.486 147.434 317.529 148.534L317.666 149.524L317.803 150.515C325.92 149.394 333.404 147.038 338.743 142.713L338.113 141.936ZM345.687 124.722L344.687 124.751C344.904 132.051 342.159 137.371 337.484 141.159L338.113 141.936L338.743 142.713C343.905 138.531 346.922 132.613 346.686 124.692L345.687 124.722ZM388.267 112.262L387.565 111.549C378.333 120.643 364.492 127.04 345.861 123.737L345.687 124.722L345.512 125.706C364.843 129.133 379.322 122.475 388.968 112.974L388.267 112.262ZM402.613 82.8574L401.613 82.8505C401.562 90.2922 396.944 102.311 387.565 111.549L388.267 112.262L388.968 112.974C398.662 103.427 403.558 90.9202 403.613 82.8643L402.613 82.8574ZM397.434 61.2227L396.606 61.7839C401.663 69.2411 402.897 77.6428 401.644 82.6129L402.613 82.8574L403.583 83.1019C405.001 77.4782 403.576 68.4976 398.261 60.6614L397.434 61.2227ZM369.004 45.6426L368.913 46.6385C382.788 47.9023 391.583 54.3771 396.606 61.7839L397.434 61.2227L398.261 60.6614C392.905 52.7637 383.573 45.9654 369.095 44.6467L369.004 45.6426ZM338.721 18.5557L338.393 19.5004C350.772 23.7968 362.602 31.7061 368.07 45.9999L369.004 45.6426L369.938 45.2853C364.184 30.2448 351.751 22.0198 339.049 17.611L338.721 18.5557ZM305.39 13.6719L305.41 14.6717C313.056 14.5196 325.998 15.1985 338.393 19.5004L338.721 18.5557L339.049 17.611C326.344 13.2016 313.14 12.5176 305.37 12.6721L305.39 13.6719ZM266.037 1.05567L265.999 2.05493C278.249 2.52586 290.139 6.10055 304.893 14.5399L305.39 13.6719L305.886 12.8038C290.921 4.24371 278.718 0.542435 266.076 0.0564057L266.037 1.05567ZM224.727 7.21192L224.965 8.18314C241.148 4.21473 253.753 1.5842 265.999 2.05493L266.037 1.05567L266.076 0.0564056C253.516 -0.426399 240.66 2.27534 224.488 6.24069L224.727 7.21192ZM190.711 0.0341832L190.68 1.03372C201.368 1.35996 212.056 4.05817 224.411 8.16096L224.727 7.21192L225.042 6.26287C212.626 2.13995 201.72 -0.630233 190.741 -0.965351L190.711 0.0341832ZM55.4596 139.142L55.7835 138.195C54.3841 137.716 53.1459 137.122 52.097 136.405L51.5325 137.23L50.968 138.056C52.1949 138.895 53.6029 139.563 55.1357 140.088L55.4596 139.142ZM42.8095 149.382L43.3254 150.238C46.4621 148.349 50.7195 145.271 56.1651 139.85L55.4596 139.142L54.7541 138.433C49.4137 143.749 45.2822 146.725 42.2936 148.525L42.8095 149.382ZM41.9013 149.912L42.3967 150.781C42.691 150.613 43.0019 150.433 43.3254 150.238L42.8095 149.382L42.2936 148.525C41.9894 148.708 41.6937 148.879 41.4059 149.043L41.9013 149.912ZM48.7675 141.634L47.9597 141.044C46.3868 143.2 44.156 145.943 41.1611 149.24L41.9013 149.912L42.6415 150.585C45.6726 147.248 47.9512 144.449 49.5754 142.223L48.7675 141.634ZM51.2382 137.821L50.3555 137.351C49.8614 138.28 49.0755 139.515 47.9597 141.044L48.7675 141.634L49.5754 142.223C50.7233 140.65 51.5672 139.331 52.121 138.291L51.2382 137.821ZM51.5325 137.23L50.625 136.81C50.5461 136.981 50.4566 137.162 50.3555 137.351L51.2382 137.821L52.121 138.291C52.2393 138.069 52.3454 137.855 52.4399 137.651L51.5325 137.23ZM190.65 2.03321L190.681 1.03367C179.914 0.705017 169.146 2.7817 156.675 8.25019L157.076 9.16602L157.478 10.0818C169.711 4.71762 180.185 2.71422 190.62 3.03274L190.65 2.03321ZM224.37 9.19922L224.686 8.25047C212.215 4.09665 201.448 1.3624 190.681 1.03367L190.65 2.03321L190.62 3.03274C201.094 3.35254 211.642 6.01392 224.054 10.148L224.37 9.19922ZM224.925 9.22168L224.686 8.2505L224.686 8.25045L224.37 9.19922L224.054 10.148C224.412 10.2671 224.797 10.2828 225.163 10.1929L224.925 9.22168ZM265.96 3.05371L265.998 2.05445C253.682 1.58108 241.003 4.24426 224.686 8.25053L224.925 9.22168L225.163 10.1928C241.495 6.18291 253.921 3.59173 265.922 4.05298L265.96 3.05371ZM304.635 15.543L305.133 14.6758C290.268 6.13803 278.314 2.52792 265.998 2.05445L265.96 3.05371L265.922 4.05298C277.842 4.51125 289.482 7.99338 304.137 16.4101L304.635 15.543ZM305.156 15.6758L305.133 14.676L305.133 14.6758L304.635 15.543L304.137 16.4101C304.453 16.5918 304.814 16.6839 305.179 16.6755L305.156 15.6758ZM338.064 20.4453L338.392 19.5006C325.847 15.1463 312.741 14.5021 305.133 14.676L305.156 15.6758L305.179 16.6755C312.662 16.5045 325.504 17.1443 337.737 21.39L338.064 20.4453ZM367.352 46.9287L368.291 46.585C362.924 31.9198 350.938 23.8551 338.392 19.5006L338.064 20.4453L337.737 21.39C349.953 25.63 361.325 33.3709 366.412 47.2724L367.352 46.9287ZM368.212 47.582L368.291 46.5852L368.291 46.5848L367.352 46.9287L366.413 47.2726C366.681 48.0066 367.354 48.5171 368.133 48.5789L368.212 47.582ZM395.778 62.3457L396.606 61.7844C391.509 54.2684 382.527 47.7096 368.291 46.5851L368.212 47.582L368.133 48.5789C381.76 49.6553 390.192 55.8907 394.951 62.907L395.778 62.3457ZM400.649 82.4727L401.617 82.7266C402.917 77.7738 401.703 69.3005 396.606 61.7844L395.778 62.3457L394.951 62.907C399.79 70.0434 400.808 77.9295 399.682 82.2188L400.649 82.4727ZM400.616 82.7266H401.616L401.617 82.7263L400.649 82.4727L399.682 82.219C399.64 82.381 399.616 82.5518 399.616 82.7266H400.616ZM386.863 110.837L387.565 111.549C396.998 102.258 401.616 90.1559 401.616 82.7266L400.616 82.7266L399.616 82.7265C399.616 89.5327 395.28 101.143 386.162 110.124L386.863 110.837ZM344.819 122.524L344.625 123.505C363.883 127.32 378.132 120.841 387.565 111.549L386.863 110.837L386.162 110.124C377.155 118.996 363.563 125.218 345.014 121.543L344.819 122.524ZM343.963 122.757L344.625 123.506L344.625 123.505L344.819 122.524L345.013 121.543C344.4 121.422 343.767 121.595 343.3 122.008L343.963 122.757ZM343.628 123.579L344.625 123.506L344.626 123.506L343.963 122.757L343.3 122.008C342.833 122.421 342.585 123.029 342.631 123.653L343.628 123.579ZM336.854 140.382L337.484 141.159C342.415 137.164 345.21 131.457 344.625 123.506L343.628 123.579L342.631 123.652C343.169 130.969 340.633 136.034 336.225 139.605L336.854 140.382ZM317.393 147.544L317.529 148.535C325.487 147.435 332.553 145.153 337.484 141.159L336.854 140.382L336.225 139.605C331.702 143.269 325.053 145.476 317.256 146.553L317.393 147.544ZM269.278 144.217L269.054 145.191C282.137 148.203 301.615 150.733 317.529 148.535L317.393 147.544L317.256 146.553C301.681 148.705 282.471 146.228 269.503 143.242L269.278 144.217ZM268.272 144.567L269.054 145.191L269.054 145.191L269.278 144.217L269.503 143.242C268.753 143.07 267.971 143.343 267.491 143.943L268.272 144.567ZM255.5 152.308L255.783 153.267C261.283 151.642 266.007 149.006 269.054 145.192L268.272 144.567L267.491 143.943C264.787 147.328 260.485 149.792 255.217 151.349L255.5 152.308ZM237.887 154.281L237.85 155.281C244.005 155.506 250.283 154.892 255.783 153.267L255.5 152.308L255.217 151.349C249.966 152.9 243.911 153.502 237.923 153.282L237.887 154.281ZM220.977 151.306L220.649 152.25C225.662 153.989 231.695 155.055 237.85 155.281L237.887 154.281L237.923 153.282C231.937 153.062 226.103 152.025 221.304 150.361L220.977 151.306ZM210.387 144.611L209.572 145.191C211.644 148.103 215.636 150.512 220.649 152.25L220.977 151.306L221.304 150.361C216.44 148.674 212.917 146.441 211.201 144.031L210.387 144.611ZM209.628 144.192L209.572 145.191L209.572 145.191L210.387 144.611L211.201 144.031C210.85 143.537 210.292 143.228 209.684 143.194L209.628 144.192ZM208.827 144.524L209.572 145.191L209.572 145.191L209.628 144.192L209.684 143.194C209.076 143.16 208.487 143.405 208.082 143.858L208.827 144.524ZM194.345 152.957L194.647 153.91C200.904 151.928 206.16 149.006 209.572 145.191L208.827 144.524L208.082 143.858C204.993 147.311 200.104 150.083 194.043 152.004L194.345 152.957ZM173.704 155.997L173.712 156.997C181.131 156.937 188.39 155.893 194.647 153.91L194.345 152.957L194.043 152.004C188.006 153.917 180.949 154.938 173.696 154.997L173.704 155.997ZM134.654 144.435L134.001 145.191C143.394 153.303 158.874 157.117 173.712 156.997L173.704 155.997L173.696 154.997C159.104 155.115 144.186 151.344 135.308 143.678L134.654 144.435ZM133.637 144.26L134.001 145.191L134.001 145.191L134.654 144.435L135.308 143.678C134.747 143.193 133.964 143.058 133.273 143.328L133.637 144.26ZM95.4268 147.384L95.2045 148.359C105.431 150.69 119.327 150.934 134.001 145.191L133.637 144.26L133.272 143.329C119.019 148.907 105.538 148.663 95.649 146.409L95.4268 147.384ZM83.4853 142.921L82.9769 143.782C85.8948 145.505 90.0911 147.193 95.2045 148.359L95.4268 147.384L95.6491 146.409C90.6976 145.28 86.702 143.659 83.9938 142.06L83.4853 142.921ZM80.3301 140.545L79.604 141.233C80.3786 142.05 81.5181 142.921 82.9769 143.782L83.4853 142.921L83.9938 142.06C82.6338 141.257 81.6612 140.496 81.0561 139.857L80.3301 140.545ZM79.4199 138.997L78.4199 138.997C78.4201 139.649 78.829 140.414 79.604 141.233L80.3301 140.545L81.0562 139.857C80.7423 139.526 80.5739 139.277 80.4882 139.115C80.3963 138.942 80.4199 138.909 80.4199 138.997L79.4199 138.997ZM79.0781 138.244L78.4193 138.996L78.4199 138.997H79.4199H80.4199C80.4199 138.42 80.17 137.871 79.737 137.492L79.0781 138.244ZM78.2881 138.006L78.4195 138.997L78.4197 138.997L79.0781 138.244L79.7366 137.492C79.3024 137.112 78.7263 136.939 78.1566 137.015L78.2881 138.006ZM57.3398 137.628L57.0742 138.592C62.5545 140.102 70.1126 140.102 78.42 138.997L78.2881 138.006L78.1562 137.015C69.9489 138.107 62.7038 138.069 57.6055 136.664L57.3398 137.628ZM51.29 134.442L50.5773 135.144C52.1131 136.704 54.3342 137.837 57.0742 138.592L57.3398 137.628L57.6055 136.664C55.0676 135.965 53.2084 134.966 52.0028 133.741L51.29 134.442ZM49.1904 129.128L48.1904 129.128C48.1905 131.595 49.0418 133.583 50.5773 135.144L51.29 134.442L52.0028 133.741C50.844 132.563 50.1905 131.082 50.1904 129.128L49.1904 129.128ZM48.1904 128.128L48.1904 129.128L48.1904 129.128H49.1904H50.1904C50.1904 128.023 49.2949 127.128 48.1905 127.128L48.1904 128.128ZM22.876 123.446L22.37 124.309C28.189 127.722 37.1704 129.128 48.1904 129.128L48.1904 128.128L48.1904 127.128C37.2428 127.128 28.718 125.714 23.3819 122.584L22.876 123.446ZM17.0732 117.215L16.1533 117.607C17.341 120.393 19.4605 122.602 22.37 124.309L22.876 123.446L23.382 122.584C20.7651 121.049 18.9808 119.14 17.9931 116.823L17.0732 117.215ZM16.5049 107.641L15.5249 107.442C14.7098 111.457 14.9657 114.821 16.1533 117.607L17.0732 117.215L17.9931 116.823C17.0016 114.497 16.7292 111.562 17.4849 107.84L16.5049 107.641ZM16.1416 106.655L15.5241 107.442L15.5248 107.442L16.5049 107.641L17.4849 107.839C17.6354 107.097 17.3529 106.335 16.7591 105.869L16.1416 106.655ZM2.01855 87.6914L1.02007 87.7464C1.34243 93.5998 5.52445 99.5932 15.5242 107.442L16.1416 106.655L16.759 105.869C6.81483 98.0636 3.28783 92.5533 3.01704 87.6364L2.01855 87.6914ZM10.4756 69.4873L9.67408 68.8893C6.93228 72.5643 4.697 75.8161 3.18692 78.856C1.67215 81.9054 0.857741 84.7984 1.02006 87.7464L2.01855 87.6914L3.01704 87.6364C2.87995 85.1466 3.55768 82.6052 4.97809 79.7458C6.4032 76.877 8.54613 73.7457 11.2771 70.0853L10.4756 69.4873ZM10.5215 68.3594L9.67374 68.8898L9.67385 68.8896L10.4756 69.4873L11.2773 70.085C11.7703 69.4237 11.8065 68.5279 11.3692 67.829L10.5215 68.3594ZM10.0127 49.9356L9.19903 49.3542C4.99392 55.2399 5.41416 62.0826 9.67377 68.8898L10.5215 68.3594L11.3692 67.8289C7.42517 61.526 7.20569 55.5845 10.8264 50.5169L10.0127 49.9356ZM36.6943 36.5371L36.4897 35.5583C22.2381 38.5378 13.4048 43.4678 9.19904 49.3542L10.0127 49.9356L10.8263 50.5169C14.5955 45.2417 22.8232 40.4587 36.899 37.5159L36.6943 36.5371ZM37.4893 35.5576H36.4893L36.4896 35.5583L36.6943 36.5371L36.8991 37.5159C37.8271 37.3218 38.4893 36.5031 38.4893 35.5576H37.4893ZM39.8838 24.833L39.0091 24.3484C37.318 27.4009 36.4893 31.1091 36.4893 35.5576L37.4893 35.5576L38.4893 35.5576C38.4893 31.3542 39.272 28.0009 40.7585 25.3176L39.8838 24.833ZM47.1719 17.9561L46.7038 17.0724C43.2546 18.8994 40.7003 21.2958 39.0091 24.3484L39.8838 24.833L40.7585 25.3176C42.2363 22.6502 44.484 20.5114 47.64 18.8397L47.1719 17.9561ZM78.4043 13.2656L78.4198 12.2657C64.0852 12.0431 53.6026 13.4181 46.7038 17.0724L47.1719 17.9561L47.64 18.8397C54.0601 15.439 64.0987 14.0436 78.3888 14.2655L78.4043 13.2656ZM78.5205 13.2607L78.4785 12.2616L78.3623 12.2665L78.4043 13.2656L78.4463 14.2647L78.5625 14.2599L78.5205 13.2607ZM78.8564 13.166L78.4197 12.2664L78.4195 12.2659L78.5205 13.2607L78.6216 14.2556C78.8506 14.2324 79.0786 14.1698 79.2932 14.0656L78.8564 13.166ZM113.687 2.71582L113.636 1.7171C102.106 2.30078 91.8798 5.73177 78.4197 12.2664L78.8564 13.166L79.2932 14.0656C92.6407 7.58564 102.589 4.27891 113.737 3.71454L113.687 2.71582ZM156.423 9.21778L156.674 8.24993C137.999 3.39645 125.166 1.13349 113.636 1.7171L113.687 2.71582L113.737 3.71455C124.943 3.14732 137.527 5.34 156.171 10.1856L156.423 9.21778ZM156.588 9.2461L156.757 8.2605L156.592 8.23218L156.423 9.21778L156.254 10.2034L156.419 10.2317L156.588 9.2461ZM157.076 9.16602L156.675 8.2502L156.674 8.24984L156.588 9.2461L156.501 10.2424C156.832 10.271 157.168 10.2177 157.478 10.0818L157.076 9.16602Z" fill="#333F72" mask="url(#path-1-inside-1_1_2605)"/>
</svg>
