<svg width="141" height="197" viewBox="0 0 141 197" fill="none" xmlns="http://www.w3.org/2000/svg">
<g id="Group 29">
<path id="Vector" d="M87.618 51.4137C73.4226 51.4137 61.9112 39.9023 61.9112 25.7069C61.9112 11.5114 73.4226 0 87.618 0C101.813 0 113.325 11.5114 113.325 25.7069C113.325 39.9023 101.813 51.4137 87.618 51.4137Z" fill="#333F72"/>
<path id="Vector_2" d="M99.7855 45.3895C96.1472 48.0139 91.6738 49.5647 86.8426 49.5647C76.1662 49.5647 67.2195 41.9302 65.2513 31.7309C68.8896 29.1065 73.3629 27.5558 78.1942 27.5558C88.8706 27.5558 97.8173 35.25 99.7855 45.3895Z" fill="#F3EDE1"/>
<path id="Vector_3" d="M110.462 67.3389V77.9556C110.462 98.1155 94.0596 114.518 73.8997 114.518H66.7424C46.5228 114.518 30.1802 98.1155 30.1802 77.9556V67.3389C30.1802 47.1193 46.5228 30.717 66.7424 30.717H73.8997C94.0596 30.717 110.462 47.1193 110.462 67.3389Z" fill="#333F72"/>
<path id="Vector_4" d="M100.8 73.8999V117.023C100.8 122.809 96.0876 127.461 90.302 127.461" stroke="#333F72" stroke-width="4"/>
<path id="Vector_5" d="M0.775375 196.291L2.86294 185.793C4.9505 175.654 9.12565 166.349 15.3287 158.059C22.8439 147.979 33.0431 140.165 44.6738 135.513L44.7931 135.394H44.9124L45.2703 135.274C53.2627 132.113 61.7323 130.503 70.5 130.503C79.2081 130.503 87.6777 132.113 95.7297 135.274L95.849 135.334C107.718 139.986 118.037 147.859 125.731 158.059C131.874 166.349 136.049 175.654 138.137 185.793L140.284 196.291H0.775375Z" fill="#E56E0C"/>
<path id="Vector_6" fill-rule="evenodd" clip-rule="evenodd" d="M95.9683 134.737H96.0279C108.017 139.449 118.454 147.382 126.208 157.701C132.411 166.051 136.646 175.475 138.734 185.674L140.702 195.456L141 196.887H0L0.298223 195.456L2.26649 185.674C4.35405 175.475 8.58881 166.051 14.8515 157.701C22.4264 147.561 32.6256 139.748 44.3756 134.976L44.5546 134.797H44.8528L45.0317 134.737C53.1434 131.517 61.6726 129.906 70.5 129.906C79.2678 129.906 87.8566 131.517 95.9683 134.737ZM70.5 131.099C61.7323 131.099 53.2627 132.769 45.4493 135.811C45.33 135.891 45.1908 135.95 45.0317 135.99C33.401 140.642 23.2614 148.456 15.8058 158.416C9.84137 166.349 5.54695 175.654 3.45938 185.913L1.49112 195.694H139.509L137.541 185.913C135.453 175.654 131.159 166.349 125.254 158.416C117.619 148.336 107.36 140.463 95.5508 135.811H95.4911C87.7373 132.769 79.2678 131.099 70.5 131.099Z" fill="#F3EDE1"/>
<path id="Vector_7" d="M34.2957 149.47C31.1345 149.47 31.1345 154.361 34.2957 154.361C37.4569 154.361 37.4569 149.47 34.2957 149.47Z" fill="#F3EDE1"/>
<path id="Vector_8" d="M102.291 149.47C99.1295 149.47 99.1295 154.361 102.291 154.361C105.452 154.361 105.452 149.47 102.291 149.47Z" fill="#F3EDE1"/>
<path id="Vector_9" d="M119.289 162.413C116.128 162.413 116.128 167.303 119.289 167.303C122.451 167.303 122.451 162.413 119.289 162.413Z" fill="#F3EDE1"/>
<path id="Vector_10" d="M94.3579 162.413C91.1967 162.413 91.1967 167.303 94.3579 167.303C97.5191 167.303 97.5191 162.413 94.3579 162.413Z" fill="#F3EDE1"/>
<path id="Vector_11" d="M69.4264 162.413C66.2652 162.413 66.2652 167.303 69.4264 167.303C72.5876 167.303 72.5876 162.413 69.4264 162.413Z" fill="#F3EDE1"/>
<path id="Vector_12" d="M44.4949 162.413C41.3934 162.413 41.3934 167.303 44.4949 167.303C47.6561 167.303 47.6561 162.413 44.4949 162.413Z" fill="#F3EDE1"/>
<path id="Vector_13" d="M19.6231 162.413C16.4619 162.413 16.4619 167.303 19.6231 167.303C22.7843 167.303 22.7843 162.413 19.6231 162.413Z" fill="#F3EDE1"/>
<path id="Vector_14" d="M127.759 174.819C124.598 174.819 124.598 179.709 127.759 179.709C130.92 179.709 130.92 174.819 127.759 174.819Z" fill="#F3EDE1"/>
<path id="Vector_15" d="M102.827 174.819C99.6663 174.819 99.6663 179.709 102.827 179.709C105.989 179.709 105.989 174.819 102.827 174.819Z" fill="#F3EDE1"/>
<path id="Vector_16" d="M77.8959 174.819C74.7944 174.819 74.7944 179.709 77.8959 179.709C81.0571 179.709 81.0571 174.819 77.8959 174.819Z" fill="#F3EDE1"/>
<path id="Vector_17" d="M53.0241 174.819C49.8629 174.819 49.8629 179.709 53.0241 179.709C56.1256 179.709 56.1256 174.819 53.0241 174.819Z" fill="#F3EDE1"/>
<path id="Vector_18" d="M28.0926 174.819C24.9315 174.819 24.9315 179.709 28.0926 179.709C31.2538 179.709 31.2538 174.819 28.0926 174.819Z" fill="#F3EDE1"/>
<path id="Vector_19" d="M116.904 187.165C113.742 187.165 113.742 192.115 116.904 192.115C120.065 192.115 120.065 187.165 116.904 187.165Z" fill="#F3EDE1"/>
<path id="Vector_20" d="M91.9721 187.165C88.8706 187.165 88.8706 192.115 91.9721 192.115C95.1332 192.115 95.1332 187.165 91.9721 187.165Z" fill="#F3EDE1"/>
<path id="Vector_21" d="M67.1003 187.165C63.9391 187.165 63.9391 192.115 67.1003 192.115C70.2614 192.115 70.2614 187.165 67.1003 187.165Z" fill="#F3EDE1"/>
<path id="Vector_22" d="M42.1688 187.165C39.0077 187.165 39.0077 192.115 42.1688 192.115C45.33 192.115 45.33 187.165 42.1688 187.165Z" fill="#F3EDE1"/>
<path id="Vector_23" d="M17.2373 187.165C14.0761 187.165 14.0761 192.115 17.2373 192.115C20.3985 192.115 20.3985 187.165 17.2373 187.165Z" fill="#F3EDE1"/>
<path id="Vector_24" d="M56.7817 160.921C50.7576 160.921 45.9264 156.031 45.9264 150.066V136.169C53.7399 133.067 61.9708 131.517 70.5 131.517C78.9696 131.517 87.2601 133.067 95.0736 136.169V150.066C95.0736 156.031 90.2424 160.921 84.2183 160.921H56.7817Z" fill="#F3EDE1"/>
<path id="Vector_25" fill-rule="evenodd" clip-rule="evenodd" d="M95.4911 135.811H95.5508V150.066C95.5508 156.269 90.481 161.339 84.2183 161.339H56.7817C50.519 161.339 45.4492 156.269 45.4492 150.066V135.811C53.2627 132.769 61.7322 131.099 70.5 131.099C79.2678 131.099 87.7373 132.769 95.4911 135.811ZM70.5 131.994C62.1498 131.994 54.0381 133.485 46.3439 136.467V150.066C46.3439 155.792 51.0558 160.444 56.7817 160.444H84.2183C90.0038 160.444 94.6561 155.792 94.6561 150.066V136.467C86.9619 133.485 78.8503 131.994 70.5 131.994Z" fill="#333F72"/>
<g id="Vector_26">
<path d="M42.2881 96.2666C37.2183 100.74 29.5241 100.263 24.9911 95.193C20.5178 90.1232 20.9949 82.3694 26.0647 77.896C31.1345 73.4227 38.8884 73.8999 43.3617 78.9697" fill="#F3EDE1"/>
<path d="M42.2881 96.2666C37.2183 100.74 29.5241 100.263 24.9911 95.193C20.5178 90.1232 20.9949 82.3694 26.0647 77.896C31.1345 73.4227 38.8884 73.8999 43.3617 78.9697" stroke="#333F72" stroke-width="1.5"/>
</g>
<g id="Vector_27">
<path d="M58.5711 139.39V109.09H82.4886V139.39" fill="#F3EDE1"/>
<path d="M58.5711 139.39V109.09H82.4886V139.39" stroke="#333F72" stroke-width="1.5"/>
</g>
<path id="Vector_28" d="M81.9518 112.192V122.629C77.4784 125.075 72.2894 126.447 66.802 126.447C64.1379 126.447 61.5533 126.129 59.0482 125.492V112.192H81.9518Z" fill="#F3CFBF"/>
<path id="Vector_29" d="M99.7855 70.023V84.7552C99.7855 93.9405 96.0279 102.171 90.0635 108.196C84.099 114.16 75.8084 117.858 66.6231 117.858C53.0838 117.858 41.3934 109.746 36.3236 98.056C34.5343 93.9405 33.5203 89.4671 33.5203 84.7552V70.023C33.5203 51.712 48.3718 36.9202 66.6231 36.9202C84.934 36.9202 99.7855 51.712 99.7855 70.023Z" fill="#F3EDE1" stroke="#333F72" stroke-width="1.5"/>
<path id="Vector_30" d="M90.481 88.5127C90.481 92.9264 86.9023 96.505 82.4886 96.505C78.0749 96.505 74.4366 92.9264 74.4366 88.5127C74.4366 84.0989 78.0749 80.5203 82.4886 80.5203C86.9023 80.5203 90.481 84.0989 90.481 88.5127Z" fill="#F3CFBF"/>
<path id="Vector_31" d="M52.6066 88.5127C52.6066 92.9264 49.0279 96.505 44.6142 96.505C40.2005 96.505 36.6218 92.9264 36.6218 88.5127C36.6218 84.0989 40.2005 80.5203 44.6142 80.5203C49.0279 80.5203 52.6066 84.0989 52.6066 88.5127Z" fill="#F3CFBF"/>
<path id="Vector_32" d="M80.401 80.5203C80.401 82.1904 79.0888 83.5026 77.4188 83.5026C75.8084 83.5026 74.4366 82.1904 74.4366 80.5203C74.4366 78.9099 75.8084 77.5381 77.4188 77.5381C79.0888 77.5381 80.401 78.9099 80.401 80.5203Z" fill="#333F72"/>
<path id="Vector_33" d="M51.7119 80.5203C51.7119 82.1904 50.3998 83.5026 48.7297 83.5026C47.1193 83.5026 45.7475 82.1904 45.7475 80.5203C45.7475 78.9099 47.1193 77.5381 48.7297 77.5381C50.3998 77.5381 51.7119 78.9099 51.7119 80.5203Z" fill="#333F72"/>
<g id="Vector_34">
<path d="M64.4759 94.0597H56.8414L66.6231 37.099" fill="#F3EDE1"/>
<path d="M64.4759 94.0597H56.8414L66.6231 37.099" stroke="#333F72" stroke-width="1.5"/>
</g>
<path id="Vector_35" d="M58.5711 100.68C63.7602 105.929 68.651 100.68 68.651 100.68" stroke="#333F72" stroke-width="1.5"/>
<path id="Vector_36" d="M41.5127 69.9036C41.5127 69.9036 43.1231 66.0863 47.0596 65.1917C49.7436 64.5952 52.6066 65.9074 52.6066 69.9036H41.5127Z" fill="#333F72"/>
<path id="Vector_37" d="M73.8401 69.9036C73.8401 65.9074 76.703 64.5952 79.3871 65.1917C83.3236 66.0863 84.8744 69.9036 84.8744 69.9036H73.8401Z" fill="#333F72"/>
<g id="Vector_38">
<path d="M95.5508 78.9697C100.024 73.8999 107.778 73.4227 112.848 77.896C117.918 82.3694 118.395 90.1232 113.921 95.193C109.388 100.263 101.694 100.74 96.6244 96.2666" fill="#F3EDE1"/>
<path d="M95.5508 78.9697C100.024 73.8999 107.778 73.4227 112.848 77.896C117.918 82.3694 118.395 90.1232 113.921 95.193C109.388 100.263 101.694 100.74 96.6244 96.2666" stroke="#333F72" stroke-width="1.5"/>
</g>
<path id="Vector_39" d="M102.47 89.8846L108.792 83.7412" stroke="#333F72" stroke-width="1.5"/>
<path id="Vector_40" d="M43.1231 127.461C37.3376 127.461 32.6853 122.809 32.6853 117.023V73.8999" stroke="#333F72" stroke-width="4"/>
<path id="Vector_41" d="M66.6231 34.5343C96.7437 34.5343 100.8 60.778 100.8 60.778C100.8 60.778 83.0254 60.778 70.2614 60.778C52.9645 60.778 50.6383 51.2945 50.6383 51.2945C50.6383 51.2945 49.8033 60.778 33.5203 60.778C33.5203 60.778 41.8109 34.5343 66.6231 34.5343Z" fill="#333F72"/>
</g>
</svg>
